<svg width="609" height="510" viewBox="0 0 609 510" fill="none" xmlns="http://www.w3.org/2000/svg">
<g filter="url(#filter0_d_15:106)">
<rect x="20" y="20" width="485" height="416" rx="4" fill="white"/>
<rect x="20.5" y="20.5" width="484" height="415" rx="3.5" stroke="#3A9286"/>
</g>
<path d="M369.892 69.212H359.884L358.228 74H352.936L361.972 48.836H367.84L376.876 74H371.548L369.892 69.212ZM368.524 65.18L364.888 54.668L361.252 65.18H368.524ZM399.082 54.056V74H394.006V71.48C393.358 72.344 392.506 73.028 391.45 73.532C390.418 74.012 389.29 74.252 388.066 74.252C386.506 74.252 385.126 73.928 383.926 73.28C382.726 72.608 381.778 71.636 381.082 70.364C380.41 69.068 380.074 67.532 380.074 65.756V54.056H385.114V65.036C385.114 66.62 385.51 67.844 386.302 68.708C387.094 69.548 388.174 69.968 389.542 69.968C390.934 69.968 392.026 69.548 392.818 68.708C393.61 67.844 394.006 66.62 394.006 65.036V54.056H399.082ZM411.866 53.732C413.354 53.732 414.662 54.032 415.79 54.632C416.918 55.208 417.806 55.964 418.454 56.9V54.056H423.53V74.144C423.53 75.992 423.158 77.636 422.414 79.076C421.67 80.54 420.554 81.692 419.066 82.532C417.578 83.396 415.778 83.828 413.666 83.828C410.834 83.828 408.506 83.168 406.682 81.848C404.882 80.528 403.862 78.728 403.622 76.448H408.626C408.89 77.36 409.454 78.08 410.318 78.608C411.206 79.16 412.274 79.436 413.522 79.436C414.986 79.436 416.174 78.992 417.086 78.104C417.998 77.24 418.454 75.92 418.454 74.144V71.048C417.806 71.984 416.906 72.764 415.754 73.388C414.626 74.012 413.33 74.324 411.866 74.324C410.186 74.324 408.65 73.892 407.258 73.028C405.866 72.164 404.762 70.952 403.946 69.392C403.154 67.808 402.758 65.996 402.758 63.956C402.758 61.94 403.154 60.152 403.946 58.592C404.762 57.032 405.854 55.832 407.222 54.992C408.614 54.152 410.162 53.732 411.866 53.732ZM418.454 64.028C418.454 62.804 418.214 61.76 417.734 60.896C417.254 60.008 416.606 59.336 415.79 58.88C414.974 58.4 414.098 58.16 413.162 58.16C412.226 58.16 411.362 58.388 410.57 58.844C409.778 59.3 409.13 59.972 408.626 60.86C408.146 61.724 407.906 62.756 407.906 63.956C407.906 65.156 408.146 66.212 408.626 67.124C409.13 68.012 409.778 68.696 410.57 69.176C411.386 69.656 412.25 69.896 413.162 69.896C414.098 69.896 414.974 69.668 415.79 69.212C416.606 68.732 417.254 68.06 417.734 67.196C418.214 66.308 418.454 65.252 418.454 64.028ZM447.281 54.056V74H442.205V71.48C441.557 72.344 440.705 73.028 439.649 73.532C438.617 74.012 437.489 74.252 436.265 74.252C434.705 74.252 433.325 73.928 432.125 73.28C430.925 72.608 429.977 71.636 429.281 70.364C428.609 69.068 428.273 67.532 428.273 65.756V54.056H433.313V65.036C433.313 66.62 433.709 67.844 434.501 68.708C435.293 69.548 436.373 69.968 437.741 69.968C439.133 69.968 440.225 69.548 441.017 68.708C441.809 67.844 442.205 66.62 442.205 65.036V54.056H447.281ZM459.886 74.324C458.254 74.324 456.79 74.036 455.494 73.46C454.198 72.86 453.166 72.056 452.398 71.048C451.654 70.04 451.246 68.924 451.174 67.7H456.25C456.346 68.468 456.718 69.104 457.366 69.608C458.038 70.112 458.866 70.364 459.85 70.364C460.81 70.364 461.554 70.172 462.082 69.788C462.634 69.404 462.91 68.912 462.91 68.312C462.91 67.664 462.574 67.184 461.902 66.872C461.254 66.536 460.21 66.176 458.77 65.792C457.282 65.432 456.058 65.06 455.098 64.676C454.162 64.292 453.346 63.704 452.65 62.912C451.978 62.12 451.642 61.052 451.642 59.708C451.642 58.604 451.954 57.596 452.578 56.684C453.226 55.772 454.138 55.052 455.314 54.524C456.514 53.996 457.918 53.732 459.526 53.732C461.902 53.732 463.798 54.332 465.214 55.532C466.63 56.708 467.41 58.304 467.554 60.32H462.73C462.658 59.528 462.322 58.904 461.722 58.448C461.146 57.968 460.366 57.728 459.382 57.728C458.47 57.728 457.762 57.896 457.258 58.232C456.778 58.568 456.538 59.036 456.538 59.636C456.538 60.308 456.874 60.824 457.546 61.184C458.218 61.52 459.262 61.868 460.678 62.228C462.118 62.588 463.306 62.96 464.242 63.344C465.178 63.728 465.982 64.328 466.654 65.144C467.35 65.936 467.71 66.992 467.734 68.312C467.734 69.464 467.41 70.496 466.762 71.408C466.138 72.32 465.226 73.04 464.026 73.568C462.85 74.072 461.47 74.324 459.886 74.324ZM477.739 58.196V67.844C477.739 68.516 477.895 69.008 478.207 69.32C478.543 69.608 479.095 69.752 479.863 69.752H482.203V74H479.035C474.787 74 472.663 71.936 472.663 67.808V58.196H470.287V54.056H472.663V49.124H477.739V54.056H482.203V58.196H477.739Z" fill="#3E4851"/>
<path d="M50.328 378.208C51.864 376.928 53.088 375.864 54 375.016C54.912 374.152 55.672 373.256 56.28 372.328C56.888 371.4 57.192 370.488 57.192 369.592C57.192 368.776 57 368.136 56.616 367.672C56.232 367.208 55.64 366.976 54.84 366.976C54.04 366.976 53.424 367.248 52.992 367.792C52.56 368.32 52.336 369.048 52.32 369.976H49.056C49.12 368.056 49.688 366.6 50.76 365.608C51.848 364.616 53.224 364.12 54.888 364.12C56.712 364.12 58.112 364.608 59.088 365.584C60.064 366.544 60.552 367.816 60.552 369.4C60.552 370.648 60.216 371.84 59.544 372.976C58.872 374.112 58.104 375.104 57.24 375.952C56.376 376.784 55.248 377.792 53.856 378.976H60.936V381.76H49.08V379.264L50.328 378.208ZM74.1893 367.048L67.8053 382H64.3973L70.8293 367.432H62.6213V364.552H74.1893V367.048Z" fill="#A3AEB8"/>
<path d="M114.328 378.208C115.864 376.928 117.088 375.864 118 375.016C118.912 374.152 119.672 373.256 120.28 372.328C120.888 371.4 121.192 370.488 121.192 369.592C121.192 368.776 121 368.136 120.616 367.672C120.232 367.208 119.64 366.976 118.84 366.976C118.04 366.976 117.424 367.248 116.992 367.792C116.56 368.32 116.336 369.048 116.32 369.976H113.056C113.12 368.056 113.688 366.6 114.76 365.608C115.848 364.616 117.224 364.12 118.888 364.12C120.712 364.12 122.112 364.608 123.088 365.584C124.064 366.544 124.552 367.816 124.552 369.4C124.552 370.648 124.216 371.84 123.544 372.976C122.872 374.112 122.104 375.104 121.24 375.952C120.376 376.784 119.248 377.792 117.856 378.976H124.936V381.76H113.08V379.264L114.328 378.208ZM129.981 372.736C128.381 371.904 127.581 370.616 127.581 368.872C127.581 368.008 127.797 367.224 128.229 366.52C128.677 365.8 129.341 365.232 130.221 364.816C131.117 364.384 132.205 364.168 133.485 364.168C134.765 364.168 135.845 364.384 136.725 364.816C137.621 365.232 138.285 365.8 138.717 366.52C139.165 367.224 139.389 368.008 139.389 368.872C139.389 369.752 139.173 370.528 138.741 371.2C138.309 371.856 137.733 372.368 137.013 372.736C137.893 373.12 138.581 373.68 139.077 374.416C139.573 375.152 139.821 376.024 139.821 377.032C139.821 378.12 139.541 379.072 138.981 379.888C138.437 380.688 137.685 381.304 136.725 381.736C135.765 382.168 134.685 382.384 133.485 382.384C132.285 382.384 131.205 382.168 130.245 381.736C129.301 381.304 128.549 380.688 127.989 379.888C127.445 379.072 127.173 378.12 127.173 377.032C127.173 376.024 127.421 375.152 127.917 374.416C128.413 373.664 129.101 373.104 129.981 372.736ZM136.125 369.352C136.125 368.568 135.885 367.96 135.405 367.528C134.941 367.096 134.301 366.88 133.485 366.88C132.685 366.88 132.045 367.096 131.565 367.528C131.101 367.96 130.869 368.576 130.869 369.376C130.869 370.096 131.109 370.672 131.589 371.104C132.085 371.536 132.717 371.752 133.485 371.752C134.253 371.752 134.885 371.536 135.381 371.104C135.877 370.656 136.125 370.072 136.125 369.352ZM133.485 374.2C132.573 374.2 131.829 374.432 131.253 374.896C130.693 375.36 130.413 376.024 130.413 376.888C130.413 377.688 130.685 378.344 131.229 378.856C131.789 379.352 132.541 379.6 133.485 379.6C134.429 379.6 135.173 379.344 135.717 378.832C136.261 378.32 136.533 377.672 136.533 376.888C136.533 376.04 136.253 375.384 135.693 374.92C135.133 374.44 134.397 374.2 133.485 374.2Z" fill="#A3AEB8"/>
<path d="M178.328 378.208C179.864 376.928 181.088 375.864 182 375.016C182.912 374.152 183.672 373.256 184.28 372.328C184.888 371.4 185.192 370.488 185.192 369.592C185.192 368.776 185 368.136 184.616 367.672C184.232 367.208 183.64 366.976 182.84 366.976C182.04 366.976 181.424 367.248 180.992 367.792C180.56 368.32 180.336 369.048 180.32 369.976H177.056C177.12 368.056 177.688 366.6 178.76 365.608C179.848 364.616 181.224 364.12 182.888 364.12C184.712 364.12 186.112 364.608 187.088 365.584C188.064 366.544 188.552 367.816 188.552 369.4C188.552 370.648 188.216 371.84 187.544 372.976C186.872 374.112 186.104 375.104 185.24 375.952C184.376 376.784 183.248 377.792 181.856 378.976H188.936V381.76H177.08V379.264L178.328 378.208ZM194.941 377.08C195.069 377.784 195.357 378.328 195.805 378.712C196.269 379.08 196.885 379.264 197.653 379.264C198.645 379.264 199.365 378.856 199.813 378.04C200.261 377.208 200.485 375.816 200.485 373.864C200.117 374.376 199.597 374.776 198.925 375.064C198.269 375.352 197.557 375.496 196.789 375.496C195.765 375.496 194.837 375.288 194.005 374.872C193.189 374.44 192.541 373.808 192.061 372.976C191.581 372.128 191.341 371.104 191.341 369.904C191.341 368.128 191.869 366.72 192.925 365.68C193.981 364.624 195.421 364.096 197.245 364.096C199.517 364.096 201.117 364.824 202.045 366.28C202.989 367.736 203.461 369.928 203.461 372.856C203.461 374.936 203.277 376.64 202.909 377.968C202.557 379.296 201.941 380.304 201.061 380.992C200.197 381.68 199.013 382.024 197.509 382.024C196.325 382.024 195.317 381.8 194.485 381.352C193.653 380.888 193.013 380.288 192.565 379.552C192.133 378.8 191.885 377.976 191.821 377.08H194.941ZM197.485 372.76C198.317 372.76 198.973 372.504 199.453 371.992C199.933 371.48 200.173 370.792 200.173 369.928C200.173 368.984 199.917 368.256 199.405 367.744C198.909 367.216 198.229 366.952 197.365 366.952C196.501 366.952 195.813 367.224 195.301 367.768C194.805 368.296 194.557 369 194.557 369.88C194.557 370.728 194.797 371.424 195.277 371.968C195.773 372.496 196.509 372.76 197.485 372.76Z" fill="#A3AEB8"/>
<path d="M250.32 369.112C250.4 367.512 250.96 366.28 252 365.416C253.056 364.536 254.44 364.096 256.152 364.096C257.32 364.096 258.32 364.304 259.152 364.72C259.984 365.12 260.608 365.672 261.024 366.376C261.456 367.064 261.672 367.848 261.672 368.728C261.672 369.736 261.408 370.592 260.88 371.296C260.368 371.984 259.752 372.448 259.032 372.688V372.784C259.96 373.072 260.68 373.584 261.192 374.32C261.72 375.056 261.984 376 261.984 377.152C261.984 378.112 261.76 378.968 261.312 379.72C260.88 380.472 260.232 381.064 259.368 381.496C258.52 381.912 257.496 382.12 256.296 382.12C254.488 382.12 253.016 381.664 251.88 380.752C250.744 379.84 250.144 378.496 250.08 376.72H253.344C253.376 377.504 253.64 378.136 254.136 378.616C254.648 379.08 255.344 379.312 256.224 379.312C257.04 379.312 257.664 379.088 258.096 378.64C258.544 378.176 258.768 377.584 258.768 376.864C258.768 375.904 258.464 375.216 257.856 374.8C257.248 374.384 256.304 374.176 255.024 374.176H254.328V371.416H255.024C257.296 371.416 258.432 370.656 258.432 369.136C258.432 368.448 258.224 367.912 257.808 367.528C257.408 367.144 256.824 366.952 256.056 366.952C255.304 366.952 254.72 367.16 254.304 367.576C253.904 367.976 253.672 368.488 253.608 369.112H250.32ZM264.639 373.024C264.639 370.256 265.135 368.088 266.127 366.52C267.135 364.952 268.799 364.168 271.119 364.168C273.439 364.168 275.095 364.952 276.087 366.52C277.095 368.088 277.599 370.256 277.599 373.024C277.599 375.808 277.095 377.992 276.087 379.576C275.095 381.16 273.439 381.952 271.119 381.952C268.799 381.952 267.135 381.16 266.127 379.576C265.135 377.992 264.639 375.808 264.639 373.024ZM274.287 373.024C274.287 371.84 274.207 370.848 274.047 370.048C273.903 369.232 273.599 368.568 273.135 368.056C272.687 367.544 272.015 367.288 271.119 367.288C270.223 367.288 269.543 367.544 269.079 368.056C268.631 368.568 268.327 369.232 268.167 370.048C268.023 370.848 267.951 371.84 267.951 373.024C267.951 374.24 268.023 375.264 268.167 376.096C268.311 376.912 268.615 377.576 269.079 378.088C269.543 378.584 270.223 378.832 271.119 378.832C272.015 378.832 272.695 378.584 273.159 378.088C273.623 377.576 273.927 376.912 274.071 376.096C274.215 375.264 274.287 374.24 274.287 373.024Z" fill="#A3AEB8"/>
<path d="M316.32 369.112C316.4 367.512 316.96 366.28 318 365.416C319.056 364.536 320.44 364.096 322.152 364.096C323.32 364.096 324.32 364.304 325.152 364.72C325.984 365.12 326.608 365.672 327.024 366.376C327.456 367.064 327.672 367.848 327.672 368.728C327.672 369.736 327.408 370.592 326.88 371.296C326.368 371.984 325.752 372.448 325.032 372.688V372.784C325.96 373.072 326.68 373.584 327.192 374.32C327.72 375.056 327.984 376 327.984 377.152C327.984 378.112 327.76 378.968 327.312 379.72C326.88 380.472 326.232 381.064 325.368 381.496C324.52 381.912 323.496 382.12 322.296 382.12C320.488 382.12 319.016 381.664 317.88 380.752C316.744 379.84 316.144 378.496 316.08 376.72H319.344C319.376 377.504 319.64 378.136 320.136 378.616C320.648 379.08 321.344 379.312 322.224 379.312C323.04 379.312 323.664 379.088 324.096 378.64C324.544 378.176 324.768 377.584 324.768 376.864C324.768 375.904 324.464 375.216 323.856 374.8C323.248 374.384 322.304 374.176 321.024 374.176H320.328V371.416H321.024C323.296 371.416 324.432 370.656 324.432 369.136C324.432 368.448 324.224 367.912 323.808 367.528C323.408 367.144 322.824 366.952 322.056 366.952C321.304 366.952 320.72 367.16 320.304 367.576C319.904 367.976 319.672 368.488 319.608 369.112H316.32ZM330.231 367.6V364.504H336.015V382H332.559V367.6H330.231Z" fill="#A3AEB8"/>
<path d="M50.328 321.208C51.864 319.928 53.088 318.864 54 318.016C54.912 317.152 55.672 316.256 56.28 315.328C56.888 314.4 57.192 313.488 57.192 312.592C57.192 311.776 57 311.136 56.616 310.672C56.232 310.208 55.64 309.976 54.84 309.976C54.04 309.976 53.424 310.248 52.992 310.792C52.56 311.32 52.336 312.048 52.32 312.976H49.056C49.12 311.056 49.688 309.6 50.76 308.608C51.848 307.616 53.224 307.12 54.888 307.12C56.712 307.12 58.112 307.608 59.088 308.584C60.064 309.544 60.552 310.816 60.552 312.4C60.552 313.648 60.216 314.84 59.544 315.976C58.872 317.112 58.104 318.104 57.24 318.952C56.376 319.784 55.248 320.792 53.856 321.976H60.936V324.76H49.08V322.264L50.328 321.208ZM63.0533 316.024C63.0533 313.256 63.5493 311.088 64.5413 309.52C65.5493 307.952 67.2133 307.168 69.5333 307.168C71.8533 307.168 73.5093 307.952 74.5013 309.52C75.5093 311.088 76.0133 313.256 76.0133 316.024C76.0133 318.808 75.5093 320.992 74.5013 322.576C73.5093 324.16 71.8533 324.952 69.5333 324.952C67.2133 324.952 65.5493 324.16 64.5413 322.576C63.5493 320.992 63.0533 318.808 63.0533 316.024ZM72.7013 316.024C72.7013 314.84 72.6213 313.848 72.4613 313.048C72.3173 312.232 72.0133 311.568 71.5493 311.056C71.1013 310.544 70.4293 310.288 69.5333 310.288C68.6373 310.288 67.9573 310.544 67.4933 311.056C67.0453 311.568 66.7413 312.232 66.5813 313.048C66.4373 313.848 66.3653 314.84 66.3653 316.024C66.3653 317.24 66.4373 318.264 66.5813 319.096C66.7253 319.912 67.0293 320.576 67.4933 321.088C67.9573 321.584 68.6373 321.832 69.5333 321.832C70.4293 321.832 71.1093 321.584 71.5733 321.088C72.0373 320.576 72.3413 319.912 72.4853 319.096C72.6293 318.264 72.7013 317.24 72.7013 316.024Z" fill="#A3AEB8"/>
<path d="M114.328 321.208C115.864 319.928 117.088 318.864 118 318.016C118.912 317.152 119.672 316.256 120.28 315.328C120.888 314.4 121.192 313.488 121.192 312.592C121.192 311.776 121 311.136 120.616 310.672C120.232 310.208 119.64 309.976 118.84 309.976C118.04 309.976 117.424 310.248 116.992 310.792C116.56 311.32 116.336 312.048 116.32 312.976H113.056C113.12 311.056 113.688 309.6 114.76 308.608C115.848 307.616 117.224 307.12 118.888 307.12C120.712 307.12 122.112 307.608 123.088 308.584C124.064 309.544 124.552 310.816 124.552 312.4C124.552 313.648 124.216 314.84 123.544 315.976C122.872 317.112 122.104 318.104 121.24 318.952C120.376 319.784 119.248 320.792 117.856 321.976H124.936V324.76H113.08V322.264L114.328 321.208ZM126.645 310.6V307.504H132.429V325H128.973V310.6H126.645Z" fill="#A3AEB8"/>
<path d="M178.328 321.208C179.864 319.928 181.088 318.864 182 318.016C182.912 317.152 183.672 316.256 184.28 315.328C184.888 314.4 185.192 313.488 185.192 312.592C185.192 311.776 185 311.136 184.616 310.672C184.232 310.208 183.64 309.976 182.84 309.976C182.04 309.976 181.424 310.248 180.992 310.792C180.56 311.32 180.336 312.048 180.32 312.976H177.056C177.12 311.056 177.688 309.6 178.76 308.608C179.848 307.616 181.224 307.12 182.888 307.12C184.712 307.12 186.112 307.608 187.088 308.584C188.064 309.544 188.552 310.816 188.552 312.4C188.552 313.648 188.216 314.84 187.544 315.976C186.872 317.112 186.104 318.104 185.24 318.952C184.376 319.784 183.248 320.792 181.856 321.976H188.936V324.76H177.08V322.264L178.328 321.208ZM192.109 321.208C193.645 319.928 194.869 318.864 195.781 318.016C196.693 317.152 197.453 316.256 198.061 315.328C198.669 314.4 198.973 313.488 198.973 312.592C198.973 311.776 198.781 311.136 198.397 310.672C198.013 310.208 197.421 309.976 196.621 309.976C195.821 309.976 195.205 310.248 194.773 310.792C194.341 311.32 194.117 312.048 194.101 312.976H190.837C190.901 311.056 191.469 309.6 192.541 308.608C193.629 307.616 195.005 307.12 196.669 307.12C198.493 307.12 199.893 307.608 200.869 308.584C201.845 309.544 202.333 310.816 202.333 312.4C202.333 313.648 201.997 314.84 201.325 315.976C200.653 317.112 199.885 318.104 199.021 318.952C198.157 319.784 197.029 320.792 195.637 321.976H202.717V324.76H190.861V322.264L192.109 321.208Z" fill="#A3AEB8"/>
<path d="M251.328 321.208C252.864 319.928 254.088 318.864 255 318.016C255.912 317.152 256.672 316.256 257.28 315.328C257.888 314.4 258.192 313.488 258.192 312.592C258.192 311.776 258 311.136 257.616 310.672C257.232 310.208 256.64 309.976 255.84 309.976C255.04 309.976 254.424 310.248 253.992 310.792C253.56 311.32 253.336 312.048 253.32 312.976H250.056C250.12 311.056 250.688 309.6 251.76 308.608C252.848 307.616 254.224 307.12 255.888 307.12C257.712 307.12 259.112 307.608 260.088 308.584C261.064 309.544 261.552 310.816 261.552 312.4C261.552 313.648 261.216 314.84 260.544 315.976C259.872 317.112 259.104 318.104 258.24 318.952C257.376 319.784 256.248 320.792 254.856 321.976H261.936V324.76H250.08V322.264L251.328 321.208ZM264.101 312.112C264.181 310.512 264.741 309.28 265.781 308.416C266.837 307.536 268.221 307.096 269.933 307.096C271.101 307.096 272.101 307.304 272.933 307.72C273.765 308.12 274.389 308.672 274.805 309.376C275.237 310.064 275.453 310.848 275.453 311.728C275.453 312.736 275.189 313.592 274.661 314.296C274.149 314.984 273.533 315.448 272.813 315.688V315.784C273.741 316.072 274.461 316.584 274.973 317.32C275.501 318.056 275.765 319 275.765 320.152C275.765 321.112 275.541 321.968 275.093 322.72C274.661 323.472 274.013 324.064 273.149 324.496C272.301 324.912 271.277 325.12 270.077 325.12C268.269 325.12 266.797 324.664 265.661 323.752C264.525 322.84 263.925 321.496 263.861 319.72H267.125C267.157 320.504 267.421 321.136 267.917 321.616C268.429 322.08 269.125 322.312 270.005 322.312C270.821 322.312 271.445 322.088 271.877 321.64C272.325 321.176 272.549 320.584 272.549 319.864C272.549 318.904 272.245 318.216 271.637 317.8C271.029 317.384 270.085 317.176 268.805 317.176H268.109V314.416H268.805C271.077 314.416 272.213 313.656 272.213 312.136C272.213 311.448 272.005 310.912 271.589 310.528C271.189 310.144 270.605 309.952 269.837 309.952C269.085 309.952 268.501 310.16 268.085 310.576C267.685 310.976 267.453 311.488 267.389 312.112H264.101Z" fill="#A3AEB8"/>
<path d="M317.328 321.208C318.864 319.928 320.088 318.864 321 318.016C321.912 317.152 322.672 316.256 323.28 315.328C323.888 314.4 324.192 313.488 324.192 312.592C324.192 311.776 324 311.136 323.616 310.672C323.232 310.208 322.64 309.976 321.84 309.976C321.04 309.976 320.424 310.248 319.992 310.792C319.56 311.32 319.336 312.048 319.32 312.976H316.056C316.12 311.056 316.688 309.6 317.76 308.608C318.848 307.616 320.224 307.12 321.888 307.12C323.712 307.12 325.112 307.608 326.088 308.584C327.064 309.544 327.552 310.816 327.552 312.4C327.552 313.648 327.216 314.84 326.544 315.976C325.872 317.112 325.104 318.104 324.24 318.952C323.376 319.784 322.248 320.792 320.856 321.976H327.936V324.76H316.08V322.264L317.328 321.208ZM329.909 321.592V318.952L337.757 307.72H341.669V318.664H343.781V321.592H341.669V325H338.309V321.592H329.909ZM338.525 311.32L333.605 318.664H338.525V311.32Z" fill="#A3AEB8"/>
<path d="M388.328 321.208C389.864 319.928 391.088 318.864 392 318.016C392.912 317.152 393.672 316.256 394.28 315.328C394.888 314.4 395.192 313.488 395.192 312.592C395.192 311.776 395 311.136 394.616 310.672C394.232 310.208 393.64 309.976 392.84 309.976C392.04 309.976 391.424 310.248 390.992 310.792C390.56 311.32 390.336 312.048 390.32 312.976H387.056C387.12 311.056 387.688 309.6 388.76 308.608C389.848 307.616 391.224 307.12 392.888 307.12C394.712 307.12 396.112 307.608 397.088 308.584C398.064 309.544 398.552 310.816 398.552 312.4C398.552 313.648 398.216 314.84 397.544 315.976C396.872 317.112 396.104 318.104 395.24 318.952C394.376 319.784 393.248 320.792 391.856 321.976H398.936V324.76H387.08V322.264L388.328 321.208ZM412.813 310.408H405.037V314.512C405.373 314.096 405.853 313.76 406.477 313.504C407.101 313.232 407.765 313.096 408.469 313.096C409.749 313.096 410.797 313.376 411.613 313.936C412.429 314.496 413.021 315.216 413.389 316.096C413.757 316.96 413.941 317.888 413.941 318.88C413.941 320.72 413.413 322.2 412.357 323.32C411.317 324.44 409.829 325 407.893 325C406.069 325 404.613 324.544 403.525 323.632C402.437 322.72 401.821 321.528 401.677 320.056H404.941C405.085 320.696 405.405 321.208 405.901 321.592C406.413 321.976 407.061 322.168 407.845 322.168C408.789 322.168 409.501 321.872 409.981 321.28C410.461 320.688 410.701 319.904 410.701 318.928C410.701 317.936 410.453 317.184 409.957 316.672C409.477 316.144 408.765 315.88 407.821 315.88C407.149 315.88 406.589 316.048 406.141 316.384C405.693 316.72 405.373 317.168 405.181 317.728H401.965V307.456H412.813V310.408Z" fill="#A3AEB8"/>
<path d="M458.864 310.6V307.504H464.648V325H461.192V310.6H458.864ZM467.823 321.592V318.952L475.671 307.72H479.583V318.664H481.695V321.592H479.583V325H476.223V321.592H467.823ZM476.439 311.32L471.519 318.664H476.439V311.32Z" fill="#3A9286"/>
<path d="M48.864 252.6V249.504H54.648V267H51.192V252.6H48.864ZM58.0153 254.112C58.0953 252.512 58.6553 251.28 59.6953 250.416C60.7513 249.536 62.1353 249.096 63.8473 249.096C65.0153 249.096 66.0153 249.304 66.8473 249.72C67.6793 250.12 68.3033 250.672 68.7193 251.376C69.1513 252.064 69.3673 252.848 69.3673 253.728C69.3673 254.736 69.1033 255.592 68.5753 256.296C68.0633 256.984 67.4473 257.448 66.7273 257.688V257.784C67.6553 258.072 68.3753 258.584 68.8873 259.32C69.4153 260.056 69.6793 261 69.6793 262.152C69.6793 263.112 69.4553 263.968 69.0073 264.72C68.5753 265.472 67.9273 266.064 67.0633 266.496C66.2153 266.912 65.1913 267.12 63.9913 267.12C62.1833 267.12 60.7113 266.664 59.5753 265.752C58.4393 264.84 57.8393 263.496 57.7753 261.72H61.0393C61.0713 262.504 61.3353 263.136 61.8313 263.616C62.3433 264.08 63.0393 264.312 63.9193 264.312C64.7353 264.312 65.3593 264.088 65.7913 263.64C66.2393 263.176 66.4633 262.584 66.4633 261.864C66.4633 260.904 66.1593 260.216 65.5513 259.8C64.9433 259.384 63.9993 259.176 62.7193 259.176H62.0233V256.416H62.7193C64.9913 256.416 66.1273 255.656 66.1273 254.136C66.1273 253.448 65.9193 252.912 65.5033 252.528C65.1033 252.144 64.5193 251.952 63.7513 251.952C62.9993 251.952 62.4153 252.16 61.9993 252.576C61.5993 252.976 61.3673 253.488 61.3033 254.112H58.0153Z" fill="#A3AEB8"/>
<path d="M114.864 252.6V249.504H120.648V267H117.192V252.6H114.864ZM123.823 263.592V260.952L131.671 249.72H135.583V260.664H137.695V263.592H135.583V267H132.223V263.592H123.823ZM132.439 253.32L127.519 260.664H132.439V253.32Z" fill="#A3AEB8"/>
<path d="M179.864 252.6V249.504H185.648V267H182.192V252.6H179.864ZM200.727 252.408H192.951V256.512C193.287 256.096 193.767 255.76 194.391 255.504C195.015 255.232 195.679 255.096 196.383 255.096C197.663 255.096 198.711 255.376 199.527 255.936C200.343 256.496 200.935 257.216 201.303 258.096C201.671 258.96 201.855 259.888 201.855 260.88C201.855 262.72 201.327 264.2 200.271 265.32C199.231 266.44 197.743 267 195.807 267C193.983 267 192.527 266.544 191.439 265.632C190.351 264.72 189.735 263.528 189.591 262.056H192.855C192.999 262.696 193.319 263.208 193.815 263.592C194.327 263.976 194.975 264.168 195.759 264.168C196.703 264.168 197.415 263.872 197.895 263.28C198.375 262.688 198.615 261.904 198.615 260.928C198.615 259.936 198.367 259.184 197.871 258.672C197.391 258.144 196.679 257.88 195.735 257.88C195.063 257.88 194.503 258.048 194.055 258.384C193.607 258.72 193.287 259.168 193.095 259.728H189.879V249.456H200.727V252.408Z" fill="#A3AEB8"/>
<path d="M248.864 253.6V250.504H254.648V268H251.192V253.6H248.864ZM267.039 254.872C266.879 254.2 266.599 253.696 266.199 253.36C265.815 253.024 265.255 252.856 264.519 252.856C263.415 252.856 262.599 253.304 262.071 254.2C261.559 255.08 261.295 256.52 261.279 258.52C261.663 257.88 262.223 257.384 262.959 257.032C263.695 256.664 264.495 256.48 265.359 256.48C266.399 256.48 267.319 256.704 268.119 257.152C268.919 257.6 269.543 258.256 269.991 259.12C270.439 259.968 270.663 260.992 270.663 262.192C270.663 263.328 270.431 264.344 269.967 265.24C269.519 266.12 268.855 266.808 267.975 267.304C267.095 267.8 266.047 268.048 264.831 268.048C263.167 268.048 261.855 267.68 260.895 266.944C259.951 266.208 259.287 265.184 258.903 263.872C258.535 262.544 258.351 260.912 258.351 258.976C258.351 256.048 258.855 253.84 259.863 252.352C260.871 250.848 262.463 250.096 264.639 250.096C266.319 250.096 267.623 250.552 268.551 251.464C269.479 252.376 270.015 253.512 270.159 254.872H267.039ZM264.591 259.24C263.743 259.24 263.031 259.488 262.455 259.984C261.879 260.48 261.591 261.2 261.591 262.144C261.591 263.088 261.855 263.832 262.383 264.376C262.927 264.92 263.687 265.192 264.663 265.192C265.527 265.192 266.207 264.928 266.703 264.4C267.215 263.872 267.471 263.16 267.471 262.264C267.471 261.336 267.223 260.6 266.727 260.056C266.247 259.512 265.535 259.24 264.591 259.24Z" fill="#A3AEB8"/>
<path d="M315.864 252.6V249.504H321.648V267H318.192V252.6H315.864ZM336.103 252.048L329.719 267H326.311L332.743 252.432H324.535V249.552H336.103V252.048Z" fill="#A3AEB8"/>
<path d="M391.864 252.6V249.504H397.648V267H394.192V252.6H391.864ZM403.895 257.736C402.295 256.904 401.495 255.616 401.495 253.872C401.495 253.008 401.711 252.224 402.143 251.52C402.591 250.8 403.255 250.232 404.135 249.816C405.031 249.384 406.119 249.168 407.399 249.168C408.679 249.168 409.759 249.384 410.639 249.816C411.535 250.232 412.199 250.8 412.631 251.52C413.079 252.224 413.303 253.008 413.303 253.872C413.303 254.752 413.087 255.528 412.655 256.2C412.223 256.856 411.647 257.368 410.927 257.736C411.807 258.12 412.495 258.68 412.991 259.416C413.487 260.152 413.735 261.024 413.735 262.032C413.735 263.12 413.455 264.072 412.895 264.888C412.351 265.688 411.599 266.304 410.639 266.736C409.679 267.168 408.599 267.384 407.399 267.384C406.199 267.384 405.119 267.168 404.159 266.736C403.215 266.304 402.463 265.688 401.903 264.888C401.359 264.072 401.087 263.12 401.087 262.032C401.087 261.024 401.335 260.152 401.831 259.416C402.327 258.664 403.015 258.104 403.895 257.736ZM410.039 254.352C410.039 253.568 409.799 252.96 409.319 252.528C408.855 252.096 408.215 251.88 407.399 251.88C406.599 251.88 405.959 252.096 405.479 252.528C405.015 252.96 404.783 253.576 404.783 254.376C404.783 255.096 405.023 255.672 405.503 256.104C405.999 256.536 406.631 256.752 407.399 256.752C408.167 256.752 408.799 256.536 409.295 256.104C409.791 255.656 410.039 255.072 410.039 254.352ZM407.399 259.2C406.487 259.2 405.743 259.432 405.167 259.896C404.607 260.36 404.327 261.024 404.327 261.888C404.327 262.688 404.599 263.344 405.143 263.856C405.703 264.352 406.455 264.6 407.399 264.6C408.343 264.6 409.087 264.344 409.631 263.832C410.175 263.32 410.447 262.672 410.447 261.888C410.447 261.04 410.167 260.384 409.607 259.92C409.047 259.44 408.311 259.2 407.399 259.2Z" fill="#A3AEB8"/>
<path d="M458.864 252.6V249.504H464.648V267H461.192V252.6H458.864ZM471.855 262.08C471.983 262.784 472.271 263.328 472.719 263.712C473.183 264.08 473.799 264.264 474.567 264.264C475.559 264.264 476.279 263.856 476.727 263.04C477.175 262.208 477.399 260.816 477.399 258.864C477.031 259.376 476.511 259.776 475.839 260.064C475.183 260.352 474.471 260.496 473.703 260.496C472.679 260.496 471.751 260.288 470.919 259.872C470.103 259.44 469.455 258.808 468.975 257.976C468.495 257.128 468.255 256.104 468.255 254.904C468.255 253.128 468.783 251.72 469.839 250.68C470.895 249.624 472.335 249.096 474.159 249.096C476.431 249.096 478.031 249.824 478.959 251.28C479.903 252.736 480.375 254.928 480.375 257.856C480.375 259.936 480.191 261.64 479.823 262.968C479.471 264.296 478.855 265.304 477.975 265.992C477.111 266.68 475.927 267.024 474.423 267.024C473.239 267.024 472.231 266.8 471.399 266.352C470.567 265.888 469.927 265.288 469.479 264.552C469.047 263.8 468.799 262.976 468.735 262.08H471.855ZM474.399 257.76C475.231 257.76 475.887 257.504 476.367 256.992C476.847 256.48 477.087 255.792 477.087 254.928C477.087 253.984 476.831 253.256 476.319 252.744C475.823 252.216 475.143 251.952 474.279 251.952C473.415 251.952 472.727 252.224 472.215 252.768C471.719 253.296 471.471 254 471.471 254.88C471.471 255.728 471.711 256.424 472.191 256.968C472.687 257.496 473.423 257.76 474.399 257.76Z" fill="#3A9286"/>
<path d="M58.344 195.872C58.184 195.2 57.904 194.696 57.504 194.36C57.12 194.024 56.56 193.856 55.824 193.856C54.72 193.856 53.904 194.304 53.376 195.2C52.864 196.08 52.6 197.52 52.584 199.52C52.968 198.88 53.528 198.384 54.264 198.032C55 197.664 55.8 197.48 56.664 197.48C57.704 197.48 58.624 197.704 59.424 198.152C60.224 198.6 60.848 199.256 61.296 200.12C61.744 200.968 61.968 201.992 61.968 203.192C61.968 204.328 61.736 205.344 61.272 206.24C60.824 207.12 60.16 207.808 59.28 208.304C58.4 208.8 57.352 209.048 56.136 209.048C54.472 209.048 53.16 208.68 52.2 207.944C51.256 207.208 50.592 206.184 50.208 204.872C49.84 203.544 49.656 201.912 49.656 199.976C49.656 197.048 50.16 194.84 51.168 193.352C52.176 191.848 53.768 191.096 55.944 191.096C57.624 191.096 58.928 191.552 59.856 192.464C60.784 193.376 61.32 194.512 61.464 195.872H58.344ZM55.896 200.24C55.048 200.24 54.336 200.488 53.76 200.984C53.184 201.48 52.896 202.2 52.896 203.144C52.896 204.088 53.16 204.832 53.688 205.376C54.232 205.92 54.992 206.192 55.968 206.192C56.832 206.192 57.512 205.928 58.008 205.4C58.52 204.872 58.776 204.16 58.776 203.264C58.776 202.336 58.528 201.6 58.032 201.056C57.552 200.512 56.84 200.24 55.896 200.24Z" fill="#A3AEB8"/>
<path d="M124.408 194.048L118.024 209H114.616L121.048 194.432H112.84V191.552H124.408V194.048Z" fill="#A3AEB8"/>
<path d="M190.2 199.736C188.6 198.904 187.8 197.616 187.8 195.872C187.8 195.008 188.016 194.224 188.448 193.52C188.896 192.8 189.56 192.232 190.44 191.816C191.336 191.384 192.424 191.168 193.704 191.168C194.984 191.168 196.064 191.384 196.944 191.816C197.84 192.232 198.504 192.8 198.936 193.52C199.384 194.224 199.608 195.008 199.608 195.872C199.608 196.752 199.392 197.528 198.96 198.2C198.528 198.856 197.952 199.368 197.232 199.736C198.112 200.12 198.8 200.68 199.296 201.416C199.792 202.152 200.04 203.024 200.04 204.032C200.04 205.12 199.76 206.072 199.2 206.888C198.656 207.688 197.904 208.304 196.944 208.736C195.984 209.168 194.904 209.384 193.704 209.384C192.504 209.384 191.424 209.168 190.464 208.736C189.52 208.304 188.768 207.688 188.208 206.888C187.664 206.072 187.392 205.12 187.392 204.032C187.392 203.024 187.64 202.152 188.136 201.416C188.632 200.664 189.32 200.104 190.2 199.736ZM196.344 196.352C196.344 195.568 196.104 194.96 195.624 194.528C195.16 194.096 194.52 193.88 193.704 193.88C192.904 193.88 192.264 194.096 191.784 194.528C191.32 194.96 191.088 195.576 191.088 196.376C191.088 197.096 191.328 197.672 191.808 198.104C192.304 198.536 192.936 198.752 193.704 198.752C194.472 198.752 195.104 198.536 195.6 198.104C196.096 197.656 196.344 197.072 196.344 196.352ZM193.704 201.2C192.792 201.2 192.048 201.432 191.472 201.896C190.912 202.36 190.632 203.024 190.632 203.888C190.632 204.688 190.904 205.344 191.448 205.856C192.008 206.352 192.76 206.6 193.704 206.6C194.648 206.6 195.392 206.344 195.936 205.832C196.48 205.32 196.752 204.672 196.752 203.888C196.752 203.04 196.472 202.384 195.912 201.92C195.352 201.44 194.616 201.2 193.704 201.2Z" fill="#A3AEB8"/>
<path d="M262.16 205.08C262.288 205.784 262.576 206.328 263.024 206.712C263.488 207.08 264.104 207.264 264.872 207.264C265.864 207.264 266.584 206.856 267.032 206.04C267.48 205.208 267.704 203.816 267.704 201.864C267.336 202.376 266.816 202.776 266.144 203.064C265.488 203.352 264.776 203.496 264.008 203.496C262.984 203.496 262.056 203.288 261.224 202.872C260.408 202.44 259.76 201.808 259.28 200.976C258.8 200.128 258.56 199.104 258.56 197.904C258.56 196.128 259.088 194.72 260.144 193.68C261.2 192.624 262.64 192.096 264.464 192.096C266.736 192.096 268.336 192.824 269.264 194.28C270.208 195.736 270.68 197.928 270.68 200.856C270.68 202.936 270.496 204.64 270.128 205.968C269.776 207.296 269.16 208.304 268.28 208.992C267.416 209.68 266.232 210.024 264.728 210.024C263.544 210.024 262.536 209.8 261.704 209.352C260.872 208.888 260.232 208.288 259.784 207.552C259.352 206.8 259.104 205.976 259.04 205.08H262.16ZM264.704 200.76C265.536 200.76 266.192 200.504 266.672 199.992C267.152 199.48 267.392 198.792 267.392 197.928C267.392 196.984 267.136 196.256 266.624 195.744C266.128 195.216 265.448 194.952 264.584 194.952C263.72 194.952 263.032 195.224 262.52 195.768C262.024 196.296 261.776 197 261.776 197.88C261.776 198.728 262.016 199.424 262.496 199.968C262.992 200.496 263.728 200.76 264.704 200.76Z" fill="#A3AEB8"/>
<path d="M315.864 194.6V191.504H321.648V209H318.192V194.6H315.864ZM324.967 200.024C324.967 197.256 325.463 195.088 326.455 193.52C327.463 191.952 329.127 191.168 331.447 191.168C333.767 191.168 335.423 191.952 336.415 193.52C337.423 195.088 337.927 197.256 337.927 200.024C337.927 202.808 337.423 204.992 336.415 206.576C335.423 208.16 333.767 208.952 331.447 208.952C329.127 208.952 327.463 208.16 326.455 206.576C325.463 204.992 324.967 202.808 324.967 200.024ZM334.615 200.024C334.615 198.84 334.535 197.848 334.375 197.048C334.231 196.232 333.927 195.568 333.463 195.056C333.015 194.544 332.343 194.288 331.447 194.288C330.551 194.288 329.871 194.544 329.407 195.056C328.959 195.568 328.655 196.232 328.495 197.048C328.351 197.848 328.279 198.84 328.279 200.024C328.279 201.24 328.351 202.264 328.495 203.096C328.639 203.912 328.943 204.576 329.407 205.088C329.871 205.584 330.551 205.832 331.447 205.832C332.343 205.832 333.023 205.584 333.487 205.088C333.951 204.576 334.255 203.912 334.399 203.096C334.543 202.264 334.615 201.24 334.615 200.024Z" fill="#A3AEB8"/>
<path d="M395.864 194.6V191.504H401.648V209H398.192V194.6H395.864ZM404.559 194.6V191.504H410.343V209H406.887V194.6H404.559Z" fill="#A3AEB8"/>
<path d="M458.864 194.6V191.504H464.648V209H461.192V194.6H458.864ZM469.023 205.208C470.559 203.928 471.783 202.864 472.695 202.016C473.607 201.152 474.367 200.256 474.975 199.328C475.583 198.4 475.887 197.488 475.887 196.592C475.887 195.776 475.695 195.136 475.311 194.672C474.927 194.208 474.335 193.976 473.535 193.976C472.735 193.976 472.119 194.248 471.687 194.792C471.255 195.32 471.031 196.048 471.015 196.976H467.751C467.815 195.056 468.383 193.6 469.455 192.608C470.543 191.616 471.919 191.12 473.583 191.12C475.407 191.12 476.807 191.608 477.783 192.584C478.759 193.544 479.247 194.816 479.247 196.4C479.247 197.648 478.911 198.84 478.239 199.976C477.567 201.112 476.799 202.104 475.935 202.952C475.071 203.784 473.943 204.792 472.551 205.976H479.631V208.76H467.775V206.264L469.023 205.208Z" fill="#3A9286"/>
<path d="M194.864 136.6V133.504H200.648V151H197.192V136.6H194.864Z" fill="#A3AEB8"/>
<path d="M260.328 147.208C261.864 145.928 263.088 144.864 264 144.016C264.912 143.152 265.672 142.256 266.28 141.328C266.888 140.4 267.192 139.488 267.192 138.592C267.192 137.776 267 137.136 266.616 136.672C266.232 136.208 265.64 135.976 264.84 135.976C264.04 135.976 263.424 136.248 262.992 136.792C262.56 137.32 262.336 138.048 262.32 138.976H259.056C259.12 137.056 259.688 135.6 260.76 134.608C261.848 133.616 263.224 133.12 264.888 133.12C266.712 133.12 268.112 133.608 269.088 134.584C270.064 135.544 270.552 136.816 270.552 138.4C270.552 139.648 270.216 140.84 269.544 141.976C268.872 143.112 268.104 144.104 267.24 144.952C266.376 145.784 265.248 146.792 263.856 147.976H270.936V150.76H259.08V148.264L260.328 147.208Z" fill="#A3AEB8"/>
<path d="M328.32 138.112C328.4 136.512 328.96 135.28 330 134.416C331.056 133.536 332.44 133.096 334.152 133.096C335.32 133.096 336.32 133.304 337.152 133.72C337.984 134.12 338.608 134.672 339.024 135.376C339.456 136.064 339.672 136.848 339.672 137.728C339.672 138.736 339.408 139.592 338.88 140.296C338.368 140.984 337.752 141.448 337.032 141.688V141.784C337.96 142.072 338.68 142.584 339.192 143.32C339.72 144.056 339.984 145 339.984 146.152C339.984 147.112 339.76 147.968 339.312 148.72C338.88 149.472 338.232 150.064 337.368 150.496C336.52 150.912 335.496 151.12 334.296 151.12C332.488 151.12 331.016 150.664 329.88 149.752C328.744 148.84 328.144 147.496 328.08 145.72H331.344C331.376 146.504 331.64 147.136 332.136 147.616C332.648 148.08 333.344 148.312 334.224 148.312C335.04 148.312 335.664 148.088 336.096 147.64C336.544 147.176 336.768 146.584 336.768 145.864C336.768 144.904 336.464 144.216 335.856 143.8C335.248 143.384 334.304 143.176 333.024 143.176H332.328V140.416H333.024C335.296 140.416 336.432 139.656 336.432 138.136C336.432 137.448 336.224 136.912 335.808 136.528C335.408 136.144 334.824 135.952 334.056 135.952C333.304 135.952 332.72 136.16 332.304 136.576C331.904 136.976 331.672 137.488 331.608 138.112H328.32Z" fill="#A3AEB8"/>
<path d="M401.128 147.592V144.952L408.976 133.72H412.888V144.664H415V147.592H412.888V151H409.528V147.592H401.128ZM409.744 137.32L404.824 144.664H409.744V137.32Z" fill="#A3AEB8"/>
<path d="M478.032 136.408H470.256V140.512C470.592 140.096 471.072 139.76 471.696 139.504C472.32 139.232 472.984 139.096 473.688 139.096C474.968 139.096 476.016 139.376 476.832 139.936C477.648 140.496 478.24 141.216 478.608 142.096C478.976 142.96 479.16 143.888 479.16 144.88C479.16 146.72 478.632 148.2 477.576 149.32C476.536 150.44 475.048 151 473.112 151C471.288 151 469.832 150.544 468.744 149.632C467.656 148.72 467.04 147.528 466.896 146.056H470.16C470.304 146.696 470.624 147.208 471.12 147.592C471.632 147.976 472.28 148.168 473.064 148.168C474.008 148.168 474.72 147.872 475.2 147.28C475.68 146.688 475.92 145.904 475.92 144.928C475.92 143.936 475.672 143.184 475.176 142.672C474.696 142.144 473.984 141.88 473.04 141.88C472.368 141.88 471.808 142.048 471.36 142.384C470.912 142.72 470.592 143.168 470.4 143.728H467.184V133.456H478.032V136.408Z" fill="#3A9286"/>
<g filter="url(#filter1_d_15:106)">
<circle cx="483" cy="384" r="106" fill="#3E4851"/>
<circle cx="483" cy="384" r="105.5" stroke="#3A9286"/>
</g>
<circle cx="483.5" cy="384.5" r="95.5" fill="white"/>
<rect x="481" y="322" width="5" height="62" fill="#596773"/>
<rect x="453.479" y="437.893" width="4" height="62" transform="rotate(-150.418 453.479 437.893)" fill="#596773"/>
<line x1="482.767" y1="383.395" x2="537.653" y2="354.557" stroke="#E8EBED"/>
<circle cx="483.5" cy="384.5" r="7.5" fill="#3E4851"/>
<path d="M476.504 302.6V300.794H479.878V311H477.862V302.6H476.504ZM482.43 308.788C483.326 308.041 484.04 307.421 484.572 306.926C485.104 306.422 485.548 305.899 485.902 305.358C486.257 304.817 486.434 304.285 486.434 303.762C486.434 303.286 486.322 302.913 486.098 302.642C485.874 302.371 485.529 302.236 485.062 302.236C484.596 302.236 484.236 302.395 483.984 302.712C483.732 303.02 483.602 303.445 483.592 303.986H481.688C481.726 302.866 482.057 302.017 482.682 301.438C483.317 300.859 484.12 300.57 485.09 300.57C486.154 300.57 486.971 300.855 487.54 301.424C488.11 301.984 488.394 302.726 488.394 303.65C488.394 304.378 488.198 305.073 487.806 305.736C487.414 306.399 486.966 306.977 486.462 307.472C485.958 307.957 485.3 308.545 484.488 309.236H488.618V310.86H481.702V309.404L482.43 308.788Z" fill="#3A9286"/>
<path d="M485.034 461.342C484.941 460.95 484.777 460.656 484.544 460.46C484.32 460.264 483.993 460.166 483.564 460.166C482.92 460.166 482.444 460.427 482.136 460.95C481.837 461.463 481.683 462.303 481.674 463.47C481.898 463.097 482.225 462.807 482.654 462.602C483.083 462.387 483.55 462.28 484.054 462.28C484.661 462.28 485.197 462.411 485.664 462.672C486.131 462.933 486.495 463.316 486.756 463.82C487.017 464.315 487.148 464.912 487.148 465.612C487.148 466.275 487.013 466.867 486.742 467.39C486.481 467.903 486.093 468.305 485.58 468.594C485.067 468.883 484.455 469.028 483.746 469.028C482.775 469.028 482.01 468.813 481.45 468.384C480.899 467.955 480.512 467.357 480.288 466.592C480.073 465.817 479.966 464.865 479.966 463.736C479.966 462.028 480.26 460.74 480.848 459.872C481.436 458.995 482.365 458.556 483.634 458.556C484.614 458.556 485.375 458.822 485.916 459.354C486.457 459.886 486.77 460.549 486.854 461.342H485.034ZM483.606 463.89C483.111 463.89 482.696 464.035 482.36 464.324C482.024 464.613 481.856 465.033 481.856 465.584C481.856 466.135 482.01 466.569 482.318 466.886C482.635 467.203 483.079 467.362 483.648 467.362C484.152 467.362 484.549 467.208 484.838 466.9C485.137 466.592 485.286 466.177 485.286 465.654C485.286 465.113 485.141 464.683 484.852 464.366C484.572 464.049 484.157 463.89 483.606 463.89Z" fill="#3A9286"/>
<path d="M522.978 314.85L522.978 313.044L526.352 313.044L526.352 323.25L524.336 323.25L524.336 314.85L522.978 314.85Z" fill="#B6E2DC"/>
<path d="M442.569 447.207L438.845 455.929H436.857L440.609 447.431H435.821V445.751H442.569V447.207Z" fill="#B6E2DC"/>
<path d="M549.9 351.646C550.796 350.899 551.51 350.278 552.042 349.784C552.574 349.28 553.017 348.757 553.372 348.216C553.726 347.674 553.904 347.142 553.904 346.62C553.904 346.144 553.792 345.77 553.568 345.5C553.344 345.229 552.998 345.094 552.532 345.094C552.065 345.094 551.706 345.252 551.454 345.57C551.202 345.878 551.071 346.302 551.062 346.844H549.158C549.195 345.724 549.526 344.874 550.152 344.296C550.786 343.717 551.589 343.428 552.56 343.428C553.624 343.428 554.44 343.712 555.01 344.282C555.579 344.842 555.864 345.584 555.864 346.508C555.864 347.236 555.668 347.931 555.276 348.594C554.884 349.256 554.436 349.835 553.932 350.33C553.428 350.815 552.77 351.403 551.958 352.094H556.088V353.718H549.172V352.262L549.9 351.646Z" fill="#B6E2DC"/>
<path d="M409.567 419.918C408.634 419.432 408.167 418.681 408.167 417.664C408.167 417.16 408.293 416.702 408.545 416.292C408.806 415.872 409.194 415.54 409.707 415.298C410.23 415.046 410.864 414.92 411.611 414.92C412.358 414.92 412.988 415.046 413.501 415.298C414.024 415.54 414.411 415.872 414.663 416.292C414.924 416.702 415.055 417.16 415.055 417.664C415.055 418.177 414.929 418.63 414.677 419.022C414.425 419.404 414.089 419.703 413.669 419.918C414.182 420.142 414.584 420.468 414.873 420.898C415.162 421.327 415.307 421.836 415.307 422.424C415.307 423.058 415.144 423.614 414.817 424.09C414.5 424.556 414.061 424.916 413.501 425.168C412.941 425.42 412.311 425.546 411.611 425.546C410.911 425.546 410.281 425.42 409.721 425.168C409.17 424.916 408.732 424.556 408.405 424.09C408.088 423.614 407.929 423.058 407.929 422.424C407.929 421.836 408.074 421.327 408.363 420.898C408.652 420.459 409.054 420.132 409.567 419.918ZM413.151 417.944C413.151 417.486 413.011 417.132 412.731 416.88C412.46 416.628 412.087 416.502 411.611 416.502C411.144 416.502 410.771 416.628 410.491 416.88C410.22 417.132 410.085 417.491 410.085 417.958C410.085 418.378 410.225 418.714 410.505 418.966C410.794 419.218 411.163 419.344 411.611 419.344C412.059 419.344 412.428 419.218 412.717 418.966C413.006 418.704 413.151 418.364 413.151 417.944ZM411.611 420.772C411.079 420.772 410.645 420.907 410.309 421.178C409.982 421.448 409.819 421.836 409.819 422.34C409.819 422.806 409.978 423.189 410.295 423.488C410.622 423.777 411.06 423.922 411.611 423.922C412.162 423.922 412.596 423.772 412.913 423.474C413.23 423.175 413.389 422.797 413.389 422.34C413.389 421.845 413.226 421.462 412.899 421.192C412.572 420.912 412.143 420.772 411.611 420.772Z" fill="#B6E2DC"/>
<path d="M549.545 421.387L549.545 419.847L554.123 413.295L556.405 413.295L556.405 419.679L557.637 419.679L557.637 421.387L556.405 421.387L556.405 423.375L554.445 423.375L554.445 421.387L549.545 421.387ZM554.571 415.395L551.701 419.679L554.571 419.679L554.571 415.395Z" fill="#B6E2DC"/>
<path d="M410.469 341.147V339.341H413.843V349.547H411.827V341.147H410.469ZM415.779 344.311C415.779 342.696 416.069 341.431 416.647 340.517C417.235 339.602 418.206 339.145 419.559 339.145C420.913 339.145 421.879 339.602 422.457 340.517C423.045 341.431 423.339 342.696 423.339 344.311C423.339 345.935 423.045 347.209 422.457 348.133C421.879 349.057 420.913 349.519 419.559 349.519C418.206 349.519 417.235 349.057 416.647 348.133C416.069 347.209 415.779 345.935 415.779 344.311ZM421.407 344.311C421.407 343.62 421.361 343.041 421.267 342.575C421.183 342.099 421.006 341.711 420.735 341.413C420.474 341.114 420.082 340.965 419.559 340.965C419.037 340.965 418.64 341.114 418.369 341.413C418.108 341.711 417.931 342.099 417.837 342.575C417.753 343.041 417.711 343.62 417.711 344.311C417.711 345.02 417.753 345.617 417.837 346.103C417.921 346.579 418.099 346.966 418.369 347.265C418.64 347.554 419.037 347.699 419.559 347.699C420.082 347.699 420.479 347.554 420.749 347.265C421.02 346.966 421.197 346.579 421.281 346.103C421.365 345.617 421.407 345.02 421.407 344.311Z" fill="#B6E2DC"/>
<path d="M529.911 446.215H525.375V448.609C525.571 448.366 525.851 448.17 526.215 448.021C526.579 447.862 526.966 447.783 527.377 447.783C528.124 447.783 528.735 447.946 529.211 448.273C529.687 448.599 530.032 449.019 530.247 449.533C530.462 450.037 530.569 450.578 530.569 451.157C530.569 452.23 530.261 453.093 529.645 453.747C529.038 454.4 528.17 454.727 527.041 454.727C525.977 454.727 525.128 454.461 524.493 453.929C523.858 453.397 523.499 452.701 523.415 451.843H525.319C525.403 452.216 525.59 452.515 525.879 452.739C526.178 452.963 526.556 453.075 527.013 453.075C527.564 453.075 527.979 452.902 528.259 452.557C528.539 452.211 528.679 451.754 528.679 451.185C528.679 450.606 528.534 450.167 528.245 449.869C527.965 449.561 527.55 449.407 526.999 449.407C526.607 449.407 526.28 449.505 526.019 449.701C525.758 449.897 525.571 450.158 525.459 450.485H523.583V444.493H529.911V446.215Z" fill="#B6E2DC"/>
<path d="M440.207 314.156V312.35H443.581V322.556H441.565V314.156H440.207ZM445.28 314.156V312.35H448.654V322.556H446.638V314.156H445.28Z" fill="#B6E2DC"/>
<path d="M561.77 379.482C561.817 378.549 562.143 377.83 562.75 377.326C563.366 376.813 564.173 376.556 565.172 376.556C565.853 376.556 566.437 376.677 566.922 376.92C567.407 377.153 567.771 377.475 568.014 377.886C568.266 378.287 568.392 378.745 568.392 379.258C568.392 379.846 568.238 380.345 567.93 380.756C567.631 381.157 567.272 381.428 566.852 381.568V381.624C567.393 381.792 567.813 382.091 568.112 382.52C568.42 382.949 568.574 383.5 568.574 384.172C568.574 384.732 568.443 385.231 568.182 385.67C567.93 386.109 567.552 386.454 567.048 386.706C566.553 386.949 565.956 387.07 565.256 387.07C564.201 387.07 563.343 386.804 562.68 386.272C562.017 385.74 561.667 384.956 561.63 383.92H563.534C563.553 384.377 563.707 384.746 563.996 385.026C564.295 385.297 564.701 385.432 565.214 385.432C565.69 385.432 566.054 385.301 566.306 385.04C566.567 384.769 566.698 384.424 566.698 384.004C566.698 383.444 566.521 383.043 566.166 382.8C565.811 382.557 565.261 382.436 564.514 382.436H564.108V380.826H564.514C565.839 380.826 566.502 380.383 566.502 379.496C566.502 379.095 566.381 378.782 566.138 378.558C565.905 378.334 565.564 378.222 565.116 378.222C564.677 378.222 564.337 378.343 564.094 378.586C563.861 378.819 563.725 379.118 563.688 379.482H561.77Z" fill="#3A9286"/>
<path d="M399.01 384.13C399.085 384.541 399.253 384.858 399.514 385.082C399.785 385.297 400.144 385.404 400.592 385.404C401.171 385.404 401.591 385.166 401.852 384.69C402.113 384.205 402.244 383.393 402.244 382.254C402.029 382.553 401.726 382.786 401.334 382.954C400.951 383.122 400.536 383.206 400.088 383.206C399.491 383.206 398.949 383.085 398.464 382.842C397.988 382.59 397.61 382.221 397.33 381.736C397.05 381.241 396.91 380.644 396.91 379.944C396.91 378.908 397.218 378.087 397.834 377.48C398.45 376.864 399.29 376.556 400.354 376.556C401.679 376.556 402.613 376.981 403.154 377.83C403.705 378.679 403.98 379.958 403.98 381.666C403.98 382.879 403.873 383.873 403.658 384.648C403.453 385.423 403.093 386.011 402.58 386.412C402.076 386.813 401.385 387.014 400.508 387.014C399.817 387.014 399.229 386.883 398.744 386.622C398.259 386.351 397.885 386.001 397.624 385.572C397.372 385.133 397.227 384.653 397.19 384.13H399.01ZM400.494 381.61C400.979 381.61 401.362 381.461 401.642 381.162C401.922 380.863 402.062 380.462 402.062 379.958C402.062 379.407 401.913 378.983 401.614 378.684C401.325 378.376 400.928 378.222 400.424 378.222C399.92 378.222 399.519 378.381 399.22 378.698C398.931 379.006 398.786 379.417 398.786 379.93C398.786 380.425 398.926 380.831 399.206 381.148C399.495 381.456 399.925 381.61 400.494 381.61Z" fill="#3A9286"/>
<defs>
<filter id="filter0_d_15:106" x="0" y="0" width="525" height="456" filterUnits="userSpaceOnUse" color-interpolation-filters="sRGB">
<feFlood flood-opacity="0" result="BackgroundImageFix"/>
<feColorMatrix in="SourceAlpha" type="matrix" values="0 0 0 0 0 0 0 0 0 0 0 0 0 0 0 0 0 0 127 0" result="hardAlpha"/>
<feOffset/>
<feGaussianBlur stdDeviation="10"/>
<feComposite in2="hardAlpha" operator="out"/>
<feColorMatrix type="matrix" values="0 0 0 0 0 0 0 0 0 0 0 0 0 0 0 0 0 0 0.1 0"/>
<feBlend mode="normal" in2="BackgroundImageFix" result="effect1_dropShadow_15:106"/>
<feBlend mode="normal" in="SourceGraphic" in2="effect1_dropShadow_15:106" result="shape"/>
</filter>
<filter id="filter1_d_15:106" x="357" y="258" width="252" height="252" filterUnits="userSpaceOnUse" color-interpolation-filters="sRGB">
<feFlood flood-opacity="0" result="BackgroundImageFix"/>
<feColorMatrix in="SourceAlpha" type="matrix" values="0 0 0 0 0 0 0 0 0 0 0 0 0 0 0 0 0 0 127 0" result="hardAlpha"/>
<feOffset/>
<feGaussianBlur stdDeviation="10"/>
<feComposite in2="hardAlpha" operator="out"/>
<feColorMatrix type="matrix" values="0 0 0 0 0 0 0 0 0 0 0 0 0 0 0 0 0 0 0.1 0"/>
<feBlend mode="normal" in2="BackgroundImageFix" result="effect1_dropShadow_15:106"/>
<feBlend mode="normal" in="SourceGraphic" in2="effect1_dropShadow_15:106" result="shape"/>
</filter>
</defs>
</svg>
