<svg width="570" height="470" viewBox="0 0 570 470" fill="none" xmlns="http://www.w3.org/2000/svg">
<ellipse cx="286" cy="415" rx="260" ry="23" fill="#596773" fill-opacity="0.1"/>
<circle cx="349" cy="73" r="19" fill="white"/>
<rect x="88" y="54" width="262" height="19" fill="white"/>
<circle cx="88" cy="73" r="19" fill="#596773"/>
<rect x="69" y="73" width="52" height="28" fill="#596773"/>
<rect x="107" y="73" width="261" height="342" fill="white"/>
<path d="M184.2 104.14C183.227 104.14 182.347 103.973 181.56 103.64C180.787 103.307 180.173 102.827 179.72 102.2C179.267 101.573 179.033 100.833 179.02 99.98H182.02C182.06 100.553 182.26 101.007 182.62 101.34C182.993 101.673 183.5 101.84 184.14 101.84C184.793 101.84 185.307 101.687 185.68 101.38C186.053 101.06 186.24 100.647 186.24 100.14C186.24 99.7267 186.113 99.3867 185.86 99.12C185.607 98.8533 185.287 98.6467 184.9 98.5C184.527 98.34 184.007 98.1667 183.34 97.98C182.433 97.7133 181.693 97.4533 181.12 97.2C180.56 96.9333 180.073 96.54 179.66 96.02C179.26 95.4867 179.06 94.78 179.06 93.9C179.06 93.0733 179.267 92.3533 179.68 91.74C180.093 91.1267 180.673 90.66 181.42 90.34C182.167 90.0067 183.02 89.84 183.98 89.84C185.42 89.84 186.587 90.1933 187.48 90.9C188.387 91.5933 188.887 92.5667 188.98 93.82H185.9C185.873 93.34 185.667 92.9467 185.28 92.64C184.907 92.32 184.407 92.16 183.78 92.16C183.233 92.16 182.793 92.3 182.46 92.58C182.14 92.86 181.98 93.2667 181.98 93.8C181.98 94.1733 182.1 94.4867 182.34 94.74C182.593 94.98 182.9 95.18 183.26 95.34C183.633 95.4867 184.153 95.66 184.82 95.86C185.727 96.1267 186.467 96.3933 187.04 96.66C187.613 96.9267 188.107 97.3267 188.52 97.86C188.933 98.3933 189.14 99.0933 189.14 99.96C189.14 100.707 188.947 101.4 188.56 102.04C188.173 102.68 187.607 103.193 186.86 103.58C186.113 103.953 185.227 104.14 184.2 104.14ZM202.028 92.92V104H199.208V102.6C198.848 103.08 198.374 103.46 197.788 103.74C197.214 104.007 196.588 104.14 195.908 104.14C195.041 104.14 194.274 103.96 193.608 103.6C192.941 103.227 192.414 102.687 192.028 101.98C191.654 101.26 191.468 100.407 191.468 99.42V92.92H194.268V99.02C194.268 99.9 194.488 100.58 194.928 101.06C195.368 101.527 195.968 101.76 196.728 101.76C197.501 101.76 198.108 101.527 198.548 101.06C198.988 100.58 199.208 99.9 199.208 99.02V92.92H202.028ZM207.59 94.54C207.95 94.0067 208.443 93.5733 209.07 93.24C209.71 92.9067 210.437 92.74 211.25 92.74C212.197 92.74 213.05 92.9733 213.81 93.44C214.583 93.9067 215.19 94.5733 215.63 95.44C216.083 96.2933 216.31 97.2867 216.31 98.42C216.31 99.5533 216.083 100.56 215.63 101.44C215.19 102.307 214.583 102.98 213.81 103.46C213.05 103.94 212.197 104.18 211.25 104.18C210.423 104.18 209.697 104.02 209.07 103.7C208.457 103.367 207.963 102.94 207.59 102.42V104H204.79V89.2H207.59V94.54ZM213.45 98.42C213.45 97.7533 213.31 97.18 213.03 96.7C212.763 96.2067 212.403 95.8333 211.95 95.58C211.51 95.3267 211.03 95.2 210.51 95.2C210.003 95.2 209.523 95.3333 209.07 95.6C208.63 95.8533 208.27 96.2267 207.99 96.72C207.723 97.2133 207.59 97.7933 207.59 98.46C207.59 99.1267 207.723 99.7067 207.99 100.2C208.27 100.693 208.63 101.073 209.07 101.34C209.523 101.593 210.003 101.72 210.51 101.72C211.03 101.72 211.51 101.587 211.95 101.32C212.403 101.053 212.763 100.673 213.03 100.18C213.31 99.6867 213.45 99.1 213.45 98.42ZM232.105 92.76C233.465 92.76 234.558 93.18 235.385 94.02C236.225 94.8467 236.645 96.0067 236.645 97.5V104H233.845V97.88C233.845 97.0133 233.625 96.3533 233.185 95.9C232.745 95.4333 232.145 95.2 231.385 95.2C230.625 95.2 230.018 95.4333 229.565 95.9C229.125 96.3533 228.905 97.0133 228.905 97.88V104H226.105V97.88C226.105 97.0133 225.885 96.3533 225.445 95.9C225.005 95.4333 224.405 95.2 223.645 95.2C222.872 95.2 222.258 95.4333 221.805 95.9C221.365 96.3533 221.145 97.0133 221.145 97.88V104H218.345V92.92H221.145V94.26C221.505 93.7933 221.965 93.4267 222.525 93.16C223.098 92.8933 223.725 92.76 224.405 92.76C225.272 92.76 226.045 92.9467 226.725 93.32C227.405 93.68 227.932 94.2 228.305 94.88C228.665 94.24 229.185 93.7267 229.865 93.34C230.558 92.9533 231.305 92.76 232.105 92.76ZM240.722 91.6C240.229 91.6 239.815 91.4467 239.482 91.14C239.162 90.82 239.002 90.4267 239.002 89.96C239.002 89.4933 239.162 89.1067 239.482 88.8C239.815 88.48 240.229 88.32 240.722 88.32C241.215 88.32 241.622 88.48 241.942 88.8C242.275 89.1067 242.442 89.4933 242.442 89.96C242.442 90.4267 242.275 90.82 241.942 91.14C241.622 91.4467 241.215 91.6 240.722 91.6ZM242.102 92.92V104H239.302V92.92H242.102ZM249.108 104.18C248.202 104.18 247.388 104.02 246.668 103.7C245.948 103.367 245.375 102.92 244.948 102.36C244.535 101.8 244.308 101.18 244.268 100.5H247.088C247.142 100.927 247.348 101.28 247.708 101.56C248.082 101.84 248.542 101.98 249.088 101.98C249.622 101.98 250.035 101.873 250.328 101.66C250.635 101.447 250.788 101.173 250.788 100.84C250.788 100.48 250.602 100.213 250.228 100.04C249.868 99.8533 249.288 99.6533 248.488 99.44C247.662 99.24 246.982 99.0333 246.448 98.82C245.928 98.6067 245.475 98.28 245.088 97.84C244.715 97.4 244.528 96.8067 244.528 96.06C244.528 95.4467 244.702 94.8867 245.048 94.38C245.408 93.8733 245.915 93.4733 246.568 93.18C247.235 92.8867 248.015 92.74 248.908 92.74C250.228 92.74 251.282 93.0733 252.068 93.74C252.855 94.3933 253.288 95.28 253.368 96.4H250.688C250.648 95.96 250.462 95.6133 250.128 95.36C249.808 95.0933 249.375 94.96 248.828 94.96C248.322 94.96 247.928 95.0533 247.648 95.24C247.382 95.4267 247.248 95.6867 247.248 96.02C247.248 96.3933 247.435 96.68 247.808 96.88C248.182 97.0667 248.762 97.26 249.548 97.46C250.348 97.66 251.008 97.8667 251.528 98.08C252.048 98.2933 252.495 98.6267 252.868 99.08C253.255 99.52 253.455 100.107 253.468 100.84C253.468 101.48 253.288 102.053 252.928 102.56C252.582 103.067 252.075 103.467 251.408 103.76C250.755 104.04 249.988 104.18 249.108 104.18ZM260.007 104.18C259.1 104.18 258.287 104.02 257.567 103.7C256.847 103.367 256.273 102.92 255.847 102.36C255.433 101.8 255.207 101.18 255.167 100.5H257.987C258.04 100.927 258.247 101.28 258.607 101.56C258.98 101.84 259.44 101.98 259.987 101.98C260.52 101.98 260.933 101.873 261.227 101.66C261.533 101.447 261.687 101.173 261.687 100.84C261.687 100.48 261.5 100.213 261.127 100.04C260.767 99.8533 260.187 99.6533 259.387 99.44C258.56 99.24 257.88 99.0333 257.347 98.82C256.827 98.6067 256.373 98.28 255.987 97.84C255.613 97.4 255.427 96.8067 255.427 96.06C255.427 95.4467 255.6 94.8867 255.947 94.38C256.307 93.8733 256.813 93.4733 257.467 93.18C258.133 92.8867 258.913 92.74 259.807 92.74C261.127 92.74 262.18 93.0733 262.967 93.74C263.753 94.3933 264.187 95.28 264.267 96.4H261.587C261.547 95.96 261.36 95.6133 261.027 95.36C260.707 95.0933 260.273 94.96 259.727 94.96C259.22 94.96 258.827 95.0533 258.547 95.24C258.28 95.4267 258.147 95.6867 258.147 96.02C258.147 96.3933 258.333 96.68 258.707 96.88C259.08 97.0667 259.66 97.26 260.447 97.46C261.247 97.66 261.907 97.8667 262.427 98.08C262.947 98.2933 263.393 98.6267 263.767 99.08C264.153 99.52 264.353 100.107 264.367 100.84C264.367 101.48 264.187 102.053 263.827 102.56C263.48 103.067 262.973 103.467 262.307 103.76C261.653 104.04 260.887 104.18 260.007 104.18ZM268.085 91.6C267.592 91.6 267.178 91.4467 266.845 91.14C266.525 90.82 266.365 90.4267 266.365 89.96C266.365 89.4933 266.525 89.1067 266.845 88.8C267.178 88.48 267.592 88.32 268.085 88.32C268.578 88.32 268.985 88.48 269.305 88.8C269.638 89.1067 269.805 89.4933 269.805 89.96C269.805 90.4267 269.638 90.82 269.305 91.14C268.985 91.4467 268.578 91.6 268.085 91.6ZM269.465 92.92V104H266.665V92.92H269.465ZM277.152 104.18C276.085 104.18 275.125 103.947 274.272 103.48C273.418 103 272.745 102.327 272.252 101.46C271.772 100.593 271.532 99.5933 271.532 98.46C271.532 97.3267 271.778 96.3267 272.272 95.46C272.778 94.5933 273.465 93.9267 274.332 93.46C275.198 92.98 276.165 92.74 277.232 92.74C278.298 92.74 279.265 92.98 280.132 93.46C280.998 93.9267 281.678 94.5933 282.172 95.46C282.678 96.3267 282.932 97.3267 282.932 98.46C282.932 99.5933 282.672 100.593 282.152 101.46C281.645 102.327 280.952 103 280.072 103.48C279.205 103.947 278.232 104.18 277.152 104.18ZM277.152 101.74C277.658 101.74 278.132 101.62 278.572 101.38C279.025 101.127 279.385 100.753 279.652 100.26C279.918 99.7667 280.052 99.1667 280.052 98.46C280.052 97.4067 279.772 96.6 279.212 96.04C278.665 95.4667 277.992 95.18 277.192 95.18C276.392 95.18 275.718 95.4667 275.172 96.04C274.638 96.6 274.372 97.4067 274.372 98.46C274.372 99.5133 274.632 100.327 275.152 100.9C275.685 101.46 276.352 101.74 277.152 101.74ZM291.125 92.76C292.445 92.76 293.512 93.18 294.325 94.02C295.139 94.8467 295.545 96.0067 295.545 97.5V104H292.745V97.88C292.745 97 292.525 96.3267 292.085 95.86C291.645 95.38 291.045 95.14 290.285 95.14C289.512 95.14 288.899 95.38 288.445 95.86C288.005 96.3267 287.785 97 287.785 97.88V104H284.985V92.92H287.785V94.3C288.159 93.82 288.632 93.4467 289.205 93.18C289.792 92.9 290.432 92.76 291.125 92.76Z" fill="#596773"/>
<rect x="107" y="398" width="261" height="17" fill="#596773"/>
<circle cx="143" cy="135" r="6" fill="#E2F3F1"/>
<rect x="167" y="129" width="177" height="12" fill="#8AD0C7"/>
<circle cx="155" cy="348" r="18" fill="#E2F3F1"/>
<rect x="200" y="342" width="144" height="12" fill="#8AD0C7"/>
<circle cx="143" cy="168" r="6" fill="#E2F3F1"/>
<rect x="167" y="162" width="177" height="12" fill="#8AD0C7"/>
<circle cx="143" cy="201" r="6" fill="#E2F3F1"/>
<rect x="167" y="195" width="177" height="12" fill="#8AD0C7"/>
<circle cx="143" cy="234" r="6" fill="#E2F3F1"/>
<rect x="167" y="228" width="177" height="12" fill="#8AD0C7"/>
<circle cx="143" cy="267" r="6" fill="#E2F3F1"/>
<rect x="167" y="261" width="177" height="12" fill="#8AD0C7"/>
<circle cx="143" cy="300" r="6" fill="#E2F3F1"/>
<rect x="167" y="294" width="177" height="12" fill="#8AD0C7"/>
<path d="M155 350.4L146.6 342L143.8 344.8L155 356L179 332L176.2 329.2L155 350.4Z" fill="#596773"/>
<rect x="411" y="138" width="37" height="4" fill="white"/>
<path d="M411 138C425.664 141.527 433.776 141.702 448 138V392H411V138Z" fill="#A3AEB8"/>
<path d="M429.5 90L448.12 138H410.88L429.5 90Z" fill="white"/>
<path d="M429.5 90L435.129 104.25C430.974 102.718 428.504 102.75 423.871 104.25L429.5 90Z" fill="#596773"/>
<rect x="411" y="382" width="37" height="10" fill="#3E4851"/>
<rect x="411" y="392" width="37" height="16" fill="#3A9286"/>
<ellipse cx="429.5" cy="407.5" rx="18.5" ry="7.5" fill="#3A9286"/>
<line x1="416.35" y1="377.003" x2="416.35" y2="141.999" stroke="#596773" stroke-opacity="0.3" stroke-width="0.3"/>
<line x1="441.85" y1="377.004" x2="441.85" y2="142" stroke="#596773" stroke-opacity="0.3" stroke-width="0.3"/>
<line x1="428.85" y1="377.002" x2="428.85" y2="145" stroke="#596773" stroke-opacity="0.3" stroke-width="0.3"/>
<line x1="428.85" y1="141" x2="428.85" y2="104" stroke="#596773" stroke-opacity="0.3" stroke-width="0.3"/>
<line x1="441.855" y1="139.038" x2="432.855" y2="105.038" stroke="#596773" stroke-opacity="0.3" stroke-width="0.3"/>
<line x1="415.856" y1="138.958" x2="425.856" y2="104.958" stroke="#596773" stroke-opacity="0.3" stroke-width="0.3"/>
</svg>
