<svg width="570" height="470" viewBox="0 0 570 470" fill="none" xmlns="http://www.w3.org/2000/svg">
<ellipse cx="285" cy="403.5" rx="285" ry="38.5" fill="#A3AEB8" fill-opacity="0.2"/>
<g filter="url(#filter0_d_18:388)">
<rect x="166" y="42" width="365" height="278" rx="4" fill="white"/>
<rect x="166.5" y="42.5" width="364" height="277" rx="3.5" stroke="#3A9286"/>
</g>
<line x1="201" y1="107.75" x2="504" y2="107.75" stroke="#E2F3F1" stroke-width="0.5"/>
<line x1="201" y1="89.75" x2="504" y2="89.75" stroke="#E2F3F1" stroke-width="0.5"/>
<line x1="201" y1="143.75" x2="504" y2="143.75" stroke="#E2F3F1" stroke-width="0.5"/>
<line x1="201" y1="125.75" x2="504" y2="125.75" stroke="#E2F3F1" stroke-width="0.5"/>
<line x1="201" y1="179.75" x2="504" y2="179.75" stroke="#E2F3F1" stroke-width="0.5"/>
<line x1="201" y1="161.75" x2="504" y2="161.75" stroke="#E2F3F1" stroke-width="0.5"/>
<line x1="201" y1="215.75" x2="504" y2="215.75" stroke="#E2F3F1" stroke-width="0.5"/>
<line x1="201" y1="197.75" x2="504" y2="197.75" stroke="#E2F3F1" stroke-width="0.5"/>
<line x1="201" y1="251.75" x2="504" y2="251.75" stroke="#E2F3F1" stroke-width="0.5"/>
<line x1="201" y1="233.75" x2="504" y2="233.75" stroke="#E2F3F1" stroke-width="0.5"/>
<line x1="201" y1="287.75" x2="504" y2="287.75" stroke="#E2F3F1" stroke-width="0.5"/>
<line x1="201" y1="269.75" x2="504" y2="269.75" stroke="#E2F3F1" stroke-width="0.5"/>
<rect x="226" y="222" width="42" height="80" fill="#E2F3F1"/>
<rect x="277" y="198" width="42" height="80" fill="#E2F3F1"/>
<rect x="329" y="207" width="42" height="80" fill="#E2F3F1"/>
<rect x="381" y="170" width="42" height="129" fill="#E2F3F1"/>
<rect x="437" y="130" width="42" height="167" fill="#E2F3F1"/>
<line x1="193.5" y1="69" x2="193.5" y2="262" stroke="#3A9286" stroke-width="3"/>
<line x1="193" y1="298.5" x2="504.002" y2="298.5" stroke="#3A9286" stroke-width="3"/>
<path d="M220.5 259L281.5 211M220.5 259L281.5 211" stroke="#3A9286" stroke-width="6"/>
<path d="M309 239L427 121M309 239L427 121" stroke="#3A9286" stroke-width="6"/>
<path d="M278 211L313 239M278 211L313 239" stroke="#3A9286" stroke-width="6"/>
<ellipse cx="375.5" cy="387" rx="26.5" ry="8" fill="#A3AEB8"/>
<rect x="349" y="382" width="53" height="6" fill="#A3AEB8"/>
<path d="M402 382C402 386.418 390.136 390 375.5 390C360.864 390 349 386.418 349 382C349 377.582 360.864 374 375.5 374C390.136 374 402 377.582 402 382Z" fill="#E8EBED"/>
<ellipse cx="379.5" cy="380" rx="26.5" ry="8" fill="#A3AEB8"/>
<rect x="353" y="375" width="53" height="6" fill="#A3AEB8"/>
<path d="M406 375C406 379.418 394.136 383 379.5 383C364.864 383 353 379.418 353 375C353 370.582 364.864 367 379.5 367C394.136 367 406 370.582 406 375Z" fill="#E8EBED"/>
<ellipse cx="375.5" cy="374" rx="26.5" ry="8" fill="#A3AEB8"/>
<rect x="349" y="369" width="53" height="6" fill="#A3AEB8"/>
<path d="M402 369C402 373.418 390.136 377 375.5 377C360.864 377 349 373.418 349 369C349 364.582 360.864 361 375.5 361C390.136 361 402 364.582 402 369Z" fill="#E8EBED"/>
<ellipse cx="376.5" cy="369" rx="26.5" ry="8" fill="#A3AEB8"/>
<rect x="350" y="364" width="53" height="6" fill="#A3AEB8"/>
<path d="M403 364C403 368.418 391.136 372 376.5 372C361.864 372 350 368.418 350 364C350 359.582 361.864 356 376.5 356C391.136 356 403 359.582 403 364Z" fill="#E8EBED"/>
<ellipse cx="379.5" cy="362" rx="26.5" ry="8" fill="#A3AEB8"/>
<rect x="353" y="357" width="53" height="6" fill="#A3AEB8"/>
<path d="M406 357C406 361.418 394.136 365 379.5 365C364.864 365 353 361.418 353 357C353 352.582 364.864 349 379.5 349C394.136 349 406 352.582 406 357Z" fill="#E8EBED"/>
<ellipse cx="379.5" cy="356" rx="26.5" ry="8" fill="#A3AEB8"/>
<rect x="353" y="351" width="53" height="6" fill="#A3AEB8"/>
<path d="M406 351C406 355.418 394.136 359 379.5 359C364.864 359 353 355.418 353 351C353 346.582 364.864 343 379.5 343C394.136 343 406 346.582 406 351Z" fill="#E8EBED"/>
<ellipse cx="375.5" cy="351" rx="26.5" ry="8" fill="#A3AEB8"/>
<rect x="349" y="346" width="53" height="6" fill="#A3AEB8"/>
<path d="M402 346C402 350.418 390.136 354 375.5 354C360.864 354 349 350.418 349 346C349 341.582 360.864 338 375.5 338C390.136 338 402 341.582 402 346Z" fill="#E8EBED"/>
<ellipse cx="375.5" cy="345" rx="26.5" ry="8" fill="#A3AEB8"/>
<rect x="349" y="340" width="53" height="6" fill="#A3AEB8"/>
<path d="M402 340C402 344.418 390.136 348 375.5 348C360.864 348 349 344.418 349 340C349 335.582 360.864 332 375.5 332C390.136 332 402 335.582 402 340Z" fill="#E8EBED"/>
<ellipse cx="377.5" cy="338" rx="26.5" ry="8" fill="#A3AEB8"/>
<rect x="351" y="333" width="53" height="6" fill="#A3AEB8"/>
<path d="M404 333C404 337.418 392.136 341 377.5 341C362.864 341 351 337.418 351 333C351 328.582 362.864 325 377.5 325C392.136 325 404 328.582 404 333Z" fill="#E8EBED"/>
<ellipse cx="377.5" cy="332" rx="26.5" ry="8" fill="#A3AEB8"/>
<rect x="351" y="327" width="53" height="6" fill="#A3AEB8"/>
<path d="M404 327C404 331.418 392.136 335 377.5 335C362.864 335 351 331.418 351 327C351 322.582 362.864 319 377.5 319C392.136 319 404 322.582 404 327Z" fill="#E8EBED"/>
<ellipse cx="377.5" cy="325" rx="26.5" ry="8" fill="#A3AEB8"/>
<rect x="351" y="320" width="53" height="6" fill="#A3AEB8"/>
<path d="M404 320C404 324.418 392.136 328 377.5 328C362.864 328 351 324.418 351 320C351 315.582 362.864 312 377.5 312C392.136 312 404 315.582 404 320Z" fill="#E8EBED"/>
<ellipse cx="377.5" cy="319" rx="26.5" ry="8" fill="#A3AEB8"/>
<rect x="351" y="314" width="53" height="6" fill="#A3AEB8"/>
<path d="M404 314C404 318.418 392.136 322 377.5 322C362.864 322 351 318.418 351 314C351 309.582 362.864 306 377.5 306C392.136 306 404 309.582 404 314Z" fill="#E8EBED"/>
<ellipse cx="380.5" cy="312" rx="26.5" ry="8" fill="#A3AEB8"/>
<rect x="354" y="307" width="53" height="6" fill="#A3AEB8"/>
<path d="M407 307C407 311.418 395.136 315 380.5 315C365.864 315 354 311.418 354 307C354 302.582 365.864 299 380.5 299C395.136 299 407 302.582 407 307Z" fill="#E8EBED"/>
<ellipse cx="381.5" cy="305" rx="26.5" ry="8" fill="#A3AEB8"/>
<rect x="355" y="300" width="53" height="6" fill="#A3AEB8"/>
<path d="M408 300C408 304.418 396.136 308 381.5 308C366.864 308 355 304.418 355 300C355 295.582 366.864 292 381.5 292C396.136 292 408 295.582 408 300Z" fill="#E8EBED"/>
<ellipse cx="373.5" cy="302" rx="26.5" ry="8" fill="#A3AEB8"/>
<rect x="347" y="297" width="53" height="6" fill="#A3AEB8"/>
<path d="M400 297C400 301.418 388.136 305 373.5 305C358.864 305 347 301.418 347 297C347 292.582 358.864 289 373.5 289C388.136 289 400 292.582 400 297Z" fill="#E8EBED"/>
<ellipse cx="374.5" cy="295" rx="26.5" ry="8" fill="#A3AEB8"/>
<rect x="348" y="290" width="53" height="6" fill="#A3AEB8"/>
<path d="M401 290C401 294.418 389.136 298 374.5 298C359.864 298 348 294.418 348 290C348 285.582 359.864 282 374.5 282C389.136 282 401 285.582 401 290Z" fill="#E8EBED"/>
<ellipse cx="386.5" cy="290" rx="26.5" ry="8" fill="#A3AEB8"/>
<rect x="360" y="285" width="53" height="6" fill="#A3AEB8"/>
<path d="M413 285C413 289.418 401.136 293 386.5 293C371.864 293 360 289.418 360 285C360 280.582 371.864 277 386.5 277C401.136 277 413 280.582 413 285Z" fill="#E8EBED"/>
<ellipse cx="387.5" cy="283" rx="26.5" ry="8" fill="#A3AEB8"/>
<rect x="361" y="278" width="53" height="6" fill="#A3AEB8"/>
<path d="M414 278C414 282.418 402.136 286 387.5 286C372.864 286 361 282.418 361 278C361 273.582 372.864 270 387.5 270C402.136 270 414 273.582 414 278Z" fill="#E8EBED"/>
<ellipse cx="377.5" cy="277" rx="26.5" ry="8" fill="#A3AEB8"/>
<rect x="351" y="272" width="53" height="6" fill="#A3AEB8"/>
<path d="M404 272C404 276.418 392.136 280 377.5 280C362.864 280 351 276.418 351 272C351 267.582 362.864 264 377.5 264C392.136 264 404 267.582 404 272Z" fill="#E8EBED"/>
<ellipse cx="378.5" cy="270" rx="26.5" ry="8" fill="#A3AEB8"/>
<rect x="352" y="265" width="53" height="6" fill="#A3AEB8"/>
<path d="M405 265C405 269.418 393.136 273 378.5 273C363.864 273 352 269.418 352 265C352 260.582 363.864 257 378.5 257C393.136 257 405 260.582 405 265Z" fill="#E8EBED"/>
<ellipse rx="26.5" ry="8" transform="matrix(-1 0 0 1 391.5 406)" fill="#A3AEB8"/>
<rect width="53" height="6" transform="matrix(-1 0 0 1 418 401)" fill="#A3AEB8"/>
<path d="M365 401C365 405.418 376.864 409 391.5 409C406.136 409 418 405.418 418 401C418 396.582 406.136 393 391.5 393C376.864 393 365 396.582 365 401Z" fill="#E8EBED"/>
<ellipse rx="26.5" ry="8" transform="matrix(-1 0 0 1 387.5 399)" fill="#A3AEB8"/>
<rect width="53" height="6" transform="matrix(-1 0 0 1 414 394)" fill="#A3AEB8"/>
<path d="M361 394C361 398.418 372.864 402 387.5 402C402.136 402 414 398.418 414 394C414 389.582 402.136 386 387.5 386C372.864 386 361 389.582 361 394Z" fill="#E8EBED"/>
<ellipse rx="26.5" ry="8" transform="matrix(-1 0 0 1 391.5 393)" fill="#A3AEB8"/>
<rect width="53" height="6" transform="matrix(-1 0 0 1 418 388)" fill="#A3AEB8"/>
<path d="M365 388C365 392.418 376.864 396 391.5 396C406.136 396 418 392.418 418 388C418 383.582 406.136 380 391.5 380C376.864 380 365 383.582 365 388Z" fill="#E8EBED"/>
<ellipse rx="26.5" ry="8" transform="matrix(-1 0 0 1 390.5 388)" fill="#A3AEB8"/>
<rect width="53" height="6" transform="matrix(-1 0 0 1 417 383)" fill="#A3AEB8"/>
<path d="M364 383C364 387.418 375.864 391 390.5 391C405.136 391 417 387.418 417 383C417 378.582 405.136 375 390.5 375C375.864 375 364 378.582 364 383Z" fill="#E8EBED"/>
<ellipse rx="26.5" ry="8" transform="matrix(-1 0 0 1 387.5 381)" fill="#A3AEB8"/>
<rect width="53" height="6" transform="matrix(-1 0 0 1 414 376)" fill="#A3AEB8"/>
<path d="M361 376C361 380.418 372.864 384 387.5 384C402.136 384 414 380.418 414 376C414 371.582 402.136 368 387.5 368C372.864 368 361 371.582 361 376Z" fill="#E8EBED"/>
<ellipse rx="26.5" ry="8" transform="matrix(-1 0 0 1 387.5 375)" fill="#A3AEB8"/>
<rect width="53" height="6" transform="matrix(-1 0 0 1 414 370)" fill="#A3AEB8"/>
<path d="M361 370C361 374.418 372.864 378 387.5 378C402.136 378 414 374.418 414 370C414 365.582 402.136 362 387.5 362C372.864 362 361 365.582 361 370Z" fill="#E8EBED"/>
<ellipse rx="26.5" ry="8" transform="matrix(-1 0 0 1 391.5 370)" fill="#A3AEB8"/>
<rect width="53" height="6" transform="matrix(-1 0 0 1 418 365)" fill="#A3AEB8"/>
<path d="M365 365C365 369.418 376.864 373 391.5 373C406.136 373 418 369.418 418 365C418 360.582 406.136 357 391.5 357C376.864 357 365 360.582 365 365Z" fill="#E8EBED"/>
<ellipse rx="26.5" ry="8" transform="matrix(-1 0 0 1 391.5 364)" fill="#A3AEB8"/>
<rect width="53" height="6" transform="matrix(-1 0 0 1 418 359)" fill="#A3AEB8"/>
<path d="M365 359C365 363.418 376.864 367 391.5 367C406.136 367 418 363.418 418 359C418 354.582 406.136 351 391.5 351C376.864 351 365 354.582 365 359Z" fill="#E8EBED"/>
<ellipse rx="26.5" ry="8" transform="matrix(-1 0 0 1 389.5 357)" fill="#A3AEB8"/>
<rect width="53" height="6" transform="matrix(-1 0 0 1 416 352)" fill="#A3AEB8"/>
<path d="M363 352C363 356.418 374.864 360 389.5 360C404.136 360 416 356.418 416 352C416 347.582 404.136 344 389.5 344C374.864 344 363 347.582 363 352Z" fill="#E8EBED"/>
<ellipse rx="26.5" ry="8" transform="matrix(-1 0 0 1 389.5 351)" fill="#A3AEB8"/>
<rect width="53" height="6" transform="matrix(-1 0 0 1 416 346)" fill="#A3AEB8"/>
<path d="M363 346C363 350.418 374.864 354 389.5 354C404.136 354 416 350.418 416 346C416 341.582 404.136 338 389.5 338C374.864 338 363 341.582 363 346Z" fill="#E8EBED"/>
<ellipse rx="26.5" ry="8" transform="matrix(-1 0 0 1 389.5 344)" fill="#A3AEB8"/>
<rect width="53" height="6" transform="matrix(-1 0 0 1 416 339)" fill="#A3AEB8"/>
<path d="M363 339C363 343.418 374.864 347 389.5 347C404.136 347 416 343.418 416 339C416 334.582 404.136 331 389.5 331C374.864 331 363 334.582 363 339Z" fill="#E8EBED"/>
<ellipse rx="26.5" ry="8" transform="matrix(-1 0 0 1 389.5 338)" fill="#A3AEB8"/>
<rect width="53" height="6" transform="matrix(-1 0 0 1 416 333)" fill="#A3AEB8"/>
<path d="M363 333C363 337.418 374.864 341 389.5 341C404.136 341 416 337.418 416 333C416 328.582 404.136 325 389.5 325C374.864 325 363 328.582 363 333Z" fill="#E8EBED"/>
<path d="M317.752 299.75H93.25V248.251L318.248 248.749L317.752 299.75Z" fill="#B6E2DC" stroke="#3A9286" stroke-width="0.5"/>
<rect x="53.5" y="274.5" width="308" height="125" fill="#8AD0C7" stroke="#3A9286"/>
<line x1="53" y1="328.5" x2="362" y2="328.5" stroke="#3A9286"/>
<line x1="53" y1="349.5" x2="362" y2="349.5" stroke="#3A9286"/>
<line x1="52.9968" y1="383.5" x2="207.997" y2="382.5" stroke="#3A9286"/>
<line x1="52.9984" y1="399" x2="208.002" y2="399" stroke="#3A9286"/>
<line x1="53" y1="359.5" x2="362" y2="359.5" stroke="#3A9286"/>
<line x1="53" y1="372.5" x2="362" y2="372.5" stroke="#3A9286"/>
<line x1="53" y1="290.5" x2="362" y2="290.5" stroke="#3A9286"/>
<line x1="53" y1="311.5" x2="362" y2="311.5" stroke="#3A9286"/>
<path d="M53.6408 274.709L92.4567 248.631L121.225 274.306L87 274.709L86.9941 274.709L53.6408 274.709Z" fill="#B6E2DC" stroke="#3A9286"/>
<path d="M360.713 274.709L318.557 249.119L290.295 274.306L324.52 274.709L324.525 274.709L360.713 274.709Z" fill="#B6E2DC" stroke="#3A9286"/>
<path d="M92.1695 250.661C92.0782 249.497 92.9998 248.502 94.1678 248.505L317.004 248.996C318.107 248.998 319 249.893 319 250.996V272C319 273.105 318.105 274 317 274H95.8493C94.8054 274 93.937 273.197 93.8554 272.156L92.1695 250.661Z" fill="#B6E2DC"/>
<rect x="169" y="274" width="78" height="125" fill="#596773"/>
<ellipse cx="209.5" cy="260" rx="109.5" ry="9" fill="#8AD0C7"/>
<path d="M186 247L236.228 265.248L219 274L169.5 274L186 247Z" fill="#A3AEB8"/>
<path d="M232.5 247L180.292 265.248L198.5 274L247 274.5L232.5 247Z" fill="#A3AEB8"/>
<rect x="186" y="247" width="46" height="27" fill="#A3AEB8"/>
<ellipse cx="338.5" cy="418" rx="26.5" ry="8" fill="#A3AEB8"/>
<rect x="312" y="413" width="53" height="6" fill="#A3AEB8"/>
<path d="M365 413C365 417.418 353.136 421 338.5 421C323.864 421 312 417.418 312 413C312 408.582 323.864 405 338.5 405C353.136 405 365 408.582 365 413Z" fill="#E8EBED"/>
<ellipse cx="342.5" cy="411" rx="26.5" ry="8" fill="#A3AEB8"/>
<rect x="316" y="406" width="53" height="6" fill="#A3AEB8"/>
<path d="M369 406C369 410.418 357.136 414 342.5 414C327.864 414 316 410.418 316 406C316 401.582 327.864 398 342.5 398C357.136 398 369 401.582 369 406Z" fill="#E8EBED"/>
<ellipse cx="338.5" cy="405" rx="26.5" ry="8" fill="#A3AEB8"/>
<rect x="312" y="400" width="53" height="6" fill="#A3AEB8"/>
<path d="M365 400C365 404.418 353.136 408 338.5 408C323.864 408 312 404.418 312 400C312 395.582 323.864 392 338.5 392C353.136 392 365 395.582 365 400Z" fill="#E8EBED"/>
<ellipse cx="339.5" cy="400" rx="26.5" ry="8" fill="#A3AEB8"/>
<rect x="313" y="395" width="53" height="6" fill="#A3AEB8"/>
<path d="M366 395C366 399.418 354.136 403 339.5 403C324.864 403 313 399.418 313 395C313 390.582 324.864 387 339.5 387C354.136 387 366 390.582 366 395Z" fill="#E8EBED"/>
<ellipse cx="342.5" cy="393" rx="26.5" ry="8" fill="#A3AEB8"/>
<rect x="316" y="388" width="53" height="6" fill="#A3AEB8"/>
<path d="M369 388C369 392.418 357.136 396 342.5 396C327.864 396 316 392.418 316 388C316 383.582 327.864 380 342.5 380C357.136 380 369 383.582 369 388Z" fill="#E8EBED"/>
<ellipse cx="342.5" cy="387" rx="26.5" ry="8" fill="#A3AEB8"/>
<rect x="316" y="382" width="53" height="6" fill="#A3AEB8"/>
<path d="M369 382C369 386.418 357.136 390 342.5 390C327.864 390 316 386.418 316 382C316 377.582 327.864 374 342.5 374C357.136 374 369 377.582 369 382Z" fill="#E8EBED"/>
<ellipse cx="338.5" cy="382" rx="26.5" ry="8" fill="#A3AEB8"/>
<rect x="312" y="377" width="53" height="6" fill="#A3AEB8"/>
<path d="M365 377C365 381.418 353.136 385 338.5 385C323.864 385 312 381.418 312 377C312 372.582 323.864 369 338.5 369C353.136 369 365 372.582 365 377Z" fill="#E8EBED"/>
<ellipse cx="338.5" cy="376" rx="26.5" ry="8" fill="#A3AEB8"/>
<rect x="312" y="371" width="53" height="6" fill="#A3AEB8"/>
<path d="M365 371C365 375.418 353.136 379 338.5 379C323.864 379 312 375.418 312 371C312 366.582 323.864 363 338.5 363C353.136 363 365 366.582 365 371Z" fill="#E8EBED"/>
<ellipse cx="340.5" cy="369" rx="26.5" ry="8" fill="#A3AEB8"/>
<rect x="314" y="364" width="53" height="6" fill="#A3AEB8"/>
<path d="M367 364C367 368.418 355.136 372 340.5 372C325.864 372 314 368.418 314 364C314 359.582 325.864 356 340.5 356C355.136 356 367 359.582 367 364Z" fill="#E8EBED"/>
<ellipse cx="340.5" cy="363" rx="26.5" ry="8" fill="#A3AEB8"/>
<rect x="314" y="358" width="53" height="6" fill="#A3AEB8"/>
<path d="M367 358C367 362.418 355.136 366 340.5 366C325.864 366 314 362.418 314 358C314 353.582 325.864 350 340.5 350C355.136 350 367 353.582 367 358Z" fill="#E8EBED"/>
<ellipse cx="340.5" cy="356" rx="26.5" ry="8" fill="#A3AEB8"/>
<rect x="314" y="351" width="53" height="6" fill="#A3AEB8"/>
<path d="M367 351C367 355.418 355.136 359 340.5 359C325.864 359 314 355.418 314 351C314 346.582 325.864 343 340.5 343C355.136 343 367 346.582 367 351Z" fill="#E8EBED"/>
<ellipse cx="340.5" cy="350" rx="26.5" ry="8" fill="#A3AEB8"/>
<rect x="314" y="345" width="53" height="6" fill="#A3AEB8"/>
<path d="M367 345C367 349.418 355.136 353 340.5 353C325.864 353 314 349.418 314 345C314 340.582 325.864 337 340.5 337C355.136 337 367 340.582 367 345Z" fill="#E8EBED"/>
<ellipse cx="343.5" cy="343" rx="26.5" ry="8" fill="#A3AEB8"/>
<rect x="317" y="338" width="53" height="6" fill="#A3AEB8"/>
<path d="M370 338C370 342.418 358.136 346 343.5 346C328.864 346 317 342.418 317 338C317 333.582 328.864 330 343.5 330C358.136 330 370 333.582 370 338Z" fill="#E8EBED"/>
<ellipse cx="344.5" cy="336" rx="26.5" ry="8" fill="#A3AEB8"/>
<rect x="318" y="331" width="53" height="6" fill="#A3AEB8"/>
<path d="M371 331C371 335.418 359.136 339 344.5 339C329.864 339 318 335.418 318 331C318 326.582 329.864 323 344.5 323C359.136 323 371 326.582 371 331Z" fill="#E8EBED"/>
<ellipse cx="336.5" cy="333" rx="26.5" ry="8" fill="#A3AEB8"/>
<rect x="310" y="328" width="53" height="6" fill="#A3AEB8"/>
<path d="M363 328C363 332.418 351.136 336 336.5 336C321.864 336 310 332.418 310 328C310 323.582 321.864 320 336.5 320C351.136 320 363 323.582 363 328Z" fill="#E8EBED"/>
<ellipse cx="337.5" cy="326" rx="26.5" ry="8" fill="#A3AEB8"/>
<rect x="311" y="321" width="53" height="6" fill="#A3AEB8"/>
<path d="M364 321C364 325.418 352.136 329 337.5 329C322.864 329 311 325.418 311 321C311 316.582 322.864 313 337.5 313C352.136 313 364 316.582 364 321Z" fill="#E8EBED"/>
<ellipse cx="349.5" cy="321" rx="26.5" ry="8" fill="#A3AEB8"/>
<rect x="323" y="316" width="53" height="6" fill="#A3AEB8"/>
<path d="M376 316C376 320.418 364.136 324 349.5 324C334.864 324 323 320.418 323 316C323 311.582 334.864 308 349.5 308C364.136 308 376 311.582 376 316Z" fill="#E8EBED"/>
<ellipse cx="350.5" cy="314" rx="26.5" ry="8" fill="#A3AEB8"/>
<rect x="324" y="309" width="53" height="6" fill="#A3AEB8"/>
<path d="M377 309C377 313.418 365.136 317 350.5 317C335.864 317 324 313.418 324 309C324 304.582 335.864 301 350.5 301C365.136 301 377 304.582 377 309Z" fill="#E8EBED"/>
<ellipse cx="340.5" cy="308" rx="26.5" ry="8" fill="#A3AEB8"/>
<rect x="314" y="303" width="53" height="6" fill="#A3AEB8"/>
<path d="M367 303C367 307.418 355.136 311 340.5 311C325.864 311 314 307.418 314 303C314 298.582 325.864 295 340.5 295C355.136 295 367 298.582 367 303Z" fill="#E8EBED"/>
<ellipse cx="341.5" cy="301" rx="26.5" ry="8" fill="#A3AEB8"/>
<rect x="315" y="296" width="53" height="6" fill="#A3AEB8"/>
<path d="M368 296C368 300.418 356.136 304 341.5 304C326.864 304 315 300.418 315 296C315 291.582 326.864 288 341.5 288C356.136 288 368 291.582 368 296Z" fill="#E8EBED"/>
<ellipse cx="477.5" cy="401" rx="26.5" ry="8" fill="#A3AEB8"/>
<rect x="451" y="396" width="53" height="6" fill="#A3AEB8"/>
<path d="M504 396C504 400.418 492.136 404 477.5 404C462.864 404 451 400.418 451 396C451 391.582 462.864 388 477.5 388C492.136 388 504 391.582 504 396Z" fill="#E8EBED"/>
<ellipse cx="481.5" cy="394" rx="26.5" ry="8" fill="#A3AEB8"/>
<rect x="455" y="389" width="53" height="6" fill="#A3AEB8"/>
<path d="M508 389C508 393.418 496.136 397 481.5 397C466.864 397 455 393.418 455 389C455 384.582 466.864 381 481.5 381C496.136 381 508 384.582 508 389Z" fill="#E8EBED"/>
<ellipse cx="477.5" cy="388" rx="26.5" ry="8" fill="#A3AEB8"/>
<rect x="451" y="383" width="53" height="6" fill="#A3AEB8"/>
<path d="M504 383C504 387.418 492.136 391 477.5 391C462.864 391 451 387.418 451 383C451 378.582 462.864 375 477.5 375C492.136 375 504 378.582 504 383Z" fill="#E8EBED"/>
<ellipse cx="478.5" cy="383" rx="26.5" ry="8" fill="#A3AEB8"/>
<rect x="452" y="378" width="53" height="6" fill="#A3AEB8"/>
<path d="M505 378C505 382.418 493.136 386 478.5 386C463.864 386 452 382.418 452 378C452 373.582 463.864 370 478.5 370C493.136 370 505 373.582 505 378Z" fill="#E8EBED"/>
<ellipse cx="481.5" cy="376" rx="26.5" ry="8" fill="#A3AEB8"/>
<rect x="455" y="371" width="53" height="6" fill="#A3AEB8"/>
<path d="M508 371C508 375.418 496.136 379 481.5 379C466.864 379 455 375.418 455 371C455 366.582 466.864 363 481.5 363C496.136 363 508 366.582 508 371Z" fill="#E8EBED"/>
<ellipse cx="481.5" cy="370" rx="26.5" ry="8" fill="#A3AEB8"/>
<rect x="455" y="365" width="53" height="6" fill="#A3AEB8"/>
<path d="M508 365C508 369.418 496.136 373 481.5 373C466.864 373 455 369.418 455 365C455 360.582 466.864 357 481.5 357C496.136 357 508 360.582 508 365Z" fill="#E8EBED"/>
<ellipse cx="477.5" cy="365" rx="26.5" ry="8" fill="#A3AEB8"/>
<rect x="451" y="360" width="53" height="6" fill="#A3AEB8"/>
<path d="M504 360C504 364.418 492.136 368 477.5 368C462.864 368 451 364.418 451 360C451 355.582 462.864 352 477.5 352C492.136 352 504 355.582 504 360Z" fill="#E8EBED"/>
<ellipse cx="508.5" cy="422" rx="26.5" ry="8" fill="#A3AEB8"/>
<rect x="482" y="417" width="53" height="6" fill="#A3AEB8"/>
<path d="M535 417C535 421.418 523.136 425 508.5 425C493.864 425 482 421.418 482 417C482 412.582 493.864 409 508.5 409C523.136 409 535 412.582 535 417Z" fill="#E8EBED"/>
<ellipse cx="512.5" cy="415" rx="26.5" ry="8" fill="#A3AEB8"/>
<rect x="486" y="410" width="53" height="6" fill="#A3AEB8"/>
<path d="M539 410C539 414.418 527.136 418 512.5 418C497.864 418 486 414.418 486 410C486 405.582 497.864 402 512.5 402C527.136 402 539 405.582 539 410Z" fill="#E8EBED"/>
<ellipse cx="508.5" cy="409" rx="26.5" ry="8" fill="#A3AEB8"/>
<rect x="482" y="404" width="53" height="6" fill="#A3AEB8"/>
<path d="M535 404C535 408.418 523.136 412 508.5 412C493.864 412 482 408.418 482 404C482 399.582 493.864 396 508.5 396C523.136 396 535 399.582 535 404Z" fill="#E8EBED"/>
<ellipse cx="509.5" cy="404" rx="26.5" ry="8" fill="#A3AEB8"/>
<rect x="483" y="399" width="53" height="6" fill="#A3AEB8"/>
<path d="M536 399C536 403.418 524.136 407 509.5 407C494.864 407 483 403.418 483 399C483 394.582 494.864 391 509.5 391C524.136 391 536 394.582 536 399Z" fill="#E8EBED"/>
<ellipse rx="26.5" ry="8" transform="matrix(-1 0 0 1 430.5 433)" fill="#A3AEB8"/>
<rect width="53" height="6" transform="matrix(-1 0 0 1 457 428)" fill="#A3AEB8"/>
<path d="M404 428C404 432.418 415.864 436 430.5 436C445.136 436 457 432.418 457 428C457 423.582 445.136 420 430.5 420C415.864 420 404 423.582 404 428Z" fill="#E8EBED"/>
<ellipse rx="26.5" ry="8" transform="matrix(-1 0 0 1 426.5 426)" fill="#A3AEB8"/>
<rect width="53" height="6" transform="matrix(-1 0 0 1 453 421)" fill="#A3AEB8"/>
<path d="M400 421C400 425.418 411.864 429 426.5 429C441.136 429 453 425.418 453 421C453 416.582 441.136 413 426.5 413C411.864 413 400 416.582 400 421Z" fill="#E8EBED"/>
<ellipse rx="26.5" ry="8" transform="matrix(-1 0 0 1 430.5 420)" fill="#A3AEB8"/>
<rect width="53" height="6" transform="matrix(-1 0 0 1 457 415)" fill="#A3AEB8"/>
<path d="M404 415C404 419.418 415.864 423 430.5 423C445.136 423 457 419.418 457 415C457 410.582 445.136 407 430.5 407C415.864 407 404 410.582 404 415Z" fill="#E8EBED"/>
<ellipse rx="26.5" ry="8" transform="matrix(-1 0 0 1 429.5 415)" fill="#A3AEB8"/>
<rect width="53" height="6" transform="matrix(-1 0 0 1 456 410)" fill="#A3AEB8"/>
<path d="M403 410C403 414.418 414.864 418 429.5 418C444.136 418 456 414.418 456 410C456 405.582 444.136 402 429.5 402C414.864 402 403 405.582 403 410Z" fill="#E8EBED"/>
<ellipse rx="26.5" ry="8" transform="matrix(-1 0 0 1 426.5 408)" fill="#A3AEB8"/>
<rect width="53" height="6" transform="matrix(-1 0 0 1 453 403)" fill="#A3AEB8"/>
<path d="M400 403C400 407.418 411.864 411 426.5 411C441.136 411 453 407.418 453 403C453 398.582 441.136 395 426.5 395C411.864 395 400 398.582 400 403Z" fill="#E8EBED"/>
<ellipse rx="26.5" ry="8" transform="matrix(-1 0 0 1 426.5 402)" fill="#A3AEB8"/>
<rect width="53" height="6" transform="matrix(-1 0 0 1 453 397)" fill="#A3AEB8"/>
<path d="M400 397C400 401.418 411.864 405 426.5 405C441.136 405 453 401.418 453 397C453 392.582 441.136 389 426.5 389C411.864 389 400 392.582 400 397Z" fill="#E8EBED"/>
<ellipse rx="26.5" ry="8" transform="matrix(-1 0 0 1 430.5 397)" fill="#A3AEB8"/>
<rect width="53" height="6" transform="matrix(-1 0 0 1 457 392)" fill="#A3AEB8"/>
<path d="M404 392C404 396.418 415.864 400 430.5 400C445.136 400 457 396.418 457 392C457 387.582 445.136 384 430.5 384C415.864 384 404 387.582 404 392Z" fill="#E8EBED"/>
<ellipse rx="26.5" ry="8" transform="matrix(-1 0 0 1 430.5 391)" fill="#A3AEB8"/>
<rect width="53" height="6" transform="matrix(-1 0 0 1 457 386)" fill="#A3AEB8"/>
<path d="M404 386C404 390.418 415.864 394 430.5 394C445.136 394 457 390.418 457 386C457 381.582 445.136 378 430.5 378C415.864 378 404 381.582 404 386Z" fill="#E8EBED"/>
<ellipse rx="26.5" ry="8" transform="matrix(-1 0 0 1 428.5 384)" fill="#A3AEB8"/>
<rect width="53" height="6" transform="matrix(-1 0 0 1 455 379)" fill="#A3AEB8"/>
<path d="M402 379C402 383.418 413.864 387 428.5 387C443.136 387 455 383.418 455 379C455 374.582 443.136 371 428.5 371C413.864 371 402 374.582 402 379Z" fill="#E8EBED"/>
<ellipse rx="26.5" ry="8" transform="matrix(-1 0 0 1 428.5 378)" fill="#A3AEB8"/>
<rect width="53" height="6" transform="matrix(-1 0 0 1 455 373)" fill="#A3AEB8"/>
<path d="M402 373C402 377.418 413.864 381 428.5 381C443.136 381 455 377.418 455 373C455 368.582 443.136 365 428.5 365C413.864 365 402 368.582 402 373Z" fill="#E8EBED"/>
<ellipse rx="26.5" ry="8" transform="matrix(-1 0 0 1 428.5 371)" fill="#A3AEB8"/>
<rect width="53" height="6" transform="matrix(-1 0 0 1 455 366)" fill="#A3AEB8"/>
<path d="M402 366C402 370.418 413.864 374 428.5 374C443.136 374 455 370.418 455 366C455 361.582 443.136 358 428.5 358C413.864 358 402 361.582 402 366Z" fill="#E8EBED"/>
<ellipse rx="26.5" ry="8" transform="matrix(-1 0 0 1 428.5 365)" fill="#A3AEB8"/>
<rect width="53" height="6" transform="matrix(-1 0 0 1 455 360)" fill="#A3AEB8"/>
<path d="M402 360C402 364.418 413.864 368 428.5 368C443.136 368 455 364.418 455 360C455 355.582 443.136 352 428.5 352C413.864 352 402 355.582 402 360Z" fill="#E8EBED"/>
<ellipse rx="26.5" ry="8" transform="matrix(-1 0 0 1 425.5 358)" fill="#A3AEB8"/>
<rect width="53" height="6" transform="matrix(-1 0 0 1 452 353)" fill="#A3AEB8"/>
<path d="M399 353C399 357.418 410.864 361 425.5 361C440.136 361 452 357.418 452 353C452 348.582 440.136 345 425.5 345C410.864 345 399 348.582 399 353Z" fill="#E8EBED"/>
<ellipse rx="26.5" ry="8" transform="matrix(-1 0 0 1 424.5 351)" fill="#A3AEB8"/>
<rect width="53" height="6" transform="matrix(-1 0 0 1 451 346)" fill="#A3AEB8"/>
<path d="M398 346C398 350.418 409.864 354 424.5 354C439.136 354 451 350.418 451 346C451 341.582 439.136 338 424.5 338C409.864 338 398 341.582 398 346Z" fill="#E8EBED"/>
<ellipse rx="26.5" ry="8" transform="matrix(-1 0 0 1 432.5 348)" fill="#A3AEB8"/>
<rect width="53" height="6" transform="matrix(-1 0 0 1 459 343)" fill="#A3AEB8"/>
<path d="M406 343C406 347.418 417.864 351 432.5 351C447.136 351 459 347.418 459 343C459 338.582 447.136 335 432.5 335C417.864 335 406 338.582 406 343Z" fill="#E8EBED"/>
<ellipse rx="26.5" ry="8" transform="matrix(-1 0 0 1 431.5 341)" fill="#A3AEB8"/>
<rect width="53" height="6" transform="matrix(-1 0 0 1 458 336)" fill="#A3AEB8"/>
<path d="M405 336C405 340.418 416.864 344 431.5 344C446.136 344 458 340.418 458 336C458 331.582 446.136 328 431.5 328C416.864 328 405 331.582 405 336Z" fill="#E8EBED"/>
<ellipse rx="26.5" ry="8" transform="matrix(-1 0 0 1 419.5 336)" fill="#A3AEB8"/>
<rect width="53" height="6" transform="matrix(-1 0 0 1 446 331)" fill="#A3AEB8"/>
<path d="M393 331C393 335.418 404.864 339 419.5 339C434.136 339 446 335.418 446 331C446 326.582 434.136 323 419.5 323C404.864 323 393 326.582 393 331Z" fill="#E8EBED"/>
<ellipse rx="26.5" ry="8" transform="matrix(-1 0 0 1 418.5 329)" fill="#A3AEB8"/>
<rect width="53" height="6" transform="matrix(-1 0 0 1 445 324)" fill="#A3AEB8"/>
<path d="M392 324C392 328.418 403.864 332 418.5 332C433.136 332 445 328.418 445 324C445 319.582 433.136 316 418.5 316C403.864 316 392 319.582 392 324Z" fill="#E8EBED"/>
<ellipse rx="26.5" ry="8" transform="matrix(-1 0 0 1 428.5 323)" fill="#A3AEB8"/>
<rect width="53" height="6" transform="matrix(-1 0 0 1 455 318)" fill="#A3AEB8"/>
<path d="M402 318C402 322.418 413.864 326 428.5 326C443.136 326 455 322.418 455 318C455 313.582 443.136 310 428.5 310C413.864 310 402 313.582 402 318Z" fill="#E8EBED"/>
<ellipse rx="26.5" ry="8" transform="matrix(-1 0 0 1 427.5 316)" fill="#A3AEB8"/>
<rect width="53" height="6" transform="matrix(-1 0 0 1 454 311)" fill="#A3AEB8"/>
<path d="M401 311C401 315.418 412.864 319 427.5 319C442.136 319 454 315.418 454 311C454 306.582 442.136 303 427.5 303C412.864 303 401 306.582 401 311Z" fill="#E8EBED"/>
<path d="M443.202 100.995L435.214 146.031L400.205 116.595L443.202 100.995Z" fill="#3A9286"/>
<defs>
<filter id="filter0_d_18:388" x="146" y="22" width="405" height="318" filterUnits="userSpaceOnUse" color-interpolation-filters="sRGB">
<feFlood flood-opacity="0" result="BackgroundImageFix"/>
<feColorMatrix in="SourceAlpha" type="matrix" values="0 0 0 0 0 0 0 0 0 0 0 0 0 0 0 0 0 0 127 0" result="hardAlpha"/>
<feOffset/>
<feGaussianBlur stdDeviation="10"/>
<feComposite in2="hardAlpha" operator="out"/>
<feColorMatrix type="matrix" values="0 0 0 0 0 0 0 0 0 0 0 0 0 0 0 0 0 0 0.1 0"/>
<feBlend mode="normal" in2="BackgroundImageFix" result="effect1_dropShadow_18:388"/>
<feBlend mode="normal" in="SourceGraphic" in2="effect1_dropShadow_18:388" result="shape"/>
</filter>
</defs>
</svg>
