<svg width="608" height="514" viewBox="0 0 608 514" fill="none" xmlns="http://www.w3.org/2000/svg">
<g filter="url(#filter0_d_0:1)">
<rect x="20" y="20" width="351" height="419" rx="4" fill="white"/>
<path d="M156.032 58.832L152.912 70H150.272L148.176 62.048L145.984 70L143.36 70.016L140.352 58.832H142.752L144.72 67.504L146.992 58.832H149.488L151.632 67.456L153.616 58.832H156.032ZM169.159 58.832V70H166.919V65.248H162.135V70H159.895V58.832H162.135V63.424H166.919V58.832H169.159ZM176.003 58.832V70H173.763V58.832H176.003ZM184.473 70.112C183.694 70.112 182.99 69.9787 182.361 69.712C181.742 69.4453 181.251 69.0613 180.889 68.56C180.526 68.0587 180.339 67.4667 180.329 66.784H182.729C182.761 67.2427 182.921 67.6053 183.209 67.872C183.507 68.1387 183.913 68.272 184.425 68.272C184.947 68.272 185.358 68.1493 185.657 67.904C185.955 67.648 186.105 67.3173 186.105 66.912C186.105 66.5813 186.003 66.3093 185.801 66.096C185.598 65.8827 185.342 65.7173 185.033 65.6C184.734 65.472 184.318 65.3333 183.785 65.184C183.059 64.9707 182.467 64.7627 182.009 64.56C181.561 64.3467 181.171 64.032 180.841 63.616C180.521 63.1893 180.361 62.624 180.361 61.92C180.361 61.2587 180.526 60.6827 180.857 60.192C181.187 59.7013 181.651 59.328 182.249 59.072C182.846 58.8053 183.529 58.672 184.297 58.672C185.449 58.672 186.382 58.9547 187.097 59.52C187.822 60.0747 188.222 60.8533 188.297 61.856H185.833C185.811 61.472 185.646 61.1573 185.337 60.912C185.038 60.656 184.638 60.528 184.137 60.528C183.699 60.528 183.347 60.64 183.081 60.864C182.825 61.088 182.697 61.4133 182.697 61.84C182.697 62.1387 182.793 62.3893 182.985 62.592C183.187 62.784 183.433 62.944 183.721 63.072C184.019 63.1893 184.435 63.328 184.969 63.488C185.694 63.7013 186.286 63.9147 186.745 64.128C187.203 64.3413 187.598 64.6613 187.929 65.088C188.259 65.5147 188.425 66.0747 188.425 66.768C188.425 67.3653 188.27 67.92 187.961 68.432C187.651 68.944 187.198 69.3547 186.601 69.664C186.003 69.9627 185.294 70.112 184.473 70.112ZM200.366 58.832V60.64H197.39V70H195.15V60.64H192.174V58.832H200.366ZM206.641 68.224H210.321V70H204.401V58.832H206.641V68.224ZM216.385 58.832V70H214.145V58.832H216.385ZM224.854 70.112C224.075 70.112 223.371 69.9787 222.742 69.712C222.123 69.4453 221.632 69.0613 221.27 68.56C220.907 68.0587 220.72 67.4667 220.71 66.784H223.11C223.142 67.2427 223.302 67.6053 223.59 67.872C223.888 68.1387 224.294 68.272 224.806 68.272C225.328 68.272 225.739 68.1493 226.038 67.904C226.336 67.648 226.486 67.3173 226.486 66.912C226.486 66.5813 226.384 66.3093 226.182 66.096C225.979 65.8827 225.723 65.7173 225.414 65.6C225.115 65.472 224.699 65.3333 224.166 65.184C223.44 64.9707 222.848 64.7627 222.39 64.56C221.942 64.3467 221.552 64.032 221.222 63.616C220.902 63.1893 220.742 62.624 220.742 61.92C220.742 61.2587 220.907 60.6827 221.238 60.192C221.568 59.7013 222.032 59.328 222.63 59.072C223.227 58.8053 223.91 58.672 224.678 58.672C225.83 58.672 226.763 58.9547 227.478 59.52C228.203 60.0747 228.603 60.8533 228.678 61.856H226.214C226.192 61.472 226.027 61.1573 225.718 60.912C225.419 60.656 225.019 60.528 224.518 60.528C224.08 60.528 223.728 60.64 223.462 60.864C223.206 61.088 223.078 61.4133 223.078 61.84C223.078 62.1387 223.174 62.3893 223.366 62.592C223.568 62.784 223.814 62.944 224.102 63.072C224.4 63.1893 224.816 63.328 225.35 63.488C226.075 63.7013 226.667 63.9147 227.126 64.128C227.584 64.3413 227.979 64.6613 228.31 65.088C228.64 65.5147 228.806 66.0747 228.806 66.768C228.806 67.3653 228.651 67.92 228.342 68.432C228.032 68.944 227.579 69.3547 226.982 69.664C226.384 69.9627 225.675 70.112 224.854 70.112ZM240.748 58.832V60.64H237.772V70H235.532V60.64H232.556V58.832H240.748Z" fill="#596773"/>
<path d="M106.864 247L104.4 242.648H103.344V247H101.104V235.832H105.296C106.16 235.832 106.896 235.987 107.504 236.296C108.112 236.595 108.565 237.005 108.864 237.528C109.173 238.04 109.328 238.616 109.328 239.256C109.328 239.992 109.115 240.659 108.688 241.256C108.261 241.843 107.627 242.248 106.784 242.472L109.456 247H106.864ZM103.344 240.968H105.216C105.824 240.968 106.277 240.824 106.576 240.536C106.875 240.237 107.024 239.827 107.024 239.304C107.024 238.792 106.875 238.397 106.576 238.12C106.277 237.832 105.824 237.688 105.216 237.688H103.344V240.968ZM122.122 238.136V247H119.866V245.88C119.578 246.264 119.199 246.568 118.73 246.792C118.271 247.005 117.77 247.112 117.226 247.112C116.533 247.112 115.919 246.968 115.386 246.68C114.853 246.381 114.431 245.949 114.122 245.384C113.823 244.808 113.674 244.125 113.674 243.336V238.136H115.914V243.016C115.914 243.72 116.09 244.264 116.442 244.648C116.794 245.021 117.274 245.208 117.882 245.208C118.501 245.208 118.986 245.021 119.338 244.648C119.69 244.264 119.866 243.72 119.866 243.016V238.136H122.122ZM137.74 238.008C138.828 238.008 139.703 238.344 140.364 239.016C141.036 239.677 141.372 240.605 141.372 241.8V247H139.132V242.104C139.132 241.411 138.956 240.883 138.604 240.52C138.252 240.147 137.772 239.96 137.164 239.96C136.556 239.96 136.071 240.147 135.708 240.52C135.356 240.883 135.18 241.411 135.18 242.104V247H132.94V242.104C132.94 241.411 132.764 240.883 132.412 240.52C132.06 240.147 131.58 239.96 130.972 239.96C130.353 239.96 129.863 240.147 129.5 240.52C129.148 240.883 128.972 241.411 128.972 242.104V247H126.732V238.136H128.972V239.208C129.26 238.835 129.628 238.541 130.076 238.328C130.535 238.115 131.036 238.008 131.58 238.008C132.273 238.008 132.892 238.157 133.436 238.456C133.98 238.744 134.401 239.16 134.7 239.704C134.988 239.192 135.404 238.781 135.948 238.472C136.503 238.163 137.1 238.008 137.74 238.008ZM145.322 242.536C145.322 241.64 145.498 240.845 145.85 240.152C146.212 239.459 146.698 238.925 147.306 238.552C147.924 238.179 148.612 237.992 149.37 237.992C150.031 237.992 150.607 238.125 151.098 238.392C151.599 238.659 151.999 238.995 152.298 239.4V238.136H154.554V247H152.298V245.704C152.01 246.12 151.61 246.467 151.098 246.744C150.596 247.011 150.015 247.144 149.354 247.144C148.607 247.144 147.924 246.952 147.306 246.568C146.698 246.184 146.212 245.645 145.85 244.952C145.498 244.248 145.322 243.443 145.322 242.536ZM152.298 242.568C152.298 242.024 152.191 241.56 151.978 241.176C151.764 240.781 151.476 240.483 151.114 240.28C150.751 240.067 150.362 239.96 149.946 239.96C149.53 239.96 149.146 240.061 148.794 240.264C148.442 240.467 148.154 240.765 147.93 241.16C147.716 241.544 147.61 242.003 147.61 242.536C147.61 243.069 147.716 243.539 147.93 243.944C148.154 244.339 148.442 244.643 148.794 244.856C149.156 245.069 149.54 245.176 149.946 245.176C150.362 245.176 150.751 245.075 151.114 244.872C151.476 244.659 151.764 244.36 151.978 243.976C152.191 243.581 152.298 243.112 152.298 242.568ZM164.133 238.008C164.805 238.008 165.403 238.157 165.925 238.456C166.448 238.744 166.853 239.176 167.141 239.752C167.44 240.317 167.589 241 167.589 241.8V247H165.349V242.104C165.349 241.4 165.173 240.861 164.821 240.488C164.469 240.104 163.989 239.912 163.381 239.912C162.763 239.912 162.272 240.104 161.909 240.488C161.557 240.861 161.381 241.4 161.381 242.104V247H159.141V235.16H161.381V239.24C161.669 238.856 162.053 238.557 162.533 238.344C163.013 238.12 163.547 238.008 164.133 238.008Z" fill="#596773"/>
<ellipse cx="57" cy="241.5" rx="10" ry="9.5" fill="#8AD0C7"/>
<ellipse cx="58" cy="118.5" rx="10" ry="9.5" fill="#8AD0C7"/>
<rect x="100" y="109" width="244" height="19" fill="#8AD0C7"/>
<ellipse cx="56" cy="361.5" rx="10" ry="9.5" fill="#8AD0C7"/>
<rect x="98" y="352" width="244" height="19" fill="#8AD0C7"/>
<ellipse cx="57" cy="321.5" rx="10" ry="9.5" fill="#8AD0C7"/>
<rect x="98" y="312" width="244" height="19" fill="#8AD0C7"/>
<ellipse cx="58" cy="158.5" rx="10" ry="9.5" fill="#8AD0C7"/>
<rect x="100" y="149" width="244" height="19" fill="#8AD0C7"/>
<ellipse cx="58" cy="198.5" rx="10" ry="9.5" fill="#8AD0C7"/>
<rect x="100" y="189" width="244" height="19" fill="#8AD0C7"/>
<ellipse cx="58" cy="281.5" rx="10" ry="9.5" fill="#8AD0C7"/>
<rect x="99" y="272" width="244" height="19" fill="#8AD0C7"/>
<path d="M57 243.2L52.8 239L51.4 240.4L57 246L69 234L67.6 232.6L57 243.2Z" fill="#596773"/>
</g>
<g filter="url(#filter1_d_0:1)">
<rect x="140" y="286" width="448" height="208" rx="4" fill="white"/>
</g>
<g filter="url(#filter2_d_0:1)">
<rect x="330" y="312.38" width="82" height="97.4049" fill="white"/>
<rect x="330.5" y="312.88" width="81" height="96.4049" stroke="#50B9AB"/>
</g>
<path d="M334.97 431.631H332.19L331.73 432.961H330.26L332.77 425.971H334.4L336.91 432.961H335.43L334.97 431.631ZM334.59 430.511L333.58 427.591L332.57 430.511H334.59ZM340.058 426.761C339.805 426.761 339.595 426.684 339.428 426.531C339.268 426.371 339.188 426.174 339.188 425.941C339.188 425.708 339.268 425.514 339.428 425.361C339.595 425.201 339.805 425.121 340.058 425.121C340.305 425.121 340.508 425.201 340.668 425.361C340.828 425.514 340.908 425.708 340.908 425.941C340.908 426.174 340.828 426.371 340.668 426.531C340.508 426.684 340.305 426.761 340.058 426.761ZM340.748 433.871C340.748 434.484 340.595 434.924 340.288 435.191C339.988 435.464 339.555 435.601 338.988 435.601H338.368V434.411H338.768C338.982 434.411 339.132 434.368 339.218 434.281C339.305 434.201 339.348 434.068 339.348 433.881V427.421H340.748V433.871ZM348.861 427.421V432.961H347.451V432.261C347.271 432.501 347.035 432.691 346.741 432.831C346.455 432.964 346.141 433.031 345.801 433.031C345.368 433.031 344.985 432.941 344.651 432.761C344.318 432.574 344.055 432.304 343.861 431.951C343.675 431.591 343.581 431.164 343.581 430.671V427.421H344.981V430.471C344.981 430.911 345.091 431.251 345.311 431.491C345.531 431.724 345.831 431.841 346.211 431.841C346.598 431.841 346.901 431.724 347.121 431.491C347.341 431.251 347.451 430.911 347.451 430.471V427.421H348.861ZM355.023 432.961L353.143 430.601V432.961H351.743V425.561H353.143V429.771L355.003 427.421H356.823L354.383 430.201L356.843 432.961H355.023ZM358.723 430.171C358.723 429.611 358.833 429.114 359.053 428.681C359.279 428.248 359.583 427.914 359.963 427.681C360.349 427.448 360.779 427.331 361.253 427.331C361.666 427.331 362.026 427.414 362.333 427.581C362.646 427.748 362.896 427.958 363.083 428.211V427.421H364.493V432.961H363.083V432.151C362.903 432.411 362.653 432.628 362.333 432.801C362.019 432.968 361.656 433.051 361.243 433.051C360.776 433.051 360.349 432.931 359.963 432.691C359.583 432.451 359.279 432.114 359.053 431.681C358.833 431.241 358.723 430.738 358.723 430.171ZM363.083 430.191C363.083 429.851 363.016 429.561 362.883 429.321C362.749 429.074 362.569 428.888 362.343 428.761C362.116 428.628 361.873 428.561 361.613 428.561C361.353 428.561 361.113 428.624 360.893 428.751C360.673 428.878 360.493 429.064 360.353 429.311C360.219 429.551 360.153 429.838 360.153 430.171C360.153 430.504 360.219 430.798 360.353 431.051C360.493 431.298 360.673 431.488 360.893 431.621C361.119 431.754 361.359 431.821 361.613 431.821C361.873 431.821 362.116 431.758 362.343 431.631C362.569 431.498 362.749 431.311 362.883 431.071C363.016 430.824 363.083 430.531 363.083 430.191ZM370.43 427.341C371.09 427.341 371.623 427.551 372.03 427.971C372.437 428.384 372.64 428.964 372.64 429.711V432.961H371.24V429.901C371.24 429.461 371.13 429.124 370.91 428.891C370.69 428.651 370.39 428.531 370.01 428.531C369.623 428.531 369.317 428.651 369.09 428.891C368.87 429.124 368.76 429.461 368.76 429.901V432.961H367.36V427.421H368.76V428.111C368.947 427.871 369.183 427.684 369.47 427.551C369.763 427.411 370.083 427.341 370.43 427.341ZM383.294 432.961L380.754 429.851V432.961H379.354V425.981H380.754V429.111L383.294 425.981H384.984L382.104 429.441L385.064 432.961H383.294ZM392.575 428.141C392.575 428.514 392.485 428.864 392.305 429.191C392.132 429.518 391.855 429.781 391.475 429.981C391.102 430.181 390.628 430.281 390.055 430.281H388.885V432.961H387.485V425.981H390.055C390.595 425.981 391.055 426.074 391.435 426.261C391.815 426.448 392.098 426.704 392.285 427.031C392.478 427.358 392.575 427.728 392.575 428.141ZM389.995 429.151C390.382 429.151 390.668 429.064 390.855 428.891C391.042 428.711 391.135 428.461 391.135 428.141C391.135 427.461 390.755 427.121 389.995 427.121H388.885V429.151H389.995ZM398.669 432.961L397.129 430.241H396.469V432.961H395.069V425.981H397.689C398.229 425.981 398.689 426.078 399.069 426.271C399.449 426.458 399.732 426.714 399.919 427.041C400.112 427.361 400.209 427.721 400.209 428.121C400.209 428.581 400.076 428.998 399.809 429.371C399.542 429.738 399.146 429.991 398.619 430.131L400.289 432.961H398.669ZM396.469 429.191H397.639C398.019 429.191 398.302 429.101 398.489 428.921C398.676 428.734 398.769 428.478 398.769 428.151C398.769 427.831 398.676 427.584 398.489 427.411C398.302 427.231 398.019 427.141 397.639 427.141H396.469V429.191Z" fill="#596773"/>
<ellipse cx="340.658" cy="342.925" rx="2.21477" ry="2.13482" fill="#8AD0C7"/>
<rect x="349.96" y="340.79" width="54.0403" height="4.26963" fill="#8AD0C7"/>
<ellipse cx="340.215" cy="370.32" rx="2.21477" ry="2.13482" fill="#8AD0C7"/>
<rect x="349.517" y="368.185" width="54.0403" height="4.26963" fill="#8AD0C7"/>
<ellipse cx="340.436" cy="388.543" rx="2.21477" ry="2.13482" fill="#8AD0C7"/>
<rect x="349.517" y="386.408" width="54.0403" height="4.26963" fill="#8AD0C7"/>
<ellipse cx="340.658" cy="351.914" rx="2.21477" ry="2.13482" fill="#8AD0C7"/>
<rect x="349.96" y="349.779" width="54.0403" height="4.26963" fill="#8AD0C7"/>
<ellipse cx="340.658" cy="360.902" rx="2.21477" ry="2.13482" fill="#8AD0C7"/>
<rect x="349.96" y="358.768" width="54.0403" height="4.26963" fill="#8AD0C7"/>
<ellipse cx="340.658" cy="379.554" rx="2.21477" ry="2.13482" fill="#8AD0C7"/>
<rect x="349.738" y="377.419" width="54.0403" height="4.26963" fill="#8AD0C7"/>
<path d="M344.48 331.583C344.091 331.583 343.739 331.516 343.424 331.383C343.115 331.249 342.869 331.057 342.688 330.807C342.507 330.556 342.413 330.26 342.408 329.919H343.608C343.624 330.148 343.704 330.329 343.848 330.463C343.997 330.596 344.2 330.663 344.456 330.663C344.717 330.663 344.923 330.601 345.072 330.479C345.221 330.351 345.296 330.185 345.296 329.983C345.296 329.817 345.245 329.681 345.144 329.575C345.043 329.468 344.915 329.385 344.76 329.327C344.611 329.263 344.403 329.193 344.136 329.119C343.773 329.012 343.477 328.908 343.248 328.807C343.024 328.7 342.829 328.543 342.664 328.335C342.504 328.121 342.424 327.839 342.424 327.487C342.424 327.156 342.507 326.868 342.672 326.623C342.837 326.377 343.069 326.191 343.368 326.063C343.667 325.929 344.008 325.863 344.392 325.863C344.968 325.863 345.435 326.004 345.792 326.287C346.155 326.564 346.355 326.953 346.392 327.455H345.16C345.149 327.263 345.067 327.105 344.912 326.983C344.763 326.855 344.563 326.791 344.312 326.791C344.093 326.791 343.917 326.847 343.784 326.959C343.656 327.071 343.592 327.233 343.592 327.447C343.592 327.596 343.64 327.721 343.736 327.823C343.837 327.919 343.96 327.999 344.104 328.063C344.253 328.121 344.461 328.191 344.728 328.271C345.091 328.377 345.387 328.484 345.616 328.591C345.845 328.697 346.043 328.857 346.208 329.071C346.373 329.284 346.456 329.564 346.456 329.911C346.456 330.209 346.379 330.487 346.224 330.743C346.069 330.999 345.843 331.204 345.544 331.359C345.245 331.508 344.891 331.583 344.48 331.583ZM352.811 327.095V331.527H351.683V330.967C351.539 331.159 351.35 331.311 351.115 331.423C350.886 331.529 350.635 331.583 350.363 331.583C350.016 331.583 349.71 331.511 349.443 331.367C349.176 331.217 348.966 331.001 348.811 330.719C348.662 330.431 348.587 330.089 348.587 329.695V327.095H349.707V329.535C349.707 329.887 349.795 330.159 349.971 330.351C350.147 330.537 350.387 330.631 350.691 330.631C351 330.631 351.243 330.537 351.419 330.351C351.595 330.159 351.683 329.887 351.683 329.535V327.095H352.811ZM356.236 327.743C356.38 327.529 356.577 327.356 356.828 327.223C357.084 327.089 357.375 327.023 357.7 327.023C358.079 327.023 358.42 327.116 358.724 327.303C359.033 327.489 359.276 327.756 359.452 328.103C359.633 328.444 359.724 328.841 359.724 329.295C359.724 329.748 359.633 330.151 359.452 330.503C359.276 330.849 359.033 331.119 358.724 331.311C358.42 331.503 358.079 331.599 357.7 331.599C357.369 331.599 357.079 331.535 356.828 331.407C356.583 331.273 356.385 331.103 356.236 330.895V331.527H355.116V325.607H356.236V327.743ZM358.58 329.295C358.58 329.028 358.524 328.799 358.412 328.607C358.305 328.409 358.161 328.26 357.98 328.159C357.804 328.057 357.612 328.007 357.404 328.007C357.201 328.007 357.009 328.06 356.828 328.167C356.652 328.268 356.508 328.417 356.396 328.615C356.289 328.812 356.236 329.044 356.236 329.311C356.236 329.577 356.289 329.809 356.396 330.007C356.508 330.204 356.652 330.356 356.828 330.463C357.009 330.564 357.201 330.615 357.404 330.615C357.612 330.615 357.804 330.561 357.98 330.455C358.161 330.348 358.305 330.196 358.412 329.999C358.524 329.801 358.58 329.567 358.58 329.295ZM367.242 327.031C367.786 327.031 368.223 327.199 368.554 327.535C368.89 327.865 369.058 328.329 369.058 328.927V331.527H367.938V329.079C367.938 328.732 367.85 328.468 367.674 328.287C367.498 328.1 367.258 328.007 366.954 328.007C366.65 328.007 366.407 328.1 366.226 328.287C366.05 328.468 365.962 328.732 365.962 329.079V331.527H364.842V329.079C364.842 328.732 364.754 328.468 364.578 328.287C364.402 328.1 364.162 328.007 363.858 328.007C363.549 328.007 363.303 328.1 363.122 328.287C362.946 328.468 362.858 328.732 362.858 329.079V331.527H361.738V327.095H362.858V327.631C363.002 327.444 363.186 327.297 363.41 327.191C363.639 327.084 363.89 327.031 364.162 327.031C364.509 327.031 364.818 327.105 365.09 327.255C365.362 327.399 365.573 327.607 365.722 327.879C365.866 327.623 366.074 327.417 366.346 327.263C366.623 327.108 366.922 327.031 367.242 327.031ZM371.889 326.567C371.691 326.567 371.526 326.505 371.393 326.383C371.265 326.255 371.201 326.097 371.201 325.911C371.201 325.724 371.265 325.569 371.393 325.447C371.526 325.319 371.691 325.255 371.889 325.255C372.086 325.255 372.249 325.319 372.377 325.447C372.51 325.569 372.577 325.724 372.577 325.911C372.577 326.097 372.51 326.255 372.377 326.383C372.249 326.505 372.086 326.567 371.889 326.567ZM372.441 327.095V331.527H371.321V327.095H372.441ZM376.443 331.599C376.081 331.599 375.755 331.535 375.467 331.407C375.179 331.273 374.95 331.095 374.779 330.871C374.614 330.647 374.523 330.399 374.507 330.127H375.635C375.657 330.297 375.739 330.439 375.883 330.551C376.033 330.663 376.217 330.719 376.435 330.719C376.649 330.719 376.814 330.676 376.931 330.591C377.054 330.505 377.115 330.396 377.115 330.263C377.115 330.119 377.041 330.012 376.891 329.943C376.747 329.868 376.515 329.788 376.195 329.703C375.865 329.623 375.593 329.54 375.379 329.455C375.171 329.369 374.99 329.239 374.835 329.063C374.686 328.887 374.611 328.649 374.611 328.351C374.611 328.105 374.681 327.881 374.819 327.679C374.963 327.476 375.166 327.316 375.427 327.199C375.694 327.081 376.006 327.023 376.363 327.023C376.891 327.023 377.313 327.156 377.627 327.423C377.942 327.684 378.115 328.039 378.147 328.487H377.075C377.059 328.311 376.985 328.172 376.851 328.071C376.723 327.964 376.55 327.911 376.331 327.911C376.129 327.911 375.971 327.948 375.859 328.023C375.753 328.097 375.699 328.201 375.699 328.335C375.699 328.484 375.774 328.599 375.923 328.679C376.073 328.753 376.305 328.831 376.619 328.911C376.939 328.991 377.203 329.073 377.411 329.159C377.619 329.244 377.798 329.377 377.947 329.559C378.102 329.735 378.182 329.969 378.187 330.263C378.187 330.519 378.115 330.748 377.971 330.951C377.833 331.153 377.63 331.313 377.363 331.431C377.102 331.543 376.795 331.599 376.443 331.599ZM382.003 331.599C381.64 331.599 381.315 331.535 381.027 331.407C380.739 331.273 380.509 331.095 380.339 330.871C380.173 330.647 380.083 330.399 380.067 330.127H381.195C381.216 330.297 381.299 330.439 381.443 330.551C381.592 330.663 381.776 330.719 381.995 330.719C382.208 330.719 382.373 330.676 382.491 330.591C382.613 330.505 382.675 330.396 382.675 330.263C382.675 330.119 382.6 330.012 382.451 329.943C382.307 329.868 382.075 329.788 381.755 329.703C381.424 329.623 381.152 329.54 380.939 329.455C380.731 329.369 380.549 329.239 380.395 329.063C380.245 328.887 380.171 328.649 380.171 328.351C380.171 328.105 380.24 327.881 380.379 327.679C380.523 327.476 380.725 327.316 380.987 327.199C381.253 327.081 381.565 327.023 381.923 327.023C382.451 327.023 382.872 327.156 383.187 327.423C383.501 327.684 383.675 328.039 383.707 328.487H382.635C382.619 328.311 382.544 328.172 382.411 328.071C382.283 327.964 382.109 327.911 381.891 327.911C381.688 327.911 381.531 327.948 381.419 328.023C381.312 328.097 381.259 328.201 381.259 328.335C381.259 328.484 381.333 328.599 381.483 328.679C381.632 328.753 381.864 328.831 382.179 328.911C382.499 328.991 382.763 329.073 382.971 329.159C383.179 329.244 383.357 329.377 383.507 329.559C383.661 329.735 383.741 329.969 383.747 330.263C383.747 330.519 383.675 330.748 383.531 330.951C383.392 331.153 383.189 331.313 382.923 331.431C382.661 331.543 382.355 331.599 382.003 331.599ZM386.434 326.567C386.237 326.567 386.071 326.505 385.938 326.383C385.81 326.255 385.746 326.097 385.746 325.911C385.746 325.724 385.81 325.569 385.938 325.447C386.071 325.319 386.237 325.255 386.434 325.255C386.631 325.255 386.794 325.319 386.922 325.447C387.055 325.569 387.122 325.724 387.122 325.911C387.122 326.097 387.055 326.255 386.922 326.383C386.794 326.505 386.631 326.567 386.434 326.567ZM386.986 327.095V331.527H385.866V327.095H386.986ZM391.261 331.599C390.834 331.599 390.45 331.505 390.109 331.319C389.767 331.127 389.498 330.857 389.301 330.511C389.109 330.164 389.013 329.764 389.013 329.311C389.013 328.857 389.111 328.457 389.309 328.111C389.511 327.764 389.786 327.497 390.133 327.311C390.479 327.119 390.866 327.023 391.293 327.023C391.719 327.023 392.106 327.119 392.453 327.311C392.799 327.497 393.071 327.764 393.269 328.111C393.471 328.457 393.573 328.857 393.573 329.311C393.573 329.764 393.469 330.164 393.261 330.511C393.058 330.857 392.781 331.127 392.429 331.319C392.082 331.505 391.693 331.599 391.261 331.599ZM391.261 330.623C391.463 330.623 391.653 330.575 391.829 330.479C392.01 330.377 392.154 330.228 392.261 330.031C392.367 329.833 392.421 329.593 392.421 329.311C392.421 328.889 392.309 328.567 392.085 328.343C391.866 328.113 391.597 327.999 391.277 327.999C390.957 327.999 390.687 328.113 390.469 328.343C390.255 328.567 390.149 328.889 390.149 329.311C390.149 329.732 390.253 330.057 390.461 330.287C390.674 330.511 390.941 330.623 391.261 330.623ZM398.05 327.031C398.578 327.031 399.005 327.199 399.33 327.535C399.656 327.865 399.818 328.329 399.818 328.927V331.527H398.698V329.079C398.698 328.727 398.61 328.457 398.434 328.271C398.258 328.079 398.018 327.983 397.714 327.983C397.405 327.983 397.16 328.079 396.978 328.271C396.802 328.457 396.714 328.727 396.714 329.079V331.527H395.594V327.095H396.714V327.647C396.864 327.455 397.053 327.305 397.282 327.199C397.517 327.087 397.773 327.031 398.05 327.031Z" fill="#596773"/>
<path d="M184.29 432.961L182.75 430.241H182.09V432.961H180.69V425.981H183.31C183.85 425.981 184.31 426.078 184.69 426.271C185.07 426.458 185.353 426.714 185.54 427.041C185.733 427.361 185.83 427.721 185.83 428.121C185.83 428.581 185.697 428.998 185.43 429.371C185.163 429.738 184.767 429.991 184.24 430.131L185.91 432.961H184.29ZM182.09 429.191H183.26C183.64 429.191 183.923 429.101 184.11 428.921C184.297 428.734 184.39 428.478 184.39 428.151C184.39 427.831 184.297 427.584 184.11 427.411C183.923 427.231 183.64 427.141 183.26 427.141H182.09V429.191ZM193.746 430.071C193.746 430.271 193.733 430.451 193.706 430.611H189.656C189.69 431.011 189.83 431.324 190.076 431.551C190.323 431.778 190.626 431.891 190.986 431.891C191.506 431.891 191.876 431.668 192.096 431.221H193.606C193.446 431.754 193.14 432.194 192.686 432.541C192.233 432.881 191.676 433.051 191.016 433.051C190.483 433.051 190.003 432.934 189.576 432.701C189.156 432.461 188.826 432.124 188.586 431.691C188.353 431.258 188.236 430.758 188.236 430.191C188.236 429.618 188.353 429.114 188.586 428.681C188.82 428.248 189.146 427.914 189.566 427.681C189.986 427.448 190.47 427.331 191.016 427.331C191.543 427.331 192.013 427.444 192.426 427.671C192.846 427.898 193.17 428.221 193.396 428.641C193.63 429.054 193.746 429.531 193.746 430.071ZM192.296 429.671C192.29 429.311 192.16 429.024 191.906 428.811C191.653 428.591 191.343 428.481 190.976 428.481C190.63 428.481 190.336 428.588 190.096 428.801C189.863 429.008 189.72 429.298 189.666 429.671H192.296ZM199.338 427.341C199.998 427.341 200.531 427.551 200.938 427.971C201.345 428.384 201.548 428.964 201.548 429.711V432.961H200.148V429.901C200.148 429.461 200.038 429.124 199.818 428.891C199.598 428.651 199.298 428.531 198.918 428.531C198.531 428.531 198.225 428.651 197.998 428.891C197.778 429.124 197.668 429.461 197.668 429.901V432.961H196.268V427.421H197.668V428.111C197.855 427.871 198.091 427.684 198.378 427.551C198.671 427.411 198.991 427.341 199.338 427.341ZM204.019 430.191C204.019 429.618 204.136 429.118 204.369 428.691C204.603 428.258 204.926 427.924 205.339 427.691C205.753 427.451 206.226 427.331 206.759 427.331C207.446 427.331 208.013 427.504 208.459 427.851C208.913 428.191 209.216 428.671 209.369 429.291H207.859C207.779 429.051 207.643 428.864 207.449 428.731C207.263 428.591 207.029 428.521 206.749 428.521C206.349 428.521 206.033 428.668 205.799 428.961C205.566 429.248 205.449 429.658 205.449 430.191C205.449 430.718 205.566 431.128 205.799 431.421C206.033 431.708 206.349 431.851 206.749 431.851C207.316 431.851 207.686 431.598 207.859 431.091H209.369C209.216 431.691 208.913 432.168 208.459 432.521C208.006 432.874 207.439 433.051 206.759 433.051C206.226 433.051 205.753 432.934 205.339 432.701C204.926 432.461 204.603 432.128 204.369 431.701C204.136 431.268 204.019 430.764 204.019 430.191ZM211.535 430.171C211.535 429.611 211.645 429.114 211.865 428.681C212.092 428.248 212.395 427.914 212.775 427.681C213.162 427.448 213.592 427.331 214.065 427.331C214.478 427.331 214.838 427.414 215.145 427.581C215.458 427.748 215.708 427.958 215.895 428.211V427.421H217.305V432.961H215.895V432.151C215.715 432.411 215.465 432.628 215.145 432.801C214.832 432.968 214.468 433.051 214.055 433.051C213.588 433.051 213.162 432.931 212.775 432.691C212.395 432.451 212.092 432.114 211.865 431.681C211.645 431.241 211.535 430.738 211.535 430.171ZM215.895 430.191C215.895 429.851 215.828 429.561 215.695 429.321C215.562 429.074 215.382 428.888 215.155 428.761C214.928 428.628 214.685 428.561 214.425 428.561C214.165 428.561 213.925 428.624 213.705 428.751C213.485 428.878 213.305 429.064 213.165 429.311C213.032 429.551 212.965 429.838 212.965 430.171C212.965 430.504 213.032 430.798 213.165 431.051C213.305 431.298 213.485 431.488 213.705 431.621C213.932 431.754 214.172 431.821 214.425 431.821C214.685 431.821 214.928 431.758 215.155 431.631C215.382 431.498 215.562 431.311 215.695 431.071C215.828 430.824 215.895 430.531 215.895 430.191ZM223.242 427.341C223.902 427.341 224.436 427.551 224.842 427.971C225.249 428.384 225.452 428.964 225.452 429.711V432.961H224.052V429.901C224.052 429.461 223.942 429.124 223.722 428.891C223.502 428.651 223.202 428.531 222.822 428.531C222.436 428.531 222.129 428.651 221.902 428.891C221.682 429.124 221.572 429.461 221.572 429.901V432.961H220.172V427.421H221.572V428.111C221.759 427.871 221.996 427.684 222.282 427.551C222.576 427.411 222.896 427.341 223.242 427.341ZM227.924 430.171C227.924 429.611 228.034 429.114 228.254 428.681C228.48 428.248 228.784 427.914 229.164 427.681C229.55 427.448 229.98 427.331 230.454 427.331C230.867 427.331 231.227 427.414 231.534 427.581C231.847 427.748 232.097 427.958 232.284 428.211V427.421H233.694V432.961H232.284V432.151C232.104 432.411 231.854 432.628 231.534 432.801C231.22 432.968 230.857 433.051 230.444 433.051C229.977 433.051 229.55 432.931 229.164 432.691C228.784 432.451 228.48 432.114 228.254 431.681C228.034 431.241 227.924 430.738 227.924 430.171ZM232.284 430.191C232.284 429.851 232.217 429.561 232.084 429.321C231.95 429.074 231.77 428.888 231.544 428.761C231.317 428.628 231.074 428.561 230.814 428.561C230.554 428.561 230.314 428.624 230.094 428.751C229.874 428.878 229.694 429.064 229.554 429.311C229.42 429.551 229.354 429.838 229.354 430.171C229.354 430.504 229.42 430.798 229.554 431.051C229.694 431.298 229.874 431.488 230.094 431.621C230.32 431.754 230.56 431.821 230.814 431.821C231.074 431.821 231.317 431.758 231.544 431.631C231.77 431.498 231.95 431.311 232.084 431.071C232.217 430.824 232.284 430.531 232.284 430.191ZM239.841 432.961L237.961 430.601V432.961H236.561V425.561H237.961V429.771L239.821 427.421H241.641L239.201 430.201L241.661 432.961H239.841ZM243.541 430.171C243.541 429.611 243.651 429.114 243.871 428.681C244.098 428.248 244.401 427.914 244.781 427.681C245.168 427.448 245.598 427.331 246.071 427.331C246.484 427.331 246.844 427.414 247.151 427.581C247.464 427.748 247.714 427.958 247.901 428.211V427.421H249.311V432.961H247.901V432.151C247.721 432.411 247.471 432.628 247.151 432.801C246.838 432.968 246.474 433.051 246.061 433.051C245.594 433.051 245.168 432.931 244.781 432.691C244.401 432.451 244.098 432.114 243.871 431.681C243.651 431.241 243.541 430.738 243.541 430.171ZM247.901 430.191C247.901 429.851 247.834 429.561 247.701 429.321C247.568 429.074 247.388 428.888 247.161 428.761C246.934 428.628 246.691 428.561 246.431 428.561C246.171 428.561 245.931 428.624 245.711 428.751C245.491 428.878 245.311 429.064 245.171 429.311C245.038 429.551 244.971 429.838 244.971 430.171C244.971 430.504 245.038 430.798 245.171 431.051C245.311 431.298 245.491 431.488 245.711 431.621C245.938 431.754 246.178 431.821 246.431 431.821C246.691 431.821 246.934 431.758 247.161 431.631C247.388 431.498 247.568 431.311 247.701 431.071C247.834 430.824 247.901 430.531 247.901 430.191ZM255.248 427.341C255.908 427.341 256.442 427.551 256.848 427.971C257.255 428.384 257.458 428.964 257.458 429.711V432.961H256.058V429.901C256.058 429.461 255.948 429.124 255.728 428.891C255.508 428.651 255.208 428.531 254.828 428.531C254.442 428.531 254.135 428.651 253.908 428.891C253.688 429.124 253.578 429.461 253.578 429.901V432.961H252.178V427.421H253.578V428.111C253.765 427.871 254.002 427.684 254.288 427.551C254.582 427.411 254.902 427.341 255.248 427.341ZM183.1 448.031C182.613 448.031 182.173 447.948 181.78 447.781C181.393 447.614 181.087 447.374 180.86 447.061C180.633 446.748 180.517 446.378 180.51 445.951H182.01C182.03 446.238 182.13 446.464 182.31 446.631C182.497 446.798 182.75 446.881 183.07 446.881C183.397 446.881 183.653 446.804 183.84 446.651C184.027 446.491 184.12 446.284 184.12 446.031C184.12 445.824 184.057 445.654 183.93 445.521C183.803 445.388 183.643 445.284 183.45 445.211C183.263 445.131 183.003 445.044 182.67 444.951C182.217 444.818 181.847 444.688 181.56 444.561C181.28 444.428 181.037 444.231 180.83 443.971C180.63 443.704 180.53 443.351 180.53 442.911C180.53 442.498 180.633 442.138 180.84 441.831C181.047 441.524 181.337 441.291 181.71 441.131C182.083 440.964 182.51 440.881 182.99 440.881C183.71 440.881 184.293 441.058 184.74 441.411C185.193 441.758 185.443 442.244 185.49 442.871H183.95C183.937 442.631 183.833 442.434 183.64 442.281C183.453 442.121 183.203 442.041 182.89 442.041C182.617 442.041 182.397 442.111 182.23 442.251C182.07 442.391 181.99 442.594 181.99 442.861C181.99 443.048 182.05 443.204 182.17 443.331C182.297 443.451 182.45 443.551 182.63 443.631C182.817 443.704 183.077 443.791 183.41 443.891C183.863 444.024 184.233 444.158 184.52 444.291C184.807 444.424 185.053 444.624 185.26 444.891C185.467 445.158 185.57 445.508 185.57 445.941C185.57 446.314 185.473 446.661 185.28 446.981C185.087 447.301 184.803 447.558 184.43 447.751C184.057 447.938 183.613 448.031 183.1 448.031ZM189.914 443.571V446.251C189.914 446.438 189.957 446.574 190.044 446.661C190.137 446.741 190.29 446.781 190.504 446.781H191.154V447.961H190.274C189.094 447.961 188.504 447.388 188.504 446.241V443.571H187.844V442.421H188.504V441.051H189.914V442.421H191.154V443.571H189.914ZM195.061 443.281C195.241 442.988 195.474 442.758 195.761 442.591C196.054 442.424 196.387 442.341 196.761 442.341V443.811H196.391C195.951 443.811 195.617 443.914 195.391 444.121C195.171 444.328 195.061 444.688 195.061 445.201V447.961H193.661V442.421H195.061V443.281ZM198.844 445.171C198.844 444.611 198.954 444.114 199.174 443.681C199.4 443.248 199.704 442.914 200.084 442.681C200.47 442.448 200.9 442.331 201.374 442.331C201.787 442.331 202.147 442.414 202.454 442.581C202.767 442.748 203.017 442.958 203.204 443.211V442.421H204.614V447.961H203.204V447.151C203.024 447.411 202.774 447.628 202.454 447.801C202.14 447.968 201.777 448.051 201.364 448.051C200.897 448.051 200.47 447.931 200.084 447.691C199.704 447.451 199.4 447.114 199.174 446.681C198.954 446.241 198.844 445.738 198.844 445.171ZM203.204 445.191C203.204 444.851 203.137 444.561 203.004 444.321C202.87 444.074 202.69 443.888 202.464 443.761C202.237 443.628 201.994 443.561 201.734 443.561C201.474 443.561 201.234 443.624 201.014 443.751C200.794 443.878 200.614 444.064 200.474 444.311C200.34 444.551 200.274 444.838 200.274 445.171C200.274 445.504 200.34 445.798 200.474 446.051C200.614 446.298 200.794 446.488 201.014 446.621C201.24 446.754 201.48 446.821 201.734 446.821C201.994 446.821 202.237 446.758 202.464 446.631C202.69 446.498 202.87 446.311 203.004 446.071C203.137 445.824 203.204 445.531 203.204 445.191ZM209.111 443.571V446.251C209.111 446.438 209.154 446.574 209.241 446.661C209.334 446.741 209.488 446.781 209.701 446.781H210.351V447.961H209.471C208.291 447.961 207.701 447.388 207.701 446.241V443.571H207.041V442.421H207.701V441.051H209.111V442.421H210.351V443.571H209.111ZM218.008 445.071C218.008 445.271 217.995 445.451 217.968 445.611H213.918C213.951 446.011 214.091 446.324 214.338 446.551C214.585 446.778 214.888 446.891 215.248 446.891C215.768 446.891 216.138 446.668 216.358 446.221H217.868C217.708 446.754 217.401 447.194 216.948 447.541C216.495 447.881 215.938 448.051 215.278 448.051C214.745 448.051 214.265 447.934 213.838 447.701C213.418 447.461 213.088 447.124 212.848 446.691C212.615 446.258 212.498 445.758 212.498 445.191C212.498 444.618 212.615 444.114 212.848 443.681C213.081 443.248 213.408 442.914 213.828 442.681C214.248 442.448 214.731 442.331 215.278 442.331C215.805 442.331 216.275 442.444 216.688 442.671C217.108 442.898 217.431 443.221 217.658 443.641C217.891 444.054 218.008 444.531 218.008 445.071ZM216.558 444.671C216.551 444.311 216.421 444.024 216.168 443.811C215.915 443.591 215.605 443.481 215.238 443.481C214.891 443.481 214.598 443.588 214.358 443.801C214.125 444.008 213.981 444.298 213.928 444.671H216.558ZM222.7 442.331C223.113 442.331 223.477 442.414 223.79 442.581C224.103 442.741 224.35 442.951 224.53 443.211V442.421H225.94V448.001C225.94 448.514 225.837 448.971 225.63 449.371C225.423 449.778 225.113 450.098 224.7 450.331C224.287 450.571 223.787 450.691 223.2 450.691C222.413 450.691 221.767 450.508 221.26 450.141C220.76 449.774 220.477 449.274 220.41 448.641H221.8C221.873 448.894 222.03 449.094 222.27 449.241C222.517 449.394 222.813 449.471 223.16 449.471C223.567 449.471 223.897 449.348 224.15 449.101C224.403 448.861 224.53 448.494 224.53 448.001V447.141C224.35 447.401 224.1 447.618 223.78 447.791C223.467 447.964 223.107 448.051 222.7 448.051C222.233 448.051 221.807 447.931 221.42 447.691C221.033 447.451 220.727 447.114 220.5 446.681C220.28 446.241 220.17 445.738 220.17 445.171C220.17 444.611 220.28 444.114 220.5 443.681C220.727 443.248 221.03 442.914 221.41 442.681C221.797 442.448 222.227 442.331 222.7 442.331ZM224.53 445.191C224.53 444.851 224.463 444.561 224.33 444.321C224.197 444.074 224.017 443.888 223.79 443.761C223.563 443.628 223.32 443.561 223.06 443.561C222.8 443.561 222.56 443.624 222.34 443.751C222.12 443.878 221.94 444.064 221.8 444.311C221.667 444.551 221.6 444.838 221.6 445.171C221.6 445.504 221.667 445.798 221.8 446.051C221.94 446.298 222.12 446.488 222.34 446.621C222.567 446.754 222.807 446.821 223.06 446.821C223.32 446.821 223.563 446.758 223.79 446.631C224.017 446.498 224.197 446.311 224.33 446.071C224.463 445.824 224.53 445.531 224.53 445.191ZM229.517 441.761C229.271 441.761 229.064 441.684 228.897 441.531C228.737 441.371 228.657 441.174 228.657 440.941C228.657 440.708 228.737 440.514 228.897 440.361C229.064 440.201 229.271 440.121 229.517 440.121C229.764 440.121 229.967 440.201 230.127 440.361C230.294 440.514 230.377 440.708 230.377 440.941C230.377 441.174 230.294 441.371 230.127 441.531C229.967 441.684 229.764 441.761 229.517 441.761ZM230.207 442.421V447.961H228.807V442.421H230.207ZM185.78 458.141C185.78 458.514 185.69 458.864 185.51 459.191C185.337 459.518 185.06 459.781 184.68 459.981C184.307 460.181 183.833 460.281 183.26 460.281H182.09V462.961H180.69V455.981H183.26C183.8 455.981 184.26 456.074 184.64 456.261C185.02 456.448 185.303 456.704 185.49 457.031C185.683 457.358 185.78 457.728 185.78 458.141ZM183.2 459.151C183.587 459.151 183.873 459.064 184.06 458.891C184.247 458.711 184.34 458.461 184.34 458.141C184.34 457.461 183.96 457.121 183.2 457.121H182.09V459.151H183.2ZM193.424 460.071C193.424 460.271 193.411 460.451 193.384 460.611H189.334C189.367 461.011 189.507 461.324 189.754 461.551C190.001 461.778 190.304 461.891 190.664 461.891C191.184 461.891 191.554 461.668 191.774 461.221H193.284C193.124 461.754 192.817 462.194 192.364 462.541C191.911 462.881 191.354 463.051 190.694 463.051C190.161 463.051 189.681 462.934 189.254 462.701C188.834 462.461 188.504 462.124 188.264 461.691C188.031 461.258 187.914 460.758 187.914 460.191C187.914 459.618 188.031 459.114 188.264 458.681C188.497 458.248 188.824 457.914 189.244 457.681C189.664 457.448 190.147 457.331 190.694 457.331C191.221 457.331 191.691 457.444 192.104 457.671C192.524 457.898 192.847 458.221 193.074 458.641C193.307 459.054 193.424 459.531 193.424 460.071ZM191.974 459.671C191.967 459.311 191.837 459.024 191.584 458.811C191.331 458.591 191.021 458.481 190.654 458.481C190.307 458.481 190.014 458.588 189.774 458.801C189.541 459.008 189.397 459.298 189.344 459.671H191.974ZM202.826 457.341C203.506 457.341 204.053 457.551 204.466 457.971C204.886 458.384 205.096 458.964 205.096 459.711V462.961H203.696V459.901C203.696 459.468 203.586 459.138 203.366 458.911C203.146 458.678 202.846 458.561 202.466 458.561C202.086 458.561 201.783 458.678 201.556 458.911C201.336 459.138 201.226 459.468 201.226 459.901V462.961H199.826V459.901C199.826 459.468 199.716 459.138 199.496 458.911C199.276 458.678 198.976 458.561 198.596 458.561C198.209 458.561 197.903 458.678 197.676 458.911C197.456 459.138 197.346 459.468 197.346 459.901V462.961H195.946V457.421H197.346V458.091C197.526 457.858 197.756 457.674 198.036 457.541C198.323 457.408 198.636 457.341 198.976 457.341C199.409 457.341 199.796 457.434 200.136 457.621C200.476 457.801 200.739 458.061 200.926 458.401C201.106 458.081 201.366 457.824 201.706 457.631C202.053 457.438 202.426 457.341 202.826 457.341ZM209.324 458.231C209.504 457.964 209.751 457.748 210.064 457.581C210.384 457.414 210.748 457.331 211.154 457.331C211.628 457.331 212.054 457.448 212.434 457.681C212.821 457.914 213.124 458.248 213.344 458.681C213.571 459.108 213.684 459.604 213.684 460.171C213.684 460.738 213.571 461.241 213.344 461.681C213.124 462.114 212.821 462.451 212.434 462.691C212.054 462.931 211.628 463.051 211.154 463.051C210.741 463.051 210.378 462.971 210.064 462.811C209.758 462.644 209.511 462.431 209.324 462.171V462.961H207.924V455.561H209.324V458.231ZM212.254 460.171C212.254 459.838 212.184 459.551 212.044 459.311C211.911 459.064 211.731 458.878 211.504 458.751C211.284 458.624 211.044 458.561 210.784 458.561C210.531 458.561 210.291 458.628 210.064 458.761C209.844 458.888 209.664 459.074 209.524 459.321C209.391 459.568 209.324 459.858 209.324 460.191C209.324 460.524 209.391 460.814 209.524 461.061C209.664 461.308 209.844 461.498 210.064 461.631C210.291 461.758 210.531 461.821 210.784 461.821C211.044 461.821 211.284 461.754 211.504 461.621C211.731 461.488 211.911 461.298 212.044 461.051C212.184 460.804 212.254 460.511 212.254 460.171ZM215.842 460.171C215.842 459.611 215.952 459.114 216.172 458.681C216.398 458.248 216.702 457.914 217.082 457.681C217.468 457.448 217.898 457.331 218.372 457.331C218.785 457.331 219.145 457.414 219.452 457.581C219.765 457.748 220.015 457.958 220.202 458.211V457.421H221.612V462.961H220.202V462.151C220.022 462.411 219.772 462.628 219.452 462.801C219.138 462.968 218.775 463.051 218.362 463.051C217.895 463.051 217.468 462.931 217.082 462.691C216.702 462.451 216.398 462.114 216.172 461.681C215.952 461.241 215.842 460.738 215.842 460.171ZM220.202 460.191C220.202 459.851 220.135 459.561 220.002 459.321C219.868 459.074 219.688 458.888 219.462 458.761C219.235 458.628 218.992 458.561 218.732 458.561C218.472 458.561 218.232 458.624 218.012 458.751C217.792 458.878 217.612 459.064 217.472 459.311C217.338 459.551 217.272 459.838 217.272 460.171C217.272 460.504 217.338 460.798 217.472 461.051C217.612 461.298 217.792 461.488 218.012 461.621C218.238 461.754 218.478 461.821 218.732 461.821C218.992 461.821 219.235 461.758 219.462 461.631C219.688 461.498 219.868 461.311 220.002 461.071C220.135 460.824 220.202 460.531 220.202 460.191ZM229.779 457.421L226.349 465.581H224.859L226.059 462.821L223.839 457.421H225.409L226.839 461.291L228.289 457.421H229.779ZM231.674 460.171C231.674 459.611 231.784 459.114 232.004 458.681C232.23 458.248 232.534 457.914 232.914 457.681C233.3 457.448 233.73 457.331 234.204 457.331C234.617 457.331 234.977 457.414 235.284 457.581C235.597 457.748 235.847 457.958 236.034 458.211V457.421H237.444V462.961H236.034V462.151C235.854 462.411 235.604 462.628 235.284 462.801C234.97 462.968 234.607 463.051 234.194 463.051C233.727 463.051 233.3 462.931 232.914 462.691C232.534 462.451 232.23 462.114 232.004 461.681C231.784 461.241 231.674 460.738 231.674 460.171ZM236.034 460.191C236.034 459.851 235.967 459.561 235.834 459.321C235.7 459.074 235.52 458.888 235.294 458.761C235.067 458.628 234.824 458.561 234.564 458.561C234.304 458.561 234.064 458.624 233.844 458.751C233.624 458.878 233.444 459.064 233.304 459.311C233.17 459.551 233.104 459.838 233.104 460.171C233.104 460.504 233.17 460.798 233.304 461.051C233.444 461.298 233.624 461.488 233.844 461.621C234.07 461.754 234.31 461.821 234.564 461.821C234.824 461.821 235.067 461.758 235.294 461.631C235.52 461.498 235.7 461.311 235.834 461.071C235.967 460.824 236.034 460.531 236.034 460.191ZM241.711 458.281C241.891 457.988 242.124 457.758 242.411 457.591C242.704 457.424 243.038 457.341 243.411 457.341V458.811H243.041C242.601 458.811 242.268 458.914 242.041 459.121C241.821 459.328 241.711 459.688 241.711 460.201V462.961H240.311V457.421H241.711V458.281ZM245.494 460.171C245.494 459.611 245.604 459.114 245.824 458.681C246.051 458.248 246.354 457.914 246.734 457.681C247.121 457.448 247.551 457.331 248.024 457.331C248.437 457.331 248.797 457.414 249.104 457.581C249.417 457.748 249.667 457.958 249.854 458.211V457.421H251.264V462.961H249.854V462.151C249.674 462.411 249.424 462.628 249.104 462.801C248.791 462.968 248.427 463.051 248.014 463.051C247.547 463.051 247.121 462.931 246.734 462.691C246.354 462.451 246.051 462.114 245.824 461.681C245.604 461.241 245.494 460.738 245.494 460.171ZM249.854 460.191C249.854 459.851 249.787 459.561 249.654 459.321C249.521 459.074 249.341 458.888 249.114 458.761C248.887 458.628 248.644 458.561 248.384 458.561C248.124 458.561 247.884 458.624 247.664 458.751C247.444 458.878 247.264 459.064 247.124 459.311C246.991 459.551 246.924 459.838 246.924 460.171C246.924 460.504 246.991 460.798 247.124 461.051C247.264 461.298 247.444 461.488 247.664 461.621C247.891 461.754 248.131 461.821 248.384 461.821C248.644 461.821 248.887 461.758 249.114 461.631C249.341 461.498 249.521 461.311 249.654 461.071C249.787 460.824 249.854 460.531 249.854 460.191ZM257.201 457.341C257.861 457.341 258.395 457.551 258.801 457.971C259.208 458.384 259.411 458.964 259.411 459.711V462.961H258.011V459.901C258.011 459.461 257.901 459.124 257.681 458.891C257.461 458.651 257.161 458.531 256.781 458.531C256.395 458.531 256.088 458.651 255.861 458.891C255.641 459.124 255.531 459.461 255.531 459.901V462.961H254.131V457.421H255.531V458.111C255.718 457.871 255.955 457.684 256.241 457.551C256.535 457.411 256.855 457.341 257.201 457.341Z" fill="#596773"/>
<g filter="url(#filter3_d_0:1)">
<rect x="180" y="312.38" width="82" height="97.4049" fill="white"/>
<rect x="180.5" y="312.88" width="81" height="96.4049" stroke="#50B9AB"/>
</g>
<ellipse cx="190.658" cy="342.925" rx="2.21477" ry="2.13482" fill="#8AD0C7"/>
<rect x="199.96" y="340.79" width="54.0403" height="4.26963" fill="#8AD0C7"/>
<ellipse cx="190.215" cy="370.32" rx="2.21477" ry="2.13482" fill="#8AD0C7"/>
<rect x="199.517" y="368.185" width="54.0403" height="4.26963" fill="#8AD0C7"/>
<ellipse cx="190.436" cy="388.543" rx="2.21477" ry="2.13482" fill="#8AD0C7"/>
<rect x="199.517" y="386.408" width="54.0403" height="4.26963" fill="#8AD0C7"/>
<ellipse cx="190.658" cy="351.914" rx="2.21477" ry="2.13482" fill="#8AD0C7"/>
<rect x="199.96" y="349.779" width="54.0403" height="4.26963" fill="#8AD0C7"/>
<ellipse cx="190.658" cy="360.902" rx="2.21477" ry="2.13482" fill="#8AD0C7"/>
<rect x="199.96" y="358.768" width="54.0403" height="4.26963" fill="#8AD0C7"/>
<ellipse cx="190.658" cy="379.554" rx="2.21477" ry="2.13482" fill="#8AD0C7"/>
<rect x="199.738" y="377.419" width="54.0403" height="4.26963" fill="#8AD0C7"/>
<path d="M201.908 327.671C201.908 327.969 201.836 328.249 201.692 328.511C201.554 328.772 201.332 328.983 201.028 329.143C200.73 329.303 200.351 329.383 199.892 329.383H198.956V331.527H197.836V325.943H199.892C200.324 325.943 200.692 326.017 200.996 326.167C201.3 326.316 201.527 326.521 201.676 326.783C201.831 327.044 201.908 327.34 201.908 327.671ZM199.844 328.479C200.154 328.479 200.383 328.409 200.532 328.271C200.682 328.127 200.756 327.927 200.756 327.671C200.756 327.127 200.452 326.855 199.844 326.855H198.956V328.479H199.844ZM205.024 325.607V331.527H203.904V325.607H205.024ZM207.042 329.295C207.042 328.847 207.13 328.449 207.306 328.103C207.487 327.756 207.73 327.489 208.034 327.303C208.343 327.116 208.687 327.023 209.066 327.023C209.397 327.023 209.685 327.089 209.93 327.223C210.181 327.356 210.381 327.524 210.53 327.727V327.095H211.658V331.527H210.53V330.879C210.386 331.087 210.186 331.26 209.93 331.399C209.679 331.532 209.389 331.599 209.058 331.599C208.685 331.599 208.343 331.503 208.034 331.311C207.73 331.119 207.487 330.849 207.306 330.503C207.13 330.151 207.042 329.748 207.042 329.295ZM210.53 329.311C210.53 329.039 210.477 328.807 210.37 328.615C210.263 328.417 210.119 328.268 209.938 328.167C209.757 328.06 209.562 328.007 209.354 328.007C209.146 328.007 208.954 328.057 208.778 328.159C208.602 328.26 208.458 328.409 208.346 328.607C208.239 328.799 208.186 329.028 208.186 329.295C208.186 329.561 208.239 329.796 208.346 329.999C208.458 330.196 208.602 330.348 208.778 330.455C208.959 330.561 209.151 330.615 209.354 330.615C209.562 330.615 209.757 330.564 209.938 330.463C210.119 330.356 210.263 330.207 210.37 330.015C210.477 329.817 210.53 329.583 210.53 329.311ZM216.408 327.031C216.936 327.031 217.363 327.199 217.688 327.535C218.013 327.865 218.176 328.329 218.176 328.927V331.527H217.056V329.079C217.056 328.727 216.968 328.457 216.792 328.271C216.616 328.079 216.376 327.983 216.072 327.983C215.763 327.983 215.517 328.079 215.336 328.271C215.16 328.457 215.072 328.727 215.072 329.079V331.527H213.952V327.095H215.072V327.647C215.221 327.455 215.411 327.305 215.64 327.199C215.875 327.087 216.131 327.031 216.408 327.031ZM222.897 327.031C223.425 327.031 223.852 327.199 224.177 327.535C224.502 327.865 224.665 328.329 224.665 328.927V331.527H223.545V329.079C223.545 328.727 223.457 328.457 223.281 328.271C223.105 328.079 222.865 327.983 222.561 327.983C222.252 327.983 222.006 328.079 221.825 328.271C221.649 328.457 221.561 328.727 221.561 329.079V331.527H220.441V327.095H221.561V327.647C221.71 327.455 221.9 327.305 222.129 327.199C222.364 327.087 222.62 327.031 222.897 327.031ZM227.498 326.567C227.301 326.567 227.135 326.505 227.002 326.383C226.874 326.255 226.81 326.097 226.81 325.911C226.81 325.724 226.874 325.569 227.002 325.447C227.135 325.319 227.301 325.255 227.498 325.255C227.695 325.255 227.858 325.319 227.986 325.447C228.119 325.569 228.186 325.724 228.186 325.911C228.186 326.097 228.119 326.255 227.986 326.383C227.858 326.505 227.695 326.567 227.498 326.567ZM228.05 327.095V331.527H226.93V327.095H228.05ZM232.813 327.031C233.341 327.031 233.767 327.199 234.093 327.535C234.418 327.865 234.581 328.329 234.581 328.927V331.527H233.461V329.079C233.461 328.727 233.373 328.457 233.197 328.271C233.021 328.079 232.781 327.983 232.477 327.983C232.167 327.983 231.922 328.079 231.741 328.271C231.565 328.457 231.477 328.727 231.477 329.079V331.527H230.357V327.095H231.477V327.647C231.626 327.455 231.815 327.305 232.045 327.199C232.279 327.087 232.535 327.031 232.813 327.031ZM238.582 327.023C238.912 327.023 239.203 327.089 239.454 327.223C239.704 327.351 239.902 327.519 240.046 327.727V327.095H241.174V331.559C241.174 331.969 241.091 332.335 240.926 332.655C240.76 332.98 240.512 333.236 240.182 333.423C239.851 333.615 239.451 333.711 238.982 333.711C238.352 333.711 237.835 333.564 237.43 333.271C237.03 332.977 236.803 332.577 236.75 332.071H237.862C237.92 332.273 238.046 332.433 238.238 332.551C238.435 332.673 238.672 332.735 238.95 332.735C239.275 332.735 239.539 332.636 239.742 332.439C239.944 332.247 240.046 331.953 240.046 331.559V330.871C239.902 331.079 239.702 331.252 239.446 331.391C239.195 331.529 238.907 331.599 238.582 331.599C238.208 331.599 237.867 331.503 237.558 331.311C237.248 331.119 237.003 330.849 236.822 330.503C236.646 330.151 236.558 329.748 236.558 329.295C236.558 328.847 236.646 328.449 236.822 328.103C237.003 327.756 237.246 327.489 237.55 327.303C237.859 327.116 238.203 327.023 238.582 327.023ZM240.046 329.311C240.046 329.039 239.992 328.807 239.886 328.615C239.779 328.417 239.635 328.268 239.454 328.167C239.272 328.06 239.078 328.007 238.87 328.007C238.662 328.007 238.47 328.057 238.294 328.159C238.118 328.26 237.974 328.409 237.862 328.607C237.755 328.799 237.702 329.028 237.702 329.295C237.702 329.561 237.755 329.796 237.862 329.999C237.974 330.196 238.118 330.348 238.294 330.455C238.475 330.561 238.667 330.615 238.87 330.615C239.078 330.615 239.272 330.564 239.454 330.463C239.635 330.356 239.779 330.207 239.886 330.015C239.992 329.817 240.046 329.583 240.046 329.311Z" fill="#596773"/>
<g filter="url(#filter4_d_0:1)">
<ellipse cx="511.5" cy="360.576" rx="41.5" ry="42.1073" fill="white"/>
<ellipse cx="511.5" cy="360.576" rx="41.5" ry="42.1073" stroke="#50B9AB"/>
</g>
<path d="M474.29 432.961L472.75 430.241H472.09V432.961H470.69V425.981H473.31C473.85 425.981 474.31 426.078 474.69 426.271C475.07 426.458 475.353 426.714 475.54 427.041C475.733 427.361 475.83 427.721 475.83 428.121C475.83 428.581 475.697 428.998 475.43 429.371C475.163 429.738 474.767 429.991 474.24 430.131L475.91 432.961H474.29ZM472.09 429.191H473.26C473.64 429.191 473.923 429.101 474.11 428.921C474.297 428.734 474.39 428.478 474.39 428.151C474.39 427.831 474.297 427.584 474.11 427.411C473.923 427.231 473.64 427.141 473.26 427.141H472.09V429.191ZM483.826 427.421V432.961H482.416V432.261C482.236 432.501 482 432.691 481.706 432.831C481.42 432.964 481.106 433.031 480.766 433.031C480.333 433.031 479.95 432.941 479.616 432.761C479.283 432.574 479.02 432.304 478.826 431.951C478.64 431.591 478.546 431.164 478.546 430.671V427.421H479.946V430.471C479.946 430.911 480.056 431.251 480.276 431.491C480.496 431.724 480.796 431.841 481.176 431.841C481.563 431.841 481.866 431.724 482.086 431.491C482.306 431.251 482.416 430.911 482.416 430.471V427.421H483.826ZM493.588 427.341C494.268 427.341 494.814 427.551 495.228 427.971C495.648 428.384 495.858 428.964 495.858 429.711V432.961H494.458V429.901C494.458 429.468 494.348 429.138 494.128 428.911C493.908 428.678 493.608 428.561 493.228 428.561C492.848 428.561 492.544 428.678 492.318 428.911C492.098 429.138 491.988 429.468 491.988 429.901V432.961H490.588V429.901C490.588 429.468 490.478 429.138 490.258 428.911C490.038 428.678 489.738 428.561 489.358 428.561C488.971 428.561 488.664 428.678 488.438 428.911C488.218 429.138 488.108 429.468 488.108 429.901V432.961H486.708V427.421H488.108V428.091C488.288 427.858 488.518 427.674 488.798 427.541C489.084 427.408 489.398 427.341 489.738 427.341C490.171 427.341 490.558 427.434 490.898 427.621C491.238 427.801 491.501 428.061 491.688 428.401C491.868 428.081 492.128 427.824 492.468 427.631C492.814 427.438 493.188 427.341 493.588 427.341ZM498.326 430.171C498.326 429.611 498.436 429.114 498.656 428.681C498.883 428.248 499.186 427.914 499.566 427.681C499.953 427.448 500.383 427.331 500.856 427.331C501.269 427.331 501.629 427.414 501.936 427.581C502.249 427.748 502.499 427.958 502.686 428.211V427.421H504.096V432.961H502.686V432.151C502.506 432.411 502.256 432.628 501.936 432.801C501.623 432.968 501.259 433.051 500.846 433.051C500.379 433.051 499.953 432.931 499.566 432.691C499.186 432.451 498.883 432.114 498.656 431.681C498.436 431.241 498.326 430.738 498.326 430.171ZM502.686 430.191C502.686 429.851 502.619 429.561 502.486 429.321C502.353 429.074 502.173 428.888 501.946 428.761C501.719 428.628 501.476 428.561 501.216 428.561C500.956 428.561 500.716 428.624 500.496 428.751C500.276 428.878 500.096 429.064 499.956 429.311C499.823 429.551 499.756 429.838 499.756 430.171C499.756 430.504 499.823 430.798 499.956 431.051C500.096 431.298 500.276 431.488 500.496 431.621C500.723 431.754 500.963 431.821 501.216 431.821C501.476 431.821 501.719 431.758 501.946 431.631C502.173 431.498 502.353 431.311 502.486 431.071C502.619 430.824 502.686 430.531 502.686 430.191ZM510.083 427.341C510.503 427.341 510.877 427.434 511.203 427.621C511.53 427.801 511.783 428.071 511.963 428.431C512.15 428.784 512.243 429.211 512.243 429.711V432.961H510.843V429.901C510.843 429.461 510.733 429.124 510.513 428.891C510.293 428.651 509.993 428.531 509.613 428.531C509.227 428.531 508.92 428.651 508.693 428.891C508.473 429.124 508.363 429.461 508.363 429.901V432.961H506.963V425.561H508.363V428.111C508.543 427.871 508.783 427.684 509.083 427.551C509.383 427.411 509.717 427.341 510.083 427.341ZM472.09 440.981V447.961H470.69V440.981H472.09ZM481.853 442.341C482.533 442.341 483.08 442.551 483.493 442.971C483.913 443.384 484.123 443.964 484.123 444.711V447.961H482.723V444.901C482.723 444.468 482.613 444.138 482.393 443.911C482.173 443.678 481.873 443.561 481.493 443.561C481.113 443.561 480.81 443.678 480.583 443.911C480.363 444.138 480.253 444.468 480.253 444.901V447.961H478.853V444.901C478.853 444.468 478.743 444.138 478.523 443.911C478.303 443.678 478.003 443.561 477.623 443.561C477.237 443.561 476.93 443.678 476.703 443.911C476.483 444.138 476.373 444.468 476.373 444.901V447.961H474.973V442.421H476.373V443.091C476.553 442.858 476.783 442.674 477.063 442.541C477.35 442.408 477.663 442.341 478.003 442.341C478.437 442.341 478.823 442.434 479.163 442.621C479.503 442.801 479.767 443.061 479.953 443.401C480.133 443.081 480.393 442.824 480.733 442.631C481.08 442.438 481.453 442.341 481.853 442.341ZM488.352 443.221C488.532 442.968 488.778 442.758 489.092 442.591C489.412 442.418 489.775 442.331 490.182 442.331C490.655 442.331 491.082 442.448 491.462 442.681C491.848 442.914 492.152 443.248 492.372 443.681C492.598 444.108 492.712 444.604 492.712 445.171C492.712 445.738 492.598 446.241 492.372 446.681C492.152 447.114 491.848 447.451 491.462 447.691C491.082 447.931 490.655 448.051 490.182 448.051C489.775 448.051 489.415 447.968 489.102 447.801C488.795 447.634 488.545 447.424 488.352 447.171V450.601H486.952V442.421H488.352V443.221ZM491.282 445.171C491.282 444.838 491.212 444.551 491.072 444.311C490.938 444.064 490.758 443.878 490.532 443.751C490.312 443.624 490.072 443.561 489.812 443.561C489.558 443.561 489.318 443.628 489.092 443.761C488.872 443.888 488.692 444.074 488.552 444.321C488.418 444.568 488.352 444.858 488.352 445.191C488.352 445.524 488.418 445.814 488.552 446.061C488.692 446.308 488.872 446.498 489.092 446.631C489.318 446.758 489.558 446.821 489.812 446.821C490.072 446.821 490.312 446.754 490.532 446.621C490.758 446.488 490.938 446.298 491.072 446.051C491.212 445.804 491.282 445.511 491.282 445.171ZM495.939 441.761C495.692 441.761 495.486 441.684 495.319 441.531C495.159 441.371 495.079 441.174 495.079 440.941C495.079 440.708 495.159 440.514 495.319 440.361C495.486 440.201 495.692 440.121 495.939 440.121C496.186 440.121 496.389 440.201 496.549 440.361C496.716 440.514 496.799 440.708 496.799 440.941C496.799 441.174 496.716 441.371 496.549 441.531C496.389 441.684 496.186 441.761 495.939 441.761ZM496.629 442.421V447.961H495.229V442.421H496.629ZM499.152 445.171C499.152 444.611 499.262 444.114 499.482 443.681C499.709 443.248 500.012 442.914 500.392 442.681C500.779 442.448 501.209 442.331 501.682 442.331C502.096 442.331 502.456 442.414 502.762 442.581C503.076 442.748 503.326 442.958 503.512 443.211V442.421H504.922V447.961H503.512V447.151C503.332 447.411 503.082 447.628 502.762 447.801C502.449 447.968 502.086 448.051 501.672 448.051C501.206 448.051 500.779 447.931 500.392 447.691C500.012 447.451 499.709 447.114 499.482 446.681C499.262 446.241 499.152 445.738 499.152 445.171ZM503.512 445.191C503.512 444.851 503.446 444.561 503.312 444.321C503.179 444.074 502.999 443.888 502.772 443.761C502.546 443.628 502.302 443.561 502.042 443.561C501.782 443.561 501.542 443.624 501.322 443.751C501.102 443.878 500.922 444.064 500.782 444.311C500.649 444.551 500.582 444.838 500.582 445.171C500.582 445.504 500.649 445.798 500.782 446.051C500.922 446.298 501.102 446.488 501.322 446.621C501.549 446.754 501.789 446.821 502.042 446.821C502.302 446.821 502.546 446.758 502.772 446.631C502.999 446.498 503.179 446.311 503.312 446.071C503.446 445.824 503.512 445.531 503.512 445.191ZM510.86 442.341C511.52 442.341 512.053 442.551 512.46 442.971C512.866 443.384 513.07 443.964 513.07 444.711V447.961H511.67V444.901C511.67 444.461 511.56 444.124 511.34 443.891C511.12 443.651 510.82 443.531 510.44 443.531C510.053 443.531 509.746 443.651 509.52 443.891C509.3 444.124 509.19 444.461 509.19 444.901V447.961H507.79V442.421H509.19V443.111C509.376 442.871 509.613 442.684 509.9 442.551C510.193 442.411 510.513 442.341 510.86 442.341ZM524.064 446.631H521.284L520.824 447.961H519.354L521.864 440.971H523.494L526.004 447.961H524.524L524.064 446.631ZM523.684 445.511L522.674 442.591L521.664 445.511H523.684ZM531.512 442.341C532.172 442.341 532.705 442.551 533.112 442.971C533.519 443.384 533.722 443.964 533.722 444.711V447.961H532.322V444.901C532.322 444.461 532.212 444.124 531.992 443.891C531.772 443.651 531.472 443.531 531.092 443.531C530.705 443.531 530.399 443.651 530.172 443.891C529.952 444.124 529.842 444.461 529.842 444.901V447.961H528.442V442.421H529.842V443.111C530.029 442.871 530.265 442.684 530.552 442.551C530.845 442.411 531.165 442.341 531.512 442.341ZM536.193 445.171C536.193 444.611 536.303 444.114 536.523 443.681C536.75 443.248 537.057 442.914 537.443 442.681C537.83 442.448 538.26 442.331 538.733 442.331C539.093 442.331 539.437 442.411 539.763 442.571C540.09 442.724 540.35 442.931 540.543 443.191V440.561H541.963V447.961H540.543V447.141C540.37 447.414 540.127 447.634 539.813 447.801C539.5 447.968 539.137 448.051 538.723 448.051C538.257 448.051 537.83 447.931 537.443 447.691C537.057 447.451 536.75 447.114 536.523 446.681C536.303 446.241 536.193 445.738 536.193 445.171ZM540.553 445.191C540.553 444.851 540.487 444.561 540.353 444.321C540.22 444.074 540.04 443.888 539.813 443.761C539.587 443.628 539.343 443.561 539.083 443.561C538.823 443.561 538.583 443.624 538.363 443.751C538.143 443.878 537.963 444.064 537.823 444.311C537.69 444.551 537.623 444.838 537.623 445.171C537.623 445.504 537.69 445.798 537.823 446.051C537.963 446.298 538.143 446.488 538.363 446.621C538.59 446.754 538.83 446.821 539.083 446.821C539.343 446.821 539.587 446.758 539.813 446.631C540.04 446.498 540.22 446.311 540.353 446.071C540.487 445.824 540.553 445.531 540.553 445.191ZM544.471 445.171C544.471 444.611 544.581 444.114 544.801 443.681C545.027 443.248 545.331 442.914 545.711 442.681C546.097 442.448 546.527 442.331 547.001 442.331C547.414 442.331 547.774 442.414 548.081 442.581C548.394 442.748 548.644 442.958 548.831 443.211V442.421H550.241V447.961H548.831V447.151C548.651 447.411 548.401 447.628 548.081 447.801C547.767 447.968 547.404 448.051 546.991 448.051C546.524 448.051 546.097 447.931 545.711 447.691C545.331 447.451 545.027 447.114 544.801 446.681C544.581 446.241 544.471 445.738 544.471 445.171ZM548.831 445.191C548.831 444.851 548.764 444.561 548.631 444.321C548.497 444.074 548.317 443.888 548.091 443.761C547.864 443.628 547.621 443.561 547.361 443.561C547.101 443.561 546.861 443.624 546.641 443.751C546.421 443.878 546.241 444.064 546.101 444.311C545.967 444.551 545.901 444.838 545.901 445.171C545.901 445.504 545.967 445.798 546.101 446.051C546.241 446.298 546.421 446.488 546.641 446.621C546.867 446.754 547.107 446.821 547.361 446.821C547.621 446.821 547.864 446.758 548.091 446.631C548.317 446.498 548.497 446.311 548.631 446.071C548.764 445.824 548.831 445.531 548.831 445.191Z" fill="#596773"/>
<path d="M512 342.943L526.167 355.88V378.332H520.5V361.083H503.5V378.332H497.833V355.88L512 342.943V342.943ZM512 335.21L483.667 361.083H492.167V384.081H509.167V366.833H514.833V384.081H531.833V361.083H540.333L512 335.21Z" fill="#8AD0C7"/>
<path d="M455.707 360.707C456.098 360.317 456.098 359.683 455.707 359.293L449.343 352.929C448.953 352.538 448.319 352.538 447.929 352.929C447.538 353.319 447.538 353.953 447.929 354.343L453.586 360L447.929 365.657C447.538 366.047 447.538 366.681 447.929 367.071C448.319 367.462 448.953 367.462 449.343 367.071L455.707 360.707ZM430 361H455V359H430V361Z" fill="#596773"/>
<path d="M310.707 358.707C311.098 358.317 311.098 357.683 310.707 357.293L304.343 350.929C303.953 350.538 303.319 350.538 302.929 350.929C302.538 351.319 302.538 351.953 302.929 352.343L308.586 358L302.929 363.657C302.538 364.047 302.538 364.681 302.929 365.071C303.319 365.462 303.953 365.462 304.343 365.071L310.707 358.707ZM285 359H310V357H285V359Z" fill="#596773"/>
<defs>
<filter id="filter0_d_0:1" x="0" y="0" width="391" height="459" filterUnits="userSpaceOnUse" color-interpolation-filters="sRGB">
<feFlood flood-opacity="0" result="BackgroundImageFix"/>
<feColorMatrix in="SourceAlpha" type="matrix" values="0 0 0 0 0 0 0 0 0 0 0 0 0 0 0 0 0 0 127 0" result="hardAlpha"/>
<feOffset/>
<feGaussianBlur stdDeviation="10"/>
<feComposite in2="hardAlpha" operator="out"/>
<feColorMatrix type="matrix" values="0 0 0 0 0 0 0 0 0 0 0 0 0 0 0 0 0 0 0.1 0"/>
<feBlend mode="normal" in2="BackgroundImageFix" result="effect1_dropShadow_0:1"/>
<feBlend mode="normal" in="SourceGraphic" in2="effect1_dropShadow_0:1" result="shape"/>
</filter>
<filter id="filter1_d_0:1" x="120" y="266" width="488" height="248" filterUnits="userSpaceOnUse" color-interpolation-filters="sRGB">
<feFlood flood-opacity="0" result="BackgroundImageFix"/>
<feColorMatrix in="SourceAlpha" type="matrix" values="0 0 0 0 0 0 0 0 0 0 0 0 0 0 0 0 0 0 127 0" result="hardAlpha"/>
<feOffset/>
<feGaussianBlur stdDeviation="10"/>
<feComposite in2="hardAlpha" operator="out"/>
<feColorMatrix type="matrix" values="0 0 0 0 0 0 0 0 0 0 0 0 0 0 0 0 0 0 0.1 0"/>
<feBlend mode="normal" in2="BackgroundImageFix" result="effect1_dropShadow_0:1"/>
<feBlend mode="normal" in="SourceGraphic" in2="effect1_dropShadow_0:1" result="shape"/>
</filter>
<filter id="filter2_d_0:1" x="330" y="312.38" width="88" height="103.405" filterUnits="userSpaceOnUse" color-interpolation-filters="sRGB">
<feFlood flood-opacity="0" result="BackgroundImageFix"/>
<feColorMatrix in="SourceAlpha" type="matrix" values="0 0 0 0 0 0 0 0 0 0 0 0 0 0 0 0 0 0 127 0" result="hardAlpha"/>
<feOffset dx="4" dy="4"/>
<feGaussianBlur stdDeviation="1"/>
<feComposite in2="hardAlpha" operator="out"/>
<feColorMatrix type="matrix" values="0 0 0 0 0 0 0 0 0 0 0 0 0 0 0 0 0 0 0.1 0"/>
<feBlend mode="normal" in2="BackgroundImageFix" result="effect1_dropShadow_0:1"/>
<feBlend mode="normal" in="SourceGraphic" in2="effect1_dropShadow_0:1" result="shape"/>
</filter>
<filter id="filter3_d_0:1" x="180" y="312.38" width="88" height="103.405" filterUnits="userSpaceOnUse" color-interpolation-filters="sRGB">
<feFlood flood-opacity="0" result="BackgroundImageFix"/>
<feColorMatrix in="SourceAlpha" type="matrix" values="0 0 0 0 0 0 0 0 0 0 0 0 0 0 0 0 0 0 127 0" result="hardAlpha"/>
<feOffset dx="4" dy="4"/>
<feGaussianBlur stdDeviation="1"/>
<feComposite in2="hardAlpha" operator="out"/>
<feColorMatrix type="matrix" values="0 0 0 0 0 0 0 0 0 0 0 0 0 0 0 0 0 0 0.1 0"/>
<feBlend mode="normal" in2="BackgroundImageFix" result="effect1_dropShadow_0:1"/>
<feBlend mode="normal" in="SourceGraphic" in2="effect1_dropShadow_0:1" result="shape"/>
</filter>
<filter id="filter4_d_0:1" x="469.5" y="317.968" width="90" height="91.2146" filterUnits="userSpaceOnUse" color-interpolation-filters="sRGB">
<feFlood flood-opacity="0" result="BackgroundImageFix"/>
<feColorMatrix in="SourceAlpha" type="matrix" values="0 0 0 0 0 0 0 0 0 0 0 0 0 0 0 0 0 0 127 0" result="hardAlpha"/>
<feOffset dx="4" dy="4"/>
<feGaussianBlur stdDeviation="1"/>
<feComposite in2="hardAlpha" operator="out"/>
<feColorMatrix type="matrix" values="0 0 0 0 0 0 0 0 0 0 0 0 0 0 0 0 0 0 0.1 0"/>
<feBlend mode="normal" in2="BackgroundImageFix" result="effect1_dropShadow_0:1"/>
<feBlend mode="normal" in="SourceGraphic" in2="effect1_dropShadow_0:1" result="shape"/>
</filter>
</defs>
</svg>
