<svg width="608" height="514" viewBox="0 0 608 514" fill="none" xmlns="http://www.w3.org/2000/svg">
<g filter="url(#filter0_d_34:2)">
<rect x="20" y="20" width="351" height="419" rx="4" fill="white"/>
<path d="M156.032 58.832L152.912 70H150.272L148.176 62.048L145.984 70L143.36 70.016L140.352 58.832H142.752L144.72 67.504L146.992 58.832H149.488L151.632 67.456L153.616 58.832H156.032ZM169.159 58.832V70H166.919V65.248H162.135V70H159.895V58.832H162.135V63.424H166.919V58.832H169.159ZM176.003 58.832V70H173.763V58.832H176.003ZM184.473 70.112C183.694 70.112 182.99 69.9787 182.361 69.712C181.742 69.4453 181.251 69.0613 180.889 68.56C180.526 68.0587 180.339 67.4667 180.329 66.784H182.729C182.761 67.2427 182.921 67.6053 183.209 67.872C183.507 68.1387 183.913 68.272 184.425 68.272C184.947 68.272 185.358 68.1493 185.657 67.904C185.955 67.648 186.105 67.3173 186.105 66.912C186.105 66.5813 186.003 66.3093 185.801 66.096C185.598 65.8827 185.342 65.7173 185.033 65.6C184.734 65.472 184.318 65.3333 183.785 65.184C183.059 64.9707 182.467 64.7627 182.009 64.56C181.561 64.3467 181.171 64.032 180.841 63.616C180.521 63.1893 180.361 62.624 180.361 61.92C180.361 61.2587 180.526 60.6827 180.857 60.192C181.187 59.7013 181.651 59.328 182.249 59.072C182.846 58.8053 183.529 58.672 184.297 58.672C185.449 58.672 186.382 58.9547 187.097 59.52C187.822 60.0747 188.222 60.8533 188.297 61.856H185.833C185.811 61.472 185.646 61.1573 185.337 60.912C185.038 60.656 184.638 60.528 184.137 60.528C183.699 60.528 183.347 60.64 183.081 60.864C182.825 61.088 182.697 61.4133 182.697 61.84C182.697 62.1387 182.793 62.3893 182.985 62.592C183.187 62.784 183.433 62.944 183.721 63.072C184.019 63.1893 184.435 63.328 184.969 63.488C185.694 63.7013 186.286 63.9147 186.745 64.128C187.203 64.3413 187.598 64.6613 187.929 65.088C188.259 65.5147 188.425 66.0747 188.425 66.768C188.425 67.3653 188.27 67.92 187.961 68.432C187.651 68.944 187.198 69.3547 186.601 69.664C186.003 69.9627 185.294 70.112 184.473 70.112ZM200.366 58.832V60.64H197.39V70H195.15V60.64H192.174V58.832H200.366ZM206.641 68.224H210.321V70H204.401V58.832H206.641V68.224ZM216.385 58.832V70H214.145V58.832H216.385ZM224.854 70.112C224.075 70.112 223.371 69.9787 222.742 69.712C222.123 69.4453 221.632 69.0613 221.27 68.56C220.907 68.0587 220.72 67.4667 220.71 66.784H223.11C223.142 67.2427 223.302 67.6053 223.59 67.872C223.888 68.1387 224.294 68.272 224.806 68.272C225.328 68.272 225.739 68.1493 226.038 67.904C226.336 67.648 226.486 67.3173 226.486 66.912C226.486 66.5813 226.384 66.3093 226.182 66.096C225.979 65.8827 225.723 65.7173 225.414 65.6C225.115 65.472 224.699 65.3333 224.166 65.184C223.44 64.9707 222.848 64.7627 222.39 64.56C221.942 64.3467 221.552 64.032 221.222 63.616C220.902 63.1893 220.742 62.624 220.742 61.92C220.742 61.2587 220.907 60.6827 221.238 60.192C221.568 59.7013 222.032 59.328 222.63 59.072C223.227 58.8053 223.91 58.672 224.678 58.672C225.83 58.672 226.763 58.9547 227.478 59.52C228.203 60.0747 228.603 60.8533 228.678 61.856H226.214C226.192 61.472 226.027 61.1573 225.718 60.912C225.419 60.656 225.019 60.528 224.518 60.528C224.08 60.528 223.728 60.64 223.462 60.864C223.206 61.088 223.078 61.4133 223.078 61.84C223.078 62.1387 223.174 62.3893 223.366 62.592C223.568 62.784 223.814 62.944 224.102 63.072C224.4 63.1893 224.816 63.328 225.35 63.488C226.075 63.7013 226.667 63.9147 227.126 64.128C227.584 64.3413 227.979 64.6613 228.31 65.088C228.64 65.5147 228.806 66.0747 228.806 66.768C228.806 67.3653 228.651 67.92 228.342 68.432C228.032 68.944 227.579 69.3547 226.982 69.664C226.384 69.9627 225.675 70.112 224.854 70.112ZM240.748 58.832V60.64H237.772V70H235.532V60.64H232.556V58.832H240.748Z" fill="#596773"/>
<path d="M106.864 247L104.4 242.648H103.344V247H101.104V235.832H105.296C106.16 235.832 106.896 235.987 107.504 236.296C108.112 236.595 108.565 237.005 108.864 237.528C109.173 238.04 109.328 238.616 109.328 239.256C109.328 239.992 109.115 240.659 108.688 241.256C108.261 241.843 107.627 242.248 106.784 242.472L109.456 247H106.864ZM103.344 240.968H105.216C105.824 240.968 106.277 240.824 106.576 240.536C106.875 240.237 107.024 239.827 107.024 239.304C107.024 238.792 106.875 238.397 106.576 238.12C106.277 237.832 105.824 237.688 105.216 237.688H103.344V240.968ZM122.122 238.136V247H119.866V245.88C119.578 246.264 119.199 246.568 118.73 246.792C118.271 247.005 117.77 247.112 117.226 247.112C116.533 247.112 115.919 246.968 115.386 246.68C114.853 246.381 114.431 245.949 114.122 245.384C113.823 244.808 113.674 244.125 113.674 243.336V238.136H115.914V243.016C115.914 243.72 116.09 244.264 116.442 244.648C116.794 245.021 117.274 245.208 117.882 245.208C118.501 245.208 118.986 245.021 119.338 244.648C119.69 244.264 119.866 243.72 119.866 243.016V238.136H122.122ZM137.74 238.008C138.828 238.008 139.703 238.344 140.364 239.016C141.036 239.677 141.372 240.605 141.372 241.8V247H139.132V242.104C139.132 241.411 138.956 240.883 138.604 240.52C138.252 240.147 137.772 239.96 137.164 239.96C136.556 239.96 136.071 240.147 135.708 240.52C135.356 240.883 135.18 241.411 135.18 242.104V247H132.94V242.104C132.94 241.411 132.764 240.883 132.412 240.52C132.06 240.147 131.58 239.96 130.972 239.96C130.353 239.96 129.863 240.147 129.5 240.52C129.148 240.883 128.972 241.411 128.972 242.104V247H126.732V238.136H128.972V239.208C129.26 238.835 129.628 238.541 130.076 238.328C130.535 238.115 131.036 238.008 131.58 238.008C132.273 238.008 132.892 238.157 133.436 238.456C133.98 238.744 134.401 239.16 134.7 239.704C134.988 239.192 135.404 238.781 135.948 238.472C136.503 238.163 137.1 238.008 137.74 238.008ZM145.322 242.536C145.322 241.64 145.498 240.845 145.85 240.152C146.212 239.459 146.698 238.925 147.306 238.552C147.924 238.179 148.612 237.992 149.37 237.992C150.031 237.992 150.607 238.125 151.098 238.392C151.599 238.659 151.999 238.995 152.298 239.4V238.136H154.554V247H152.298V245.704C152.01 246.12 151.61 246.467 151.098 246.744C150.596 247.011 150.015 247.144 149.354 247.144C148.607 247.144 147.924 246.952 147.306 246.568C146.698 246.184 146.212 245.645 145.85 244.952C145.498 244.248 145.322 243.443 145.322 242.536ZM152.298 242.568C152.298 242.024 152.191 241.56 151.978 241.176C151.764 240.781 151.476 240.483 151.114 240.28C150.751 240.067 150.362 239.96 149.946 239.96C149.53 239.96 149.146 240.061 148.794 240.264C148.442 240.467 148.154 240.765 147.93 241.16C147.716 241.544 147.61 242.003 147.61 242.536C147.61 243.069 147.716 243.539 147.93 243.944C148.154 244.339 148.442 244.643 148.794 244.856C149.156 245.069 149.54 245.176 149.946 245.176C150.362 245.176 150.751 245.075 151.114 244.872C151.476 244.659 151.764 244.36 151.978 243.976C152.191 243.581 152.298 243.112 152.298 242.568ZM164.133 238.008C164.805 238.008 165.403 238.157 165.925 238.456C166.448 238.744 166.853 239.176 167.141 239.752C167.44 240.317 167.589 241 167.589 241.8V247H165.349V242.104C165.349 241.4 165.173 240.861 164.821 240.488C164.469 240.104 163.989 239.912 163.381 239.912C162.763 239.912 162.272 240.104 161.909 240.488C161.557 240.861 161.381 241.4 161.381 242.104V247H159.141V235.16H161.381V239.24C161.669 238.856 162.053 238.557 162.533 238.344C163.013 238.12 163.547 238.008 164.133 238.008Z" fill="#596773"/>
<ellipse cx="57" cy="241.5" rx="10" ry="9.5" fill="#E2F3F1"/>
<ellipse cx="58" cy="118.5" rx="10" ry="9.5" fill="#E2F3F1"/>
<rect x="100" y="109" width="244" height="19" fill="#8AD0C7"/>
<ellipse cx="56" cy="361.5" rx="10" ry="9.5" fill="#E2F3F1"/>
<rect x="98" y="352" width="244" height="19" fill="#8AD0C7"/>
<ellipse cx="57" cy="321.5" rx="10" ry="9.5" fill="#E2F3F1"/>
<rect x="98" y="312" width="244" height="19" fill="#8AD0C7"/>
<ellipse cx="58" cy="158.5" rx="10" ry="9.5" fill="#E2F3F1"/>
<rect x="100" y="149" width="244" height="19" fill="#8AD0C7"/>
<ellipse cx="58" cy="198.5" rx="10" ry="9.5" fill="#E2F3F1"/>
<rect x="100" y="189" width="244" height="19" fill="#8AD0C7"/>
<ellipse cx="58" cy="281.5" rx="10" ry="9.5" fill="#E2F3F1"/>
<rect x="99" y="272" width="244" height="19" fill="#8AD0C7"/>
<path d="M57 243.2L52.8 239L51.4 240.4L57 246L69 234L67.6 232.6L57 243.2Z" fill="#596773"/>
</g>
<g filter="url(#filter1_d_34:2)">
<rect x="140" y="286" width="448" height="208" rx="4" fill="white"/>
</g>
<path d="M181.388 433.961L179.54 430.697H178.748V433.961H177.068V425.585H180.212C180.86 425.585 181.412 425.701 181.868 425.933C182.324 426.157 182.664 426.465 182.888 426.857C183.12 427.241 183.236 427.673 183.236 428.153C183.236 428.705 183.076 429.205 182.756 429.653C182.436 430.093 181.96 430.397 181.328 430.565L183.332 433.961H181.388ZM178.748 429.437H180.152C180.608 429.437 180.948 429.329 181.172 429.113C181.396 428.889 181.508 428.581 181.508 428.189C181.508 427.805 181.396 427.509 181.172 427.301C180.948 427.085 180.608 426.977 180.152 426.977H178.748V429.437ZM190.936 430.493C190.936 430.733 190.92 430.949 190.888 431.141H186.028C186.068 431.621 186.236 431.997 186.532 432.269C186.828 432.541 187.192 432.677 187.624 432.677C188.248 432.677 188.692 432.409 188.956 431.873H190.768C190.576 432.513 190.208 433.041 189.664 433.457C189.12 433.865 188.452 434.069 187.66 434.069C187.02 434.069 186.444 433.929 185.932 433.649C185.428 433.361 185.032 432.957 184.744 432.437C184.464 431.917 184.324 431.317 184.324 430.637C184.324 429.949 184.464 429.345 184.744 428.825C185.024 428.305 185.416 427.905 185.92 427.625C186.424 427.345 187.004 427.205 187.66 427.205C188.292 427.205 188.856 427.341 189.352 427.613C189.856 427.885 190.244 428.273 190.516 428.777C190.796 429.273 190.936 429.845 190.936 430.493ZM189.196 430.013C189.188 429.581 189.032 429.237 188.728 428.981C188.424 428.717 188.052 428.585 187.612 428.585C187.196 428.585 186.844 428.713 186.556 428.969C186.276 429.217 186.104 429.565 186.04 430.013H189.196ZM195.846 427.217C196.638 427.217 197.278 427.469 197.766 427.973C198.254 428.469 198.498 429.165 198.498 430.061V433.961H196.818V430.289C196.818 429.761 196.686 429.357 196.422 429.077C196.158 428.789 195.798 428.645 195.342 428.645C194.878 428.645 194.51 428.789 194.238 429.077C193.974 429.357 193.842 429.761 193.842 430.289V433.961H192.162V427.313H193.842V428.141C194.066 427.853 194.35 427.629 194.694 427.469C195.046 427.301 195.43 427.217 195.846 427.217ZM199.664 430.637C199.664 429.949 199.804 429.349 200.084 428.837C200.364 428.317 200.752 427.917 201.248 427.637C201.744 427.349 202.312 427.205 202.952 427.205C203.776 427.205 204.456 427.413 204.992 427.829C205.536 428.237 205.9 428.813 206.084 429.557H204.272C204.176 429.269 204.012 429.045 203.78 428.885C203.556 428.717 203.276 428.633 202.94 428.633C202.46 428.633 202.08 428.809 201.8 429.161C201.52 429.505 201.38 429.997 201.38 430.637C201.38 431.269 201.52 431.761 201.8 432.113C202.08 432.457 202.46 432.629 202.94 432.629C203.62 432.629 204.064 432.325 204.272 431.717H206.084C205.9 432.437 205.536 433.009 204.992 433.433C204.448 433.857 203.768 434.069 202.952 434.069C202.312 434.069 201.744 433.929 201.248 433.649C200.752 433.361 200.364 432.961 200.084 432.449C199.804 431.929 199.664 431.325 199.664 430.637ZM206.882 430.613C206.882 429.941 207.014 429.345 207.278 428.825C207.55 428.305 207.914 427.905 208.37 427.625C208.834 427.345 209.35 427.205 209.918 427.205C210.414 427.205 210.846 427.305 211.214 427.505C211.59 427.705 211.89 427.957 212.114 428.261V427.313H213.806V433.961H212.114V432.989C211.898 433.301 211.598 433.561 211.214 433.769C210.838 433.969 210.402 434.069 209.906 434.069C209.346 434.069 208.834 433.925 208.37 433.637C207.914 433.349 207.55 432.945 207.278 432.425C207.014 431.897 206.882 431.293 206.882 430.613ZM212.114 430.637C212.114 430.229 212.034 429.881 211.874 429.593C211.714 429.297 211.498 429.073 211.226 428.921C210.954 428.761 210.662 428.681 210.35 428.681C210.038 428.681 209.75 428.757 209.486 428.909C209.222 429.061 209.006 429.285 208.838 429.581C208.678 429.869 208.598 430.213 208.598 430.613C208.598 431.013 208.678 431.365 208.838 431.669C209.006 431.965 209.222 432.193 209.486 432.353C209.758 432.513 210.046 432.593 210.35 432.593C210.662 432.593 210.954 432.517 211.226 432.365C211.498 432.205 211.714 431.981 211.874 431.693C212.034 431.397 212.114 431.045 212.114 430.637ZM219.131 427.217C219.923 427.217 220.563 427.469 221.051 427.973C221.539 428.469 221.783 429.165 221.783 430.061V433.961H220.103V430.289C220.103 429.761 219.971 429.357 219.707 429.077C219.443 428.789 219.083 428.645 218.627 428.645C218.163 428.645 217.795 428.789 217.523 429.077C217.259 429.357 217.127 429.761 217.127 430.289V433.961H215.447V427.313H217.127V428.141C217.351 427.853 217.635 427.629 217.979 427.469C218.331 427.301 218.715 427.217 219.131 427.217ZM222.949 430.613C222.949 429.941 223.081 429.345 223.345 428.825C223.617 428.305 223.981 427.905 224.437 427.625C224.901 427.345 225.417 427.205 225.985 427.205C226.481 427.205 226.913 427.305 227.281 427.505C227.657 427.705 227.957 427.957 228.181 428.261V427.313H229.873V433.961H228.181V432.989C227.965 433.301 227.665 433.561 227.281 433.769C226.905 433.969 226.469 434.069 225.973 434.069C225.413 434.069 224.901 433.925 224.437 433.637C223.981 433.349 223.617 432.945 223.345 432.425C223.081 431.897 222.949 431.293 222.949 430.613ZM228.181 430.637C228.181 430.229 228.101 429.881 227.941 429.593C227.781 429.297 227.565 429.073 227.293 428.921C227.021 428.761 226.729 428.681 226.417 428.681C226.105 428.681 225.817 428.757 225.553 428.909C225.289 429.061 225.073 429.285 224.905 429.581C224.745 429.869 224.665 430.213 224.665 430.613C224.665 431.013 224.745 431.365 224.905 431.669C225.073 431.965 225.289 432.193 225.553 432.353C225.825 432.513 226.113 432.593 226.417 432.593C226.729 432.593 227.021 432.517 227.293 432.365C227.565 432.205 227.781 431.981 227.941 431.693C228.101 431.397 228.181 431.045 228.181 430.637ZM235.45 433.961L233.194 431.129V433.961H231.514V425.081H233.194V430.133L235.426 427.313H237.61L234.682 430.649L237.634 433.961H235.45ZM238.089 430.613C238.089 429.941 238.221 429.345 238.485 428.825C238.757 428.305 239.121 427.905 239.577 427.625C240.041 427.345 240.557 427.205 241.125 427.205C241.621 427.205 242.053 427.305 242.421 427.505C242.797 427.705 243.097 427.957 243.321 428.261V427.313H245.013V433.961H243.321V432.989C243.105 433.301 242.805 433.561 242.421 433.769C242.045 433.969 241.609 434.069 241.113 434.069C240.553 434.069 240.041 433.925 239.577 433.637C239.121 433.349 238.757 432.945 238.485 432.425C238.221 431.897 238.089 431.293 238.089 430.613ZM243.321 430.637C243.321 430.229 243.241 429.881 243.081 429.593C242.921 429.297 242.705 429.073 242.433 428.921C242.161 428.761 241.869 428.681 241.557 428.681C241.245 428.681 240.957 428.757 240.693 428.909C240.429 429.061 240.213 429.285 240.045 429.581C239.885 429.869 239.805 430.213 239.805 430.613C239.805 431.013 239.885 431.365 240.045 431.669C240.213 431.965 240.429 432.193 240.693 432.353C240.965 432.513 241.253 432.593 241.557 432.593C241.869 432.593 242.161 432.517 242.433 432.365C242.705 432.205 242.921 431.981 243.081 431.693C243.241 431.397 243.321 431.045 243.321 430.637ZM250.338 427.217C251.13 427.217 251.77 427.469 252.258 427.973C252.746 428.469 252.99 429.165 252.99 430.061V433.961H251.31V430.289C251.31 429.761 251.178 429.357 250.914 429.077C250.65 428.789 250.29 428.645 249.834 428.645C249.37 428.645 249.002 428.789 248.73 429.077C248.466 429.357 248.334 429.761 248.334 430.289V433.961H246.654V427.313H248.334V428.141C248.558 427.853 248.842 427.629 249.186 427.469C249.538 427.301 249.922 427.217 250.338 427.217ZM194.48 452.045C193.896 452.045 193.368 451.945 192.896 451.745C192.432 451.545 192.064 451.257 191.792 450.881C191.52 450.505 191.38 450.061 191.372 449.549H193.172C193.196 449.893 193.316 450.165 193.532 450.365C193.756 450.565 194.06 450.665 194.444 450.665C194.836 450.665 195.144 450.573 195.368 450.389C195.592 450.197 195.704 449.949 195.704 449.645C195.704 449.397 195.628 449.193 195.476 449.033C195.324 448.873 195.132 448.749 194.9 448.661C194.676 448.565 194.364 448.461 193.964 448.349C193.42 448.189 192.976 448.033 192.632 447.881C192.296 447.721 192.004 447.485 191.756 447.173C191.516 446.853 191.396 446.429 191.396 445.901C191.396 445.405 191.52 444.973 191.768 444.605C192.016 444.237 192.364 443.957 192.812 443.765C193.26 443.565 193.772 443.465 194.348 443.465C195.212 443.465 195.912 443.677 196.448 444.101C196.992 444.517 197.292 445.101 197.348 445.853H195.5C195.484 445.565 195.36 445.329 195.128 445.145C194.904 444.953 194.604 444.857 194.228 444.857C193.9 444.857 193.636 444.941 193.436 445.109C193.244 445.277 193.148 445.521 193.148 445.841C193.148 446.065 193.22 446.253 193.364 446.405C193.516 446.549 193.7 446.669 193.916 446.765C194.14 446.853 194.452 446.957 194.852 447.077C195.396 447.237 195.84 447.397 196.184 447.557C196.528 447.717 196.824 447.957 197.072 448.277C197.32 448.597 197.444 449.017 197.444 449.537C197.444 449.985 197.328 450.401 197.096 450.785C196.864 451.169 196.524 451.477 196.076 451.709C195.628 451.933 195.096 452.045 194.48 452.045ZM200.856 446.693V449.909C200.856 450.133 200.908 450.297 201.012 450.401C201.124 450.497 201.308 450.545 201.564 450.545H202.344V451.961H201.288C199.872 451.961 199.164 451.273 199.164 449.897V446.693H198.372V445.313H199.164V443.669H200.856V445.313H202.344V446.693H200.856ZM205.233 446.345C205.449 445.993 205.729 445.717 206.073 445.517C206.425 445.317 206.825 445.217 207.273 445.217V446.981H206.829C206.301 446.981 205.901 447.105 205.629 447.353C205.365 447.601 205.233 448.033 205.233 448.649V451.961H203.553V445.313H205.233V446.345ZM207.972 448.613C207.972 447.941 208.104 447.345 208.368 446.825C208.64 446.305 209.004 445.905 209.46 445.625C209.924 445.345 210.44 445.205 211.008 445.205C211.504 445.205 211.936 445.305 212.304 445.505C212.68 445.705 212.98 445.957 213.204 446.261V445.313H214.896V451.961H213.204V450.989C212.988 451.301 212.688 451.561 212.304 451.769C211.928 451.969 211.492 452.069 210.996 452.069C210.436 452.069 209.924 451.925 209.46 451.637C209.004 451.349 208.64 450.945 208.368 450.425C208.104 449.897 207.972 449.293 207.972 448.613ZM213.204 448.637C213.204 448.229 213.124 447.881 212.964 447.593C212.804 447.297 212.588 447.073 212.316 446.921C212.044 446.761 211.752 446.681 211.44 446.681C211.128 446.681 210.84 446.757 210.576 446.909C210.312 447.061 210.096 447.285 209.928 447.581C209.768 447.869 209.688 448.213 209.688 448.613C209.688 449.013 209.768 449.365 209.928 449.669C210.096 449.965 210.312 450.193 210.576 450.353C210.848 450.513 211.136 450.593 211.44 450.593C211.752 450.593 212.044 450.517 212.316 450.365C212.588 450.205 212.804 449.981 212.964 449.693C213.124 449.397 213.204 449.045 213.204 448.637ZM218.493 446.693V449.909C218.493 450.133 218.545 450.297 218.649 450.401C218.761 450.497 218.945 450.545 219.201 450.545H219.981V451.961H218.925C217.509 451.961 216.801 451.273 216.801 449.897V446.693H216.009V445.313H216.801V443.669H218.493V445.313H219.981V446.693H218.493ZM227.369 448.493C227.369 448.733 227.353 448.949 227.321 449.141H222.461C222.501 449.621 222.669 449.997 222.965 450.269C223.261 450.541 223.625 450.677 224.057 450.677C224.681 450.677 225.125 450.409 225.389 449.873H227.201C227.009 450.513 226.641 451.041 226.097 451.457C225.553 451.865 224.885 452.069 224.093 452.069C223.453 452.069 222.877 451.929 222.365 451.649C221.861 451.361 221.465 450.957 221.177 450.437C220.897 449.917 220.757 449.317 220.757 448.637C220.757 447.949 220.897 447.345 221.177 446.825C221.457 446.305 221.849 445.905 222.353 445.625C222.857 445.345 223.437 445.205 224.093 445.205C224.725 445.205 225.289 445.341 225.785 445.613C226.289 445.885 226.677 446.273 226.949 446.777C227.229 447.273 227.369 447.845 227.369 448.493ZM225.629 448.013C225.621 447.581 225.465 447.237 225.161 446.981C224.857 446.717 224.485 446.585 224.045 446.585C223.629 446.585 223.277 446.713 222.989 446.969C222.709 447.217 222.537 447.565 222.473 448.013H225.629ZM231.2 445.205C231.696 445.205 232.132 445.305 232.508 445.505C232.884 445.697 233.18 445.949 233.396 446.261V445.313H235.088V452.009C235.088 452.625 234.964 453.173 234.716 453.653C234.468 454.141 234.096 454.525 233.6 454.805C233.104 455.093 232.504 455.237 231.8 455.237C230.856 455.237 230.08 455.017 229.472 454.577C228.872 454.137 228.532 453.537 228.452 452.777H230.12C230.208 453.081 230.396 453.321 230.684 453.497C230.98 453.681 231.336 453.773 231.752 453.773C232.24 453.773 232.636 453.625 232.94 453.329C233.244 453.041 233.396 452.601 233.396 452.009V450.977C233.18 451.289 232.88 451.549 232.496 451.757C232.12 451.965 231.688 452.069 231.2 452.069C230.64 452.069 230.128 451.925 229.664 451.637C229.2 451.349 228.832 450.945 228.56 450.425C228.296 449.897 228.164 449.293 228.164 448.613C228.164 447.941 228.296 447.345 228.56 446.825C228.832 446.305 229.196 445.905 229.652 445.625C230.116 445.345 230.632 445.205 231.2 445.205ZM233.396 448.637C233.396 448.229 233.316 447.881 233.156 447.593C232.996 447.297 232.78 447.073 232.508 446.921C232.236 446.761 231.944 446.681 231.632 446.681C231.32 446.681 231.032 446.757 230.768 446.909C230.504 447.061 230.288 447.285 230.12 447.581C229.96 447.869 229.88 448.213 229.88 448.613C229.88 449.013 229.96 449.365 230.12 449.669C230.288 449.965 230.504 450.193 230.768 450.353C231.04 450.513 231.328 450.593 231.632 450.593C231.944 450.593 232.236 450.517 232.508 450.365C232.78 450.205 232.996 449.981 233.156 449.693C233.316 449.397 233.396 449.045 233.396 448.637ZM237.58 444.521C237.284 444.521 237.036 444.429 236.836 444.245C236.644 444.053 236.548 443.817 236.548 443.537C236.548 443.257 236.644 443.025 236.836 442.841C237.036 442.649 237.284 442.553 237.58 442.553C237.876 442.553 238.12 442.649 238.312 442.841C238.512 443.025 238.612 443.257 238.612 443.537C238.612 443.817 238.512 444.053 238.312 444.245C238.12 444.429 237.876 444.521 237.58 444.521ZM238.408 445.313V451.961H236.728V445.313H238.408ZM182.004 464.177C182.004 464.625 181.896 465.045 181.68 465.437C181.472 465.829 181.14 466.145 180.684 466.385C180.236 466.625 179.668 466.745 178.98 466.745H177.576V469.961H175.896V461.585H178.98C179.628 461.585 180.18 461.697 180.636 461.921C181.092 462.145 181.432 462.453 181.656 462.845C181.888 463.237 182.004 463.681 182.004 464.177ZM178.908 465.389C179.372 465.389 179.716 465.285 179.94 465.077C180.164 464.861 180.276 464.561 180.276 464.177C180.276 463.361 179.82 462.953 178.908 462.953H177.576V465.389H178.908ZM189.377 466.493C189.377 466.733 189.361 466.949 189.329 467.141H184.469C184.509 467.621 184.677 467.997 184.973 468.269C185.269 468.541 185.633 468.677 186.065 468.677C186.689 468.677 187.133 468.409 187.397 467.873H189.209C189.017 468.513 188.649 469.041 188.105 469.457C187.561 469.865 186.893 470.069 186.101 470.069C185.461 470.069 184.885 469.929 184.373 469.649C183.869 469.361 183.473 468.957 183.185 468.437C182.905 467.917 182.765 467.317 182.765 466.637C182.765 465.949 182.905 465.345 183.185 464.825C183.465 464.305 183.857 463.905 184.361 463.625C184.865 463.345 185.445 463.205 186.101 463.205C186.733 463.205 187.297 463.341 187.793 463.613C188.297 463.885 188.685 464.273 188.957 464.777C189.237 465.273 189.377 465.845 189.377 466.493ZM187.637 466.013C187.629 465.581 187.473 465.237 187.169 464.981C186.865 464.717 186.493 464.585 186.053 464.585C185.637 464.585 185.285 464.713 184.997 464.969C184.717 465.217 184.545 465.565 184.481 466.013H187.637ZM198.859 463.217C199.675 463.217 200.331 463.469 200.827 463.973C201.331 464.469 201.583 465.165 201.583 466.061V469.961H199.903V466.289C199.903 465.769 199.771 465.373 199.507 465.101C199.243 464.821 198.883 464.681 198.427 464.681C197.971 464.681 197.607 464.821 197.335 465.101C197.071 465.373 196.939 465.769 196.939 466.289V469.961H195.259V466.289C195.259 465.769 195.127 465.373 194.863 465.101C194.599 464.821 194.239 464.681 193.783 464.681C193.319 464.681 192.951 464.821 192.679 465.101C192.415 465.373 192.283 465.769 192.283 466.289V469.961H190.603V463.313H192.283V464.117C192.499 463.837 192.775 463.617 193.111 463.457C193.455 463.297 193.831 463.217 194.239 463.217C194.759 463.217 195.223 463.329 195.631 463.553C196.039 463.769 196.355 464.081 196.579 464.489C196.795 464.105 197.107 463.797 197.515 463.565C197.931 463.333 198.379 463.217 198.859 463.217ZM204.858 464.285C205.074 463.965 205.37 463.705 205.746 463.505C206.13 463.305 206.566 463.205 207.054 463.205C207.622 463.205 208.134 463.345 208.59 463.625C209.054 463.905 209.418 464.305 209.682 464.825C209.954 465.337 210.09 465.933 210.09 466.613C210.09 467.293 209.954 467.897 209.682 468.425C209.418 468.945 209.054 469.349 208.59 469.637C208.134 469.925 207.622 470.069 207.054 470.069C206.558 470.069 206.122 469.973 205.746 469.781C205.378 469.581 205.082 469.325 204.858 469.013V469.961H203.178V461.081H204.858V464.285ZM208.374 466.613C208.374 466.213 208.29 465.869 208.122 465.581C207.962 465.285 207.746 465.061 207.474 464.909C207.21 464.757 206.922 464.681 206.61 464.681C206.306 464.681 206.018 464.761 205.746 464.921C205.482 465.073 205.266 465.297 205.098 465.593C204.938 465.889 204.858 466.237 204.858 466.637C204.858 467.037 204.938 467.385 205.098 467.681C205.266 467.977 205.482 468.205 205.746 468.365C206.018 468.517 206.306 468.593 206.61 468.593C206.922 468.593 207.21 468.513 207.474 468.353C207.746 468.193 207.962 467.965 208.122 467.669C208.29 467.373 208.374 467.021 208.374 466.613ZM210.878 466.613C210.878 465.941 211.01 465.345 211.274 464.825C211.546 464.305 211.91 463.905 212.366 463.625C212.83 463.345 213.346 463.205 213.914 463.205C214.41 463.205 214.842 463.305 215.21 463.505C215.586 463.705 215.886 463.957 216.11 464.261V463.313H217.802V469.961H216.11V468.989C215.894 469.301 215.594 469.561 215.21 469.769C214.834 469.969 214.398 470.069 213.902 470.069C213.342 470.069 212.83 469.925 212.366 469.637C211.91 469.349 211.546 468.945 211.274 468.425C211.01 467.897 210.878 467.293 210.878 466.613ZM216.11 466.637C216.11 466.229 216.03 465.881 215.87 465.593C215.71 465.297 215.494 465.073 215.222 464.921C214.95 464.761 214.658 464.681 214.346 464.681C214.034 464.681 213.746 464.757 213.482 464.909C213.218 465.061 213.002 465.285 212.834 465.581C212.674 465.869 212.594 466.213 212.594 466.613C212.594 467.013 212.674 467.365 212.834 467.669C213.002 467.965 213.218 468.193 213.482 468.353C213.754 468.513 214.042 468.593 214.346 468.593C214.658 468.593 214.95 468.517 215.222 468.365C215.494 468.205 215.71 467.981 215.87 467.693C216.03 467.397 216.11 467.045 216.11 466.637ZM225.803 463.313L221.687 473.105H219.899L221.339 469.793L218.675 463.313H220.559L222.275 467.957L224.015 463.313H225.803ZM226.277 466.613C226.277 465.941 226.409 465.345 226.673 464.825C226.945 464.305 227.309 463.905 227.765 463.625C228.229 463.345 228.745 463.205 229.313 463.205C229.809 463.205 230.241 463.305 230.609 463.505C230.985 463.705 231.285 463.957 231.509 464.261V463.313H233.201V469.961H231.509V468.989C231.293 469.301 230.993 469.561 230.609 469.769C230.233 469.969 229.797 470.069 229.301 470.069C228.741 470.069 228.229 469.925 227.765 469.637C227.309 469.349 226.945 468.945 226.673 468.425C226.409 467.897 226.277 467.293 226.277 466.613ZM231.509 466.637C231.509 466.229 231.429 465.881 231.269 465.593C231.109 465.297 230.893 465.073 230.621 464.921C230.349 464.761 230.057 464.681 229.745 464.681C229.433 464.681 229.145 464.757 228.881 464.909C228.617 465.061 228.401 465.285 228.233 465.581C228.073 465.869 227.993 466.213 227.993 466.613C227.993 467.013 228.073 467.365 228.233 467.669C228.401 467.965 228.617 468.193 228.881 468.353C229.153 468.513 229.441 468.593 229.745 468.593C230.057 468.593 230.349 468.517 230.621 468.365C230.893 468.205 231.109 467.981 231.269 467.693C231.429 467.397 231.509 467.045 231.509 466.637ZM236.522 464.345C236.738 463.993 237.018 463.717 237.362 463.517C237.714 463.317 238.114 463.217 238.562 463.217V464.981H238.118C237.59 464.981 237.19 465.105 236.918 465.353C236.654 465.601 236.522 466.033 236.522 466.649V469.961H234.842V463.313H236.522V464.345ZM239.261 466.613C239.261 465.941 239.393 465.345 239.657 464.825C239.929 464.305 240.293 463.905 240.749 463.625C241.213 463.345 241.729 463.205 242.297 463.205C242.793 463.205 243.225 463.305 243.593 463.505C243.969 463.705 244.269 463.957 244.493 464.261V463.313H246.185V469.961H244.493V468.989C244.277 469.301 243.977 469.561 243.593 469.769C243.217 469.969 242.781 470.069 242.285 470.069C241.725 470.069 241.213 469.925 240.749 469.637C240.293 469.349 239.929 468.945 239.657 468.425C239.393 467.897 239.261 467.293 239.261 466.613ZM244.493 466.637C244.493 466.229 244.413 465.881 244.253 465.593C244.093 465.297 243.877 465.073 243.605 464.921C243.333 464.761 243.041 464.681 242.729 464.681C242.417 464.681 242.129 464.757 241.865 464.909C241.601 465.061 241.385 465.285 241.217 465.581C241.057 465.869 240.977 466.213 240.977 466.613C240.977 467.013 241.057 467.365 241.217 467.669C241.385 467.965 241.601 468.193 241.865 468.353C242.137 468.513 242.425 468.593 242.729 468.593C243.041 468.593 243.333 468.517 243.605 468.365C243.877 468.205 244.093 467.981 244.253 467.693C244.413 467.397 244.493 467.045 244.493 466.637ZM251.51 463.217C252.302 463.217 252.942 463.469 253.43 463.973C253.918 464.469 254.162 465.165 254.162 466.061V469.961H252.482V466.289C252.482 465.761 252.35 465.357 252.086 465.077C251.822 464.789 251.462 464.645 251.006 464.645C250.542 464.645 250.174 464.789 249.902 465.077C249.638 465.357 249.506 465.761 249.506 466.289V469.961H247.826V463.313H249.506V464.141C249.73 463.853 250.014 463.629 250.358 463.469C250.71 463.301 251.094 463.217 251.51 463.217Z" fill="#596773"/>
<path d="M213 409C239.51 409 261 387.51 261 361C261 334.49 239.51 313 213 313C186.49 313 165 334.49 165 361C165 387.51 186.49 409 213 409Z" fill="#3A9286"/>
<path d="M192.211 391.23C191.515 390.778 191.319 389.85 191.77 389.154L198.714 378.462C199.166 377.766 200.094 377.569 200.789 378.02C201.484 378.472 201.681 379.401 201.23 380.096L194.286 390.789C193.835 391.484 192.906 391.681 192.211 391.23Z" fill="#596773"/>
<path d="M233.789 391.23C234.485 390.778 234.681 389.85 234.23 389.154L227.286 378.462C226.835 377.766 225.906 377.569 225.211 378.02C224.516 378.472 224.319 379.401 224.77 380.096L231.714 390.789C232.166 391.484 233.094 391.681 233.789 391.23Z" fill="#596773"/>
<path d="M212.25 350.5C211.422 350.5 210.75 349.828 210.75 349V336.25C210.75 335.422 211.422 334.75 212.25 334.75C213.078 334.75 213.75 335.422 213.75 336.25V349C213.75 349.829 213.078 350.5 212.25 350.5Z" fill="#242424"/>
<path d="M245.25 340.75C245.25 342.407 243.907 343.75 242.25 343.75H183C181.343 343.75 180 342.407 180 340.75C180 339.093 181.343 337.75 183 337.75H242.25C243.907 337.75 245.25 339.093 245.25 340.75Z" fill="#596773"/>
<path d="M242.25 343.75V378.25C242.25 379.9 240.9 381.25 239.25 381.25H186C184.35 381.25 183 379.9 183 378.25V343.75H242.25Z" fill="#E8EBED"/>
<path d="M208.5 358.75C208.308 358.75 208.116 358.677 207.97 358.53C207.676 358.237 207.676 357.763 207.97 357.47L211.72 353.72C212.013 353.427 212.487 353.427 212.78 353.72C213.073 354.013 213.073 354.487 212.78 354.78L209.03 358.53C208.884 358.677 208.692 358.75 208.5 358.75Z" fill="#8AD0C7"/>
<path d="M212.25 358.75C212.058 358.75 211.866 358.677 211.72 358.53L207.97 354.78C207.676 354.487 207.676 354.013 207.97 353.72C208.263 353.427 208.737 353.427 209.03 353.72L212.78 357.47C213.073 357.763 213.073 358.237 212.78 358.53C212.634 358.677 212.442 358.75 212.25 358.75Z" fill="#8AD0C7"/>
<path d="M212.25 376.75C212.058 376.75 211.866 376.676 211.72 376.53C211.426 376.237 211.426 375.763 211.72 375.47L215.47 371.72C215.763 371.426 216.237 371.426 216.53 371.72C216.823 372.013 216.823 372.487 216.53 372.78L212.78 376.53C212.634 376.676 212.442 376.75 212.25 376.75Z" fill="#8AD0C7"/>
<path d="M216 376.75C215.808 376.75 215.616 376.676 215.47 376.53L211.72 372.78C211.426 372.487 211.426 372.013 211.72 371.72C212.013 371.426 212.487 371.426 212.78 371.72L216.53 375.47C216.823 375.763 216.823 376.237 216.53 376.53C216.384 376.676 216.192 376.75 216 376.75Z" fill="#8AD0C7"/>
<path d="M218.25 368.5C218.058 368.5 217.866 368.426 217.72 368.28C217.426 367.987 217.426 367.513 217.72 367.22L221.47 363.47C221.763 363.176 222.237 363.176 222.53 363.47C222.823 363.763 222.823 364.237 222.53 364.53L218.78 368.28C218.634 368.426 218.442 368.5 218.25 368.5Z" fill="#8AD0C7"/>
<path d="M222 368.5C221.808 368.5 221.616 368.426 221.47 368.28L217.72 364.53C217.426 364.237 217.426 363.763 217.72 363.47C218.013 363.176 218.487 363.176 218.78 363.47L222.53 367.22C222.823 367.513 222.823 367.987 222.53 368.28C222.384 368.426 222.192 368.5 222 368.5Z" fill="#8AD0C7"/>
<path d="M221.25 353.5C219.595 353.5 218.25 352.155 218.25 350.5C218.25 348.845 219.595 347.5 221.25 347.5C222.905 347.5 224.25 348.845 224.25 350.5C224.25 352.155 222.905 353.5 221.25 353.5ZM221.25 349C220.423 349 219.75 349.673 219.75 350.5C219.75 351.327 220.423 352 221.25 352C222.077 352 222.75 351.327 222.75 350.5C222.75 349.673 222.077 349 221.25 349Z" fill="#596773"/>
<path d="M205.5 375.25C203.845 375.25 202.5 373.905 202.5 372.25C202.5 370.595 203.845 369.25 205.5 369.25C207.155 369.25 208.5 370.595 208.5 372.25C208.5 373.905 207.155 375.25 205.5 375.25ZM205.5 370.75C204.673 370.75 204 371.422 204 372.25C204 373.078 204.673 373.75 205.5 373.75C206.327 373.75 207 373.078 207 372.25C207 371.422 206.327 370.75 205.5 370.75Z" fill="#596773"/>
<path d="M205.5 367.75C205.085 367.75 204.75 367.414 204.75 367C204.75 362.792 209.652 361.872 213.977 361.061C217.331 360.432 220.5 359.838 220.5 358V356.5C220.5 356.086 220.835 355.75 221.25 355.75C221.665 355.75 222 356.086 222 356.5V358C222 361.083 218.062 361.821 214.253 362.535C209.567 363.413 206.25 364.248 206.25 367C206.25 367.414 205.915 367.75 205.5 367.75Z" fill="#596773"/>
<path d="M223.5 358C223.308 358 223.116 357.926 222.97 357.78L221.25 356.061L219.53 357.78C219.237 358.073 218.763 358.073 218.47 357.78C218.176 357.487 218.176 357.013 218.47 356.72L220.72 354.47C221.013 354.177 221.487 354.177 221.78 354.47L224.03 356.72C224.323 357.013 224.323 357.487 224.03 357.78C223.884 357.926 223.692 358 223.5 358Z" fill="#596773"/>
<path d="M242.25 343.75H183V344.5H242.25V343.75Z" fill="#B3B3B3"/>
<path d="M329.593 450.404H326.257L325.705 452H323.941L326.953 443.612H328.909L331.921 452H330.145L329.593 450.404ZM329.137 449.06L327.925 445.556L326.713 449.06H329.137ZM333.899 444.56C333.595 444.56 333.343 444.468 333.143 444.284C332.951 444.092 332.855 443.856 332.855 443.576C332.855 443.296 332.951 443.064 333.143 442.88C333.343 442.688 333.595 442.592 333.899 442.592C334.195 442.592 334.439 442.688 334.631 442.88C334.823 443.064 334.919 443.296 334.919 443.576C334.919 443.856 334.823 444.092 334.631 444.284C334.439 444.468 334.195 444.56 333.899 444.56ZM334.727 453.092C334.727 453.828 334.543 454.356 334.175 454.676C333.815 455.004 333.295 455.168 332.615 455.168H331.871V453.74H332.351C332.607 453.74 332.787 453.688 332.891 453.584C332.995 453.488 333.047 453.328 333.047 453.104V445.352H334.727V453.092ZM342.663 445.352V452H340.971V451.16C340.755 451.448 340.471 451.676 340.119 451.844C339.775 452.004 339.399 452.084 338.991 452.084C338.471 452.084 338.011 451.976 337.611 451.76C337.211 451.536 336.895 451.212 336.663 450.788C336.439 450.356 336.327 449.844 336.327 449.252V445.352H338.007V449.012C338.007 449.54 338.139 449.948 338.403 450.236C338.667 450.516 339.027 450.656 339.483 450.656C339.947 450.656 340.311 450.516 340.575 450.236C340.839 449.948 340.971 449.54 340.971 449.012V445.352H342.663ZM348.256 452L346 449.168V452H344.32V443.12H346V448.172L348.232 445.352H350.416L347.488 448.688L350.44 452H348.256ZM350.896 448.652C350.896 447.98 351.028 447.384 351.292 446.864C351.564 446.344 351.928 445.944 352.384 445.664C352.848 445.384 353.364 445.244 353.932 445.244C354.428 445.244 354.86 445.344 355.228 445.544C355.604 445.744 355.904 445.996 356.128 446.3V445.352H357.82V452H356.128V451.028C355.912 451.34 355.612 451.6 355.228 451.808C354.852 452.008 354.416 452.108 353.92 452.108C353.36 452.108 352.848 451.964 352.384 451.676C351.928 451.388 351.564 450.984 351.292 450.464C351.028 449.936 350.896 449.332 350.896 448.652ZM356.128 448.676C356.128 448.268 356.048 447.92 355.888 447.632C355.728 447.336 355.512 447.112 355.24 446.96C354.968 446.8 354.676 446.72 354.364 446.72C354.052 446.72 353.764 446.796 353.5 446.948C353.236 447.1 353.02 447.324 352.852 447.62C352.692 447.908 352.612 448.252 352.612 448.652C352.612 449.052 352.692 449.404 352.852 449.708C353.02 450.004 353.236 450.232 353.5 450.392C353.772 450.552 354.06 450.632 354.364 450.632C354.676 450.632 354.968 450.556 355.24 450.404C355.512 450.244 355.728 450.02 355.888 449.732C356.048 449.436 356.128 449.084 356.128 448.676ZM363.145 445.256C363.937 445.256 364.577 445.508 365.065 446.012C365.553 446.508 365.797 447.204 365.797 448.1V452H364.117V448.328C364.117 447.8 363.985 447.396 363.721 447.116C363.457 446.828 363.097 446.684 362.641 446.684C362.177 446.684 361.809 446.828 361.537 447.116C361.273 447.396 361.141 447.8 361.141 448.328V452H359.461V445.352H361.141V446.18C361.365 445.892 361.649 445.668 361.993 445.508C362.345 445.34 362.729 445.256 363.145 445.256ZM374.982 452L371.934 448.268V452H370.254V443.624H371.934V447.38L374.982 443.624H377.01L373.554 447.776L377.106 452H374.982ZM384.319 446.216C384.319 446.664 384.211 447.084 383.995 447.476C383.787 447.868 383.455 448.184 382.999 448.424C382.551 448.664 381.983 448.784 381.295 448.784H379.891V452H378.211V443.624H381.295C381.943 443.624 382.495 443.736 382.951 443.96C383.407 444.184 383.747 444.492 383.971 444.884C384.203 445.276 384.319 445.72 384.319 446.216ZM381.223 447.428C381.687 447.428 382.031 447.324 382.255 447.116C382.479 446.9 382.591 446.6 382.591 446.216C382.591 445.4 382.135 444.992 381.223 444.992H379.891V447.428H381.223ZM389.832 452L387.984 448.736H387.192V452H385.512V443.624H388.656C389.304 443.624 389.856 443.74 390.312 443.972C390.768 444.196 391.108 444.504 391.332 444.896C391.564 445.28 391.68 445.712 391.68 446.192C391.68 446.744 391.52 447.244 391.2 447.692C390.88 448.132 390.404 448.436 389.772 448.604L391.776 452H389.832ZM387.192 447.476H388.596C389.052 447.476 389.392 447.368 389.616 447.152C389.84 446.928 389.952 446.62 389.952 446.228C389.952 445.844 389.84 445.548 389.616 445.34C389.392 445.124 389.052 445.016 388.596 445.016H387.192V447.476Z" fill="#596773"/>
<path d="M364 409C390.51 409 412 387.51 412 361C412 334.49 390.51 313 364 313C337.49 313 316 334.49 316 361C316 387.51 337.49 409 364 409Z" fill="#3A9286"/>
<g filter="url(#filter2_d_34:2)">
<rect x="337" y="330" width="53" height="62" fill="white"/>
<rect x="336.75" y="329.75" width="53.5" height="62.5" stroke="#3A9286" stroke-width="0.5"/>
</g>
<ellipse cx="344.293" cy="349.569" rx="1.41895" ry="1.36772" fill="#E2F3F1"/>
<rect x="350.252" y="348.201" width="34.6223" height="2.73545" fill="#8AD0C7"/>
<ellipse cx="344.009" cy="367.121" rx="1.41895" ry="1.36772" fill="#E2F3F1"/>
<rect x="349.969" y="365.753" width="34.6223" height="2.73545" fill="#8AD0C7"/>
<ellipse cx="344.151" cy="378.795" rx="1.41895" ry="1.36772" fill="#E2F3F1"/>
<rect x="349.969" y="377.427" width="34.6223" height="2.73545" fill="#8AD0C7"/>
<ellipse cx="344.293" cy="355.328" rx="1.41895" ry="1.36772" fill="#E2F3F1"/>
<rect x="350.252" y="353.96" width="34.6223" height="2.73545" fill="#8AD0C7"/>
<ellipse cx="344.293" cy="361.087" rx="1.41895" ry="1.36772" fill="#E2F3F1"/>
<rect x="350.252" y="359.719" width="34.6223" height="2.73545" fill="#8AD0C7"/>
<ellipse cx="344.293" cy="373.036" rx="1.41895" ry="1.36772" fill="#E2F3F1"/>
<rect x="350.11" y="371.669" width="34.6223" height="2.73545" fill="#8AD0C7"/>
<rect x="349" y="338" width="29" height="3" fill="#8AD0C7"/>
<path d="M499.017 447L497.169 443.736H496.377V447H494.697V438.624H497.841C498.489 438.624 499.041 438.74 499.497 438.972C499.953 439.196 500.293 439.504 500.517 439.896C500.749 440.28 500.865 440.712 500.865 441.192C500.865 441.744 500.705 442.244 500.385 442.692C500.065 443.132 499.589 443.436 498.957 443.604L500.961 447H499.017ZM496.377 442.476H497.781C498.237 442.476 498.577 442.368 498.801 442.152C499.025 441.928 499.137 441.62 499.137 441.228C499.137 440.844 499.025 440.548 498.801 440.34C498.577 440.124 498.237 440.016 497.781 440.016H496.377V442.476ZM508.661 440.352V447H506.969V446.16C506.753 446.448 506.469 446.676 506.117 446.844C505.773 447.004 505.397 447.084 504.989 447.084C504.469 447.084 504.009 446.976 503.609 446.76C503.209 446.536 502.893 446.212 502.661 445.788C502.437 445.356 502.325 444.844 502.325 444.252V440.352H504.005V444.012C504.005 444.54 504.137 444.948 504.401 445.236C504.665 445.516 505.025 445.656 505.481 445.656C505.945 445.656 506.309 445.516 506.573 445.236C506.837 444.948 506.969 444.54 506.969 444.012V440.352H508.661ZM518.574 440.256C519.39 440.256 520.046 440.508 520.542 441.012C521.046 441.508 521.298 442.204 521.298 443.1V447H519.618V443.328C519.618 442.808 519.486 442.412 519.222 442.14C518.958 441.86 518.598 441.72 518.142 441.72C517.686 441.72 517.322 441.86 517.05 442.14C516.786 442.412 516.654 442.808 516.654 443.328V447H514.974V443.328C514.974 442.808 514.842 442.412 514.578 442.14C514.314 441.86 513.954 441.72 513.498 441.72C513.034 441.72 512.666 441.86 512.394 442.14C512.13 442.412 511.998 442.808 511.998 443.328V447H510.318V440.352H511.998V441.156C512.214 440.876 512.49 440.656 512.826 440.496C513.17 440.336 513.546 440.256 513.954 440.256C514.474 440.256 514.938 440.368 515.346 440.592C515.754 440.808 516.07 441.12 516.294 441.528C516.51 441.144 516.822 440.836 517.23 440.604C517.646 440.372 518.094 440.256 518.574 440.256ZM522.46 443.652C522.46 442.98 522.592 442.384 522.856 441.864C523.128 441.344 523.492 440.944 523.948 440.664C524.412 440.384 524.928 440.244 525.496 440.244C525.992 440.244 526.424 440.344 526.792 440.544C527.168 440.744 527.468 440.996 527.692 441.3V440.352H529.384V447H527.692V446.028C527.476 446.34 527.176 446.6 526.792 446.808C526.416 447.008 525.98 447.108 525.484 447.108C524.924 447.108 524.412 446.964 523.948 446.676C523.492 446.388 523.128 445.984 522.856 445.464C522.592 444.936 522.46 444.332 522.46 443.652ZM527.692 443.676C527.692 443.268 527.612 442.92 527.452 442.632C527.292 442.336 527.076 442.112 526.804 441.96C526.532 441.8 526.24 441.72 525.928 441.72C525.616 441.72 525.328 441.796 525.064 441.948C524.8 442.1 524.584 442.324 524.416 442.62C524.256 442.908 524.176 443.252 524.176 443.652C524.176 444.052 524.256 444.404 524.416 444.708C524.584 445.004 524.8 445.232 525.064 445.392C525.336 445.552 525.624 445.632 525.928 445.632C526.24 445.632 526.532 445.556 526.804 445.404C527.076 445.244 527.292 445.02 527.452 444.732C527.612 444.436 527.692 444.084 527.692 443.676ZM534.769 440.256C535.273 440.256 535.721 440.368 536.113 440.592C536.505 440.808 536.809 441.132 537.025 441.564C537.249 441.988 537.361 442.5 537.361 443.1V447H535.681V443.328C535.681 442.8 535.549 442.396 535.285 442.116C535.021 441.828 534.661 441.684 534.205 441.684C533.741 441.684 533.373 441.828 533.101 442.116C532.837 442.396 532.705 442.8 532.705 443.328V447H531.025V438.12H532.705V441.18C532.921 440.892 533.209 440.668 533.569 440.508C533.929 440.34 534.329 440.256 534.769 440.256ZM478.957 456.624V465H477.277V456.624H478.957ZM488.873 458.256C489.689 458.256 490.345 458.508 490.841 459.012C491.345 459.508 491.597 460.204 491.597 461.1V465H489.917V461.328C489.917 460.808 489.785 460.412 489.521 460.14C489.257 459.86 488.897 459.72 488.441 459.72C487.985 459.72 487.621 459.86 487.349 460.14C487.085 460.412 486.953 460.808 486.953 461.328V465H485.273V461.328C485.273 460.808 485.141 460.412 484.877 460.14C484.613 459.86 484.253 459.72 483.797 459.72C483.333 459.72 482.965 459.86 482.693 460.14C482.429 460.412 482.297 460.808 482.297 461.328V465H480.617V458.352H482.297V459.156C482.513 458.876 482.789 458.656 483.125 458.496C483.469 458.336 483.845 458.256 484.253 458.256C484.773 458.256 485.237 458.368 485.645 458.592C486.053 458.808 486.369 459.12 486.593 459.528C486.809 459.144 487.121 458.836 487.529 458.604C487.945 458.372 488.393 458.256 488.873 458.256ZM494.871 459.312C495.087 459.008 495.383 458.756 495.759 458.556C496.143 458.348 496.579 458.244 497.067 458.244C497.635 458.244 498.147 458.384 498.603 458.664C499.067 458.944 499.431 459.344 499.695 459.864C499.967 460.376 500.103 460.972 500.103 461.652C500.103 462.332 499.967 462.936 499.695 463.464C499.431 463.984 499.067 464.388 498.603 464.676C498.147 464.964 497.635 465.108 497.067 465.108C496.579 465.108 496.147 465.008 495.771 464.808C495.403 464.608 495.103 464.356 494.871 464.052V468.168H493.191V458.352H494.871V459.312ZM498.387 461.652C498.387 461.252 498.303 460.908 498.135 460.62C497.975 460.324 497.759 460.1 497.487 459.948C497.223 459.796 496.935 459.72 496.623 459.72C496.319 459.72 496.031 459.8 495.759 459.96C495.495 460.112 495.279 460.336 495.111 460.632C494.951 460.928 494.871 461.276 494.871 461.676C494.871 462.076 494.951 462.424 495.111 462.72C495.279 463.016 495.495 463.244 495.759 463.404C496.031 463.556 496.319 463.632 496.623 463.632C496.935 463.632 497.223 463.552 497.487 463.392C497.759 463.232 497.975 463.004 498.135 462.708C498.303 462.412 498.387 462.06 498.387 461.652ZM502.176 457.56C501.88 457.56 501.632 457.468 501.432 457.284C501.24 457.092 501.144 456.856 501.144 456.576C501.144 456.296 501.24 456.064 501.432 455.88C501.632 455.688 501.88 455.592 502.176 455.592C502.472 455.592 502.716 455.688 502.908 455.88C503.108 456.064 503.208 456.296 503.208 456.576C503.208 456.856 503.108 457.092 502.908 457.284C502.716 457.468 502.472 457.56 502.176 457.56ZM503.004 458.352V465H501.324V458.352H503.004ZM504.232 461.652C504.232 460.98 504.364 460.384 504.628 459.864C504.9 459.344 505.264 458.944 505.72 458.664C506.184 458.384 506.7 458.244 507.268 458.244C507.764 458.244 508.196 458.344 508.564 458.544C508.94 458.744 509.24 458.996 509.464 459.3V458.352H511.156V465H509.464V464.028C509.248 464.34 508.948 464.6 508.564 464.808C508.188 465.008 507.752 465.108 507.256 465.108C506.696 465.108 506.184 464.964 505.72 464.676C505.264 464.388 504.9 463.984 504.628 463.464C504.364 462.936 504.232 462.332 504.232 461.652ZM509.464 461.676C509.464 461.268 509.384 460.92 509.224 460.632C509.064 460.336 508.848 460.112 508.576 459.96C508.304 459.8 508.012 459.72 507.7 459.72C507.388 459.72 507.1 459.796 506.836 459.948C506.572 460.1 506.356 460.324 506.188 460.62C506.028 460.908 505.948 461.252 505.948 461.652C505.948 462.052 506.028 462.404 506.188 462.708C506.356 463.004 506.572 463.232 506.836 463.392C507.108 463.552 507.396 463.632 507.7 463.632C508.012 463.632 508.304 463.556 508.576 463.404C508.848 463.244 509.064 463.02 509.224 462.732C509.384 462.436 509.464 462.084 509.464 461.676ZM516.481 458.256C517.273 458.256 517.913 458.508 518.401 459.012C518.889 459.508 519.133 460.204 519.133 461.1V465H517.453V461.328C517.453 460.8 517.321 460.396 517.057 460.116C516.793 459.828 516.433 459.684 515.977 459.684C515.513 459.684 515.145 459.828 514.873 460.116C514.609 460.396 514.477 460.8 514.477 461.328V465H512.797V458.352H514.477V459.18C514.701 458.892 514.985 458.668 515.329 458.508C515.681 458.34 516.065 458.256 516.481 458.256ZM528.726 463.404H525.39L524.838 465H523.074L526.086 456.612H528.042L531.054 465H529.278L528.726 463.404ZM528.27 462.06L527.058 458.556L525.846 462.06H528.27ZM535.864 458.256C536.656 458.256 537.296 458.508 537.784 459.012C538.272 459.508 538.516 460.204 538.516 461.1V465H536.836V461.328C536.836 460.8 536.704 460.396 536.44 460.116C536.176 459.828 535.816 459.684 535.36 459.684C534.896 459.684 534.528 459.828 534.256 460.116C533.992 460.396 533.86 460.8 533.86 461.328V465H532.18V458.352H533.86V459.18C534.084 458.892 534.368 458.668 534.712 458.508C535.064 458.34 535.448 458.256 535.864 458.256ZM539.681 461.652C539.681 460.98 539.813 460.384 540.077 459.864C540.349 459.344 540.717 458.944 541.181 458.664C541.645 458.384 542.161 458.244 542.729 458.244C543.161 458.244 543.573 458.34 543.965 458.532C544.357 458.716 544.669 458.964 544.901 459.276V456.12H546.605V465H544.901V464.016C544.693 464.344 544.401 464.608 544.025 464.808C543.649 465.008 543.213 465.108 542.717 465.108C542.157 465.108 541.645 464.964 541.181 464.676C540.717 464.388 540.349 463.984 540.077 463.464C539.813 462.936 539.681 462.332 539.681 461.652ZM544.913 461.676C544.913 461.268 544.833 460.92 544.673 460.632C544.513 460.336 544.297 460.112 544.025 459.96C543.753 459.8 543.461 459.72 543.149 459.72C542.837 459.72 542.549 459.796 542.285 459.948C542.021 460.1 541.805 460.324 541.637 460.62C541.477 460.908 541.397 461.252 541.397 461.652C541.397 462.052 541.477 462.404 541.637 462.708C541.805 463.004 542.021 463.232 542.285 463.392C542.557 463.552 542.845 463.632 543.149 463.632C543.461 463.632 543.753 463.556 544.025 463.404C544.297 463.244 544.513 463.02 544.673 462.732C544.833 462.436 544.913 462.084 544.913 461.676ZM547.814 461.652C547.814 460.98 547.946 460.384 548.21 459.864C548.482 459.344 548.846 458.944 549.302 458.664C549.766 458.384 550.282 458.244 550.85 458.244C551.346 458.244 551.778 458.344 552.146 458.544C552.522 458.744 552.822 458.996 553.046 459.3V458.352H554.738V465H553.046V464.028C552.83 464.34 552.53 464.6 552.146 464.808C551.77 465.008 551.334 465.108 550.838 465.108C550.278 465.108 549.766 464.964 549.302 464.676C548.846 464.388 548.482 463.984 548.21 463.464C547.946 462.936 547.814 462.332 547.814 461.652ZM553.046 461.676C553.046 461.268 552.966 460.92 552.806 460.632C552.646 460.336 552.43 460.112 552.158 459.96C551.886 459.8 551.594 459.72 551.282 459.72C550.97 459.72 550.682 459.796 550.418 459.948C550.154 460.1 549.938 460.324 549.77 460.62C549.61 460.908 549.53 461.252 549.53 461.652C549.53 462.052 549.61 462.404 549.77 462.708C549.938 463.004 550.154 463.232 550.418 463.392C550.69 463.552 550.978 463.632 551.282 463.632C551.594 463.632 551.886 463.556 552.158 463.404C552.43 463.244 552.646 463.02 552.806 462.732C552.966 462.436 553.046 462.084 553.046 461.676Z" fill="#596773"/>
<path d="M515 409C541.51 409 563 387.51 563 361C563 334.49 541.51 313 515 313C488.49 313 467 334.49 467 361C467 387.51 488.49 409 515 409Z" fill="#3A9286"/>
<path d="M449.707 362.707C450.098 362.317 450.098 361.683 449.707 361.293L443.343 354.929C442.953 354.538 442.319 354.538 441.929 354.929C441.538 355.319 441.538 355.953 441.929 356.343L447.586 362L441.929 367.657C441.538 368.047 441.538 368.681 441.929 369.071C442.319 369.462 442.953 369.462 443.343 369.071L449.707 362.707ZM424 363H449V361H424V363Z" fill="#596773"/>
<path d="M304.707 361.707C305.098 361.317 305.098 360.683 304.707 360.293L298.343 353.929C297.953 353.538 297.319 353.538 296.929 353.929C296.538 354.319 296.538 354.953 296.929 355.343L302.586 361L296.929 366.657C296.538 367.047 296.538 367.681 296.929 368.071C297.319 368.462 297.953 368.462 298.343 368.071L304.707 361.707ZM279 362H304V360H279V362Z" fill="#596773"/>
<rect x="502.446" y="337.787" width="62.1448" height="5.21119" transform="rotate(44.2194 502.446 337.787)" fill="#E8EBED"/>
<path d="M503.5 358.277C503.9 359.877 502 365.444 501 367.777L514.5 376.777C518.833 375.277 522.7 375 527.5 371C533.5 366 531.5 364.5 535 360.5C538 357.5 534.5 354 532 356.5C536 351.5 530.5 349.277 528.5 352C531.438 348 526.5 345.5 524 348.5C527 343 518.857 344 517 347C510.5 357.5 509 347.5 505.5 349.277C503.609 350.238 503 356.277 503.5 358.277Z" fill="#596773"/>
<path d="M500.006 367.359L516.16 377.426L499.62 403.968C495.967 402.344 494.144 401.441 491.327 399.837C488.464 397.985 486.769 396.744 483.465 393.901L500.006 367.359Z" fill="#E8EBED"/>
<path d="M497.828 367.996L516.499 379.632L499.524 406.872C495.34 404.934 493.246 403.868 490 402C486.687 399.866 484.717 398.449 480.853 395.236L497.828 367.996Z" fill="#596773"/>
<rect x="527.173" y="378.997" width="12.4609" height="5" transform="rotate(-46.0664 527.173 378.997)" fill="#A3AEB8"/>
<rect x="535" y="386.974" width="12.4609" height="5" transform="rotate(-46.0664 535 386.974)" fill="#A3AEB8"/>
<rect x="498.931" y="320.353" width="21.1235" height="25.1262" transform="rotate(42.6651 498.931 320.353)" fill="#A3AEB8"/>
<rect x="499.207" y="324" width="15.8325" height="19.6152" transform="rotate(42.6651 499.207 324)" fill="#E8EBED"/>
<defs>
<filter id="filter0_d_34:2" x="0" y="0" width="391" height="459" filterUnits="userSpaceOnUse" color-interpolation-filters="sRGB">
<feFlood flood-opacity="0" result="BackgroundImageFix"/>
<feColorMatrix in="SourceAlpha" type="matrix" values="0 0 0 0 0 0 0 0 0 0 0 0 0 0 0 0 0 0 127 0" result="hardAlpha"/>
<feOffset/>
<feGaussianBlur stdDeviation="10"/>
<feComposite in2="hardAlpha" operator="out"/>
<feColorMatrix type="matrix" values="0 0 0 0 0 0 0 0 0 0 0 0 0 0 0 0 0 0 0.1 0"/>
<feBlend mode="normal" in2="BackgroundImageFix" result="effect1_dropShadow_34:2"/>
<feBlend mode="normal" in="SourceGraphic" in2="effect1_dropShadow_34:2" result="shape"/>
</filter>
<filter id="filter1_d_34:2" x="120" y="266" width="488" height="248" filterUnits="userSpaceOnUse" color-interpolation-filters="sRGB">
<feFlood flood-opacity="0" result="BackgroundImageFix"/>
<feColorMatrix in="SourceAlpha" type="matrix" values="0 0 0 0 0 0 0 0 0 0 0 0 0 0 0 0 0 0 127 0" result="hardAlpha"/>
<feOffset/>
<feGaussianBlur stdDeviation="10"/>
<feComposite in2="hardAlpha" operator="out"/>
<feColorMatrix type="matrix" values="0 0 0 0 0 0 0 0 0 0 0 0 0 0 0 0 0 0 0.1 0"/>
<feBlend mode="normal" in2="BackgroundImageFix" result="effect1_dropShadow_34:2"/>
<feBlend mode="normal" in="SourceGraphic" in2="effect1_dropShadow_34:2" result="shape"/>
</filter>
<filter id="filter2_d_34:2" x="336.5" y="329.5" width="60" height="69" filterUnits="userSpaceOnUse" color-interpolation-filters="sRGB">
<feFlood flood-opacity="0" result="BackgroundImageFix"/>
<feColorMatrix in="SourceAlpha" type="matrix" values="0 0 0 0 0 0 0 0 0 0 0 0 0 0 0 0 0 0 127 0" result="hardAlpha"/>
<feOffset dx="4" dy="4"/>
<feGaussianBlur stdDeviation="1"/>
<feComposite in2="hardAlpha" operator="out"/>
<feColorMatrix type="matrix" values="0 0 0 0 0 0 0 0 0 0 0 0 0 0 0 0 0 0 0.1 0"/>
<feBlend mode="normal" in2="BackgroundImageFix" result="effect1_dropShadow_34:2"/>
<feBlend mode="normal" in="SourceGraphic" in2="effect1_dropShadow_34:2" result="shape"/>
</filter>
</defs>
</svg>
