<svg width="245" height="126" viewBox="0 0 245 126" fill="none" xmlns="http://www.w3.org/2000/svg">
<path d="M5.13281 49.7422C4.57031 49.9297 3.98438 49.9062 3.375 49.6719C2.8125 49.3906 2.29688 48.9688 1.82812 48.4062C1.35938 47.8438 0.984375 47.1875 0.703125 46.4375C0.46875 45.6875 0.351562 44.8906 0.351562 44.0469C0.960938 43.9531 1.61719 43.8594 2.32031 43.7656C3.02344 43.625 3.67969 43.5078 4.28906 43.4141C4.99219 43.3203 5.67188 43.2266 6.32812 43.1328C6.375 40.4141 6.42188 37.8359 6.46875 35.3984C6.5625 32.9141 6.63281 30.7109 6.67969 28.7891C6.77344 26.8203 6.84375 25.1797 6.89062 23.8672C6.98438 22.5078 7.05469 21.5937 7.10156 21.125C7.10156 20.8906 7.21875 20.6563 7.45312 20.4219C7.82812 20.1406 8.36719 19.7422 9.07031 19.2266C9.82031 18.7109 10.6641 18.2422 11.6016 17.8203C12.3984 17.4922 12.9141 17.6094 13.1484 18.1719C13.4297 18.6875 13.5703 19.6953 13.5703 21.1953C13.4766 23.3047 13.3828 26.1406 13.2891 29.7031C13.1953 33.2656 13.1016 37.4609 13.0078 42.2891C13.7578 42.1953 14.4844 42.125 15.1875 42.0781C15.8906 42.0312 16.6406 41.9844 17.4375 41.9375C19.5938 41.8438 21.6797 41.7266 23.6953 41.5859C25.7578 41.4453 27.5625 41.4453 29.1094 41.5859C29.3438 34.8828 29.4141 29.8672 29.3203 26.5391C29.2266 23.1641 29.1797 21.1719 29.1797 20.5625C29.1797 20.2812 29.4844 19.9531 30.0938 19.5781C30.7031 19.2031 31.3594 18.875 32.0625 18.5938C32.8125 18.2656 33.4922 18.0547 34.1016 17.9609C34.7109 17.8203 35.0391 17.8438 35.0859 18.0312C35.1328 18.3594 35.1328 19.1797 35.0859 20.4922C35.0859 21.8047 35.0625 23.6562 35.0156 26.0469C35.0156 28.3906 35.0156 31.3203 35.0156 34.8359C35.0625 38.3516 35.1562 42.4531 35.2969 47.1406C35.2031 49.2969 35.1562 51.5469 35.1562 53.8906C35.1562 55.9062 35.2031 58.1562 35.2969 60.6406C35.3906 63.125 35.6016 65.6328 35.9297 68.1641C35.3203 68.6797 34.6641 69.0781 33.9609 69.3594C33.2578 69.6406 32.5781 69.875 31.9219 70.0625C31.1719 70.25 30.4219 70.3906 29.6719 70.4844C29.25 70.5312 28.8984 70.4375 28.6172 70.2031C28.3828 70.0156 28.2188 69.7578 28.125 69.4297C28.0312 69.1484 27.9609 68.8438 27.9141 68.5156C27.9141 68.1875 27.9141 67.8828 27.9141 67.6016C27.9141 66.9922 27.9141 66.4062 27.9141 65.8438C27.9609 65.3281 28.0078 64.9062 28.0547 64.5781C28.1484 62.5625 28.2656 60.125 28.4062 57.2656C28.5469 54.4062 28.6875 51.2188 28.8281 47.7031C28.5 47.6562 28.1953 47.6328 27.9141 47.6328C27.6328 47.5859 27.3047 47.5391 26.9297 47.4922C24.8203 47.3516 22.5234 47.3516 20.0391 47.4922C17.6016 47.6328 15.2109 47.8672 12.8672 48.1953C12.8203 50.4922 12.8203 52.6719 12.8672 54.7344C12.9141 56.75 12.9609 58.6016 13.0078 60.2891C13.1016 61.9297 13.1953 63.3594 13.2891 64.5781C13.3828 65.75 13.4766 66.6172 13.5703 67.1797C13.6172 67.6484 13.5469 67.9766 13.3594 68.1641C13.1719 68.3984 12.8906 68.7031 12.5156 69.0781C12.1875 69.4531 11.7422 69.8047 11.1797 70.1328C10.6641 70.5078 10.0312 70.8125 9.28125 71.0469C8.53125 71.3281 7.66406 71.4688 6.67969 71.4688C6.21094 71.4688 5.97656 71.2578 5.97656 70.8359C5.97656 70.2266 5.97656 69.2656 5.97656 67.9531C6.02344 66.6406 6.04688 65.0469 6.04688 63.1719C6.09375 61.2969 6.11719 59.2109 6.11719 56.9141C6.16406 54.5703 6.21094 52.0859 6.25781 49.4609C6.02344 49.5078 5.8125 49.5547 5.625 49.6016C5.48438 49.6484 5.32031 49.6953 5.13281 49.7422ZM61.1719 52.9062C61.0781 54.7344 60.75 56.4219 60.1875 57.9688C59.6719 59.5156 58.9453 60.875 58.0078 62.0469C57.0703 63.1719 55.9453 64.0625 54.6328 64.7188C53.3672 65.375 51.9609 65.7266 50.4141 65.7734C49.0547 65.8203 47.7656 65.4922 46.5469 64.7891C45.375 64.0859 44.3438 63.1016 43.4531 61.8359C42.5625 60.5703 41.8828 59.0703 41.4141 57.3359C40.9922 55.5547 40.875 53.6328 41.0625 51.5703C41.2031 49.1797 41.6484 47.1406 42.3984 45.4531C43.1484 43.7188 43.9453 42.2891 44.7891 41.1641C45.6328 40.0391 46.4062 39.2188 47.1094 38.7031C47.8594 38.1406 48.3281 37.8125 48.5156 37.7188C48.8438 37.5781 49.1484 37.5547 49.4297 37.6484C49.7109 37.6953 50.0156 37.7656 50.3438 37.8594C50.4375 37.9062 50.5312 38.0234 50.625 38.2109C50.8125 38.5391 50.9297 39.1484 50.9766 40.0391C51.2109 39.5234 51.5156 39.1016 51.8906 38.7734C52.2656 38.4453 52.6406 38.2109 53.0156 38.0703C53.4844 37.8828 53.9531 37.7656 54.4219 37.7188C54.75 37.6719 55.3125 37.9297 56.1094 38.4922C56.9531 39.0547 57.75 39.9453 58.5 41.1641C59.2969 42.3828 59.9766 43.9766 60.5391 45.9453C61.1016 47.8672 61.3125 50.1875 61.1719 52.9062ZM56.3906 52.0625C56.4375 50.9375 56.3906 49.8125 56.25 48.6875C56.1562 47.5156 55.9688 46.4609 55.6875 45.5234C55.4531 44.5391 55.1484 43.7656 54.7734 43.2031C54.3984 42.5938 54.0234 42.2891 53.6484 42.2891C53.2266 42.3828 52.7578 42.5938 52.2422 42.9219C51.8203 43.2031 51.3516 43.6484 50.8359 44.2578C50.3203 44.8672 49.8281 45.7344 49.3594 46.8594C49.3125 46.7188 49.2656 46.4609 49.2188 46.0859C49.1719 45.7578 49.125 45.3359 49.0781 44.8203C49.0781 44.2578 49.125 43.5078 49.2188 42.5703C48.5625 43.3672 48.0469 44.3047 47.6719 45.3828C47.3438 46.4609 47.0859 47.4922 46.8984 48.4766C46.7109 49.6484 46.5703 50.8203 46.4766 51.9922C46.4297 53.2578 46.4766 54.5 46.6172 55.7188C46.8047 56.9375 47.0859 58.0156 47.4609 58.9531C47.8828 59.8906 48.375 60.6406 48.9375 61.2031C49.5 61.7656 50.1797 62.0234 50.9766 61.9766C51.7734 61.9297 52.4766 61.6016 53.0859 60.9922C53.6953 60.3828 54.2344 59.6094 54.7031 58.6719C55.1719 57.7344 55.5469 56.6797 55.8281 55.5078C56.1094 54.3359 56.2969 53.1875 56.3906 52.0625ZM80.5078 43.0625C80.1328 43.0625 79.7109 43.2734 79.2422 43.6953C78.8203 44.0703 78.3984 44.6094 77.9766 45.3125C77.5547 45.9688 77.1328 46.7188 76.7109 47.5625C76.2891 48.3594 75.9141 49.1797 75.5859 50.0234C74.7891 51.9922 74.0156 54.0078 73.2656 56.0703C72.5156 58.1328 72.0703 59.9141 71.9297 61.4141C71.8828 61.5547 71.8594 61.6953 71.8594 61.8359C71.8594 61.9297 71.8594 62.0234 71.8594 62.1172C71.8125 62.2109 71.7891 62.3516 71.7891 62.5391C71.6953 63.1953 71.5547 63.7344 71.3672 64.1562C71.2266 64.5312 70.8984 64.7891 70.3828 64.9297C69.8203 65.0234 69.2578 65.0938 68.6953 65.1406C68.1328 65.1875 67.5938 65.1406 67.0781 65C66.75 64.9062 66.4922 64.7422 66.3047 64.5078C66.1641 64.2266 66.0469 63.9219 65.9531 63.5938C65.9062 63.2188 65.8594 62.8672 65.8125 62.5391C65.8125 62.2109 65.8125 61.9297 65.8125 61.6953C65.8125 61.4141 65.8359 60.5469 65.8828 59.0938C65.9297 57.5938 65.9766 55.9062 66.0234 54.0312C66.0703 52.1562 66.0938 50.3281 66.0938 48.5469C66.0938 46.7188 66.0703 45.3359 66.0234 44.3984C65.9297 43.7422 65.8359 43.1328 65.7422 42.5703C65.6484 42.0547 65.5312 41.5391 65.3906 41.0234C65.2969 40.5078 65.1328 40.0625 64.8984 39.6875C65.4141 39.4062 65.9297 39.1719 66.4453 38.9844C66.9609 38.7969 67.4297 38.6562 67.8516 38.5625C68.3672 38.4219 68.8359 38.3281 69.2578 38.2812C70.3828 38.1875 71.25 38.1875 71.8594 38.2812C72.5156 38.375 72.8438 38.8672 72.8438 39.7578C72.8438 40.5547 72.7734 41.7969 72.6328 43.4844C72.5391 45.125 72.4219 47.4219 72.2812 50.375C72.7969 49.2031 73.4062 47.8906 74.1094 46.4375C74.8125 44.9375 75.5625 43.5547 76.3594 42.2891C77.1562 40.9766 77.9766 39.8984 78.8203 39.0547C79.6641 38.1641 80.4609 37.7188 81.2109 37.7188C81.7266 37.7188 82.3125 37.8359 82.9688 38.0703C83.6719 38.2578 84.3281 38.5391 84.9375 38.9141C85.5469 39.2422 86.0859 39.6172 86.5547 40.0391C87.0703 40.4609 87.4219 40.8828 87.6094 41.3047C87.7969 41.7734 87.9141 42.5 87.9609 43.4844C88.0078 44.4688 88.0078 45.5703 87.9609 46.7891C88.3359 45.8984 88.7578 45.0312 89.2266 44.1875C89.6953 43.3438 90.1641 42.5703 90.6328 41.8672C91.1484 41.1172 91.6641 40.4844 92.1797 39.9688C92.6953 39.4531 93.1641 39.1016 93.5859 38.9141C94.1484 38.6797 94.8281 38.6328 95.625 38.7734C96.4219 38.9141 97.1953 39.1719 97.9453 39.5469C98.7422 39.875 99.4219 40.2734 99.9844 40.7422C100.594 41.2109 100.969 41.6562 101.109 42.0781C101.25 42.5469 101.367 43.2734 101.461 44.2578C101.555 45.2422 101.625 46.3203 101.672 47.4922C101.719 48.6641 101.742 49.8828 101.742 51.1484C101.742 52.3672 101.719 53.4453 101.672 54.3828C101.578 57.1016 101.602 59.2578 101.742 60.8516C101.883 62.3984 102.445 63.5469 103.43 64.2969C102.773 64.7188 102.164 65.0234 101.602 65.2109C101.039 65.4453 100.547 65.6094 100.125 65.7031C99.6094 65.8438 99.1641 65.9141 98.7891 65.9141C98.2734 65.9141 97.8516 65.7734 97.5234 65.4922C97.1953 65.2578 96.9375 64.9297 96.75 64.5078C96.5625 64.0859 96.4453 63.6172 96.3984 63.1016C96.3516 62.5859 96.3281 62.0703 96.3281 61.5547C96.3281 61.0859 96.3516 60.3125 96.3984 59.2344C96.4922 58.1094 96.5625 56.8438 96.6094 55.4375C96.6562 54.0312 96.6562 52.6016 96.6094 51.1484C96.5625 49.6484 96.4453 48.2891 96.2578 47.0703C96.1172 45.8047 95.8594 44.7734 95.4844 43.9766C95.1094 43.1797 94.5938 42.7812 93.9375 42.7812C93.375 42.7812 92.8359 43.1328 92.3203 43.8359C91.8047 44.4922 91.3125 45.3828 90.8438 46.5078C90.375 47.5859 89.9531 48.8047 89.5781 50.1641C89.25 51.4766 88.9453 52.7891 88.6641 54.1016C88.3828 55.4141 88.1719 56.6328 88.0312 57.7578C87.8906 58.8359 87.8203 59.7031 87.8203 60.3594L87.75 59.7266C87.75 60.6172 87.75 61.4375 87.75 62.1875C87.7969 62.9375 87.8438 63.6875 87.8906 64.4375C87.9375 64.7188 87.6797 64.9531 87.1172 65.1406C86.5547 65.375 85.9219 65.4688 85.2188 65.4219C84.5625 65.4219 83.9531 65.2812 83.3906 65C82.8281 64.7188 82.5469 64.25 82.5469 63.5938C82.5469 63.125 82.5469 62.4219 82.5469 61.4844C82.5469 60.5469 82.5234 59.4922 82.4766 58.3203C82.4766 57.1484 82.4531 55.9297 82.4062 54.6641C82.4062 53.3516 82.3828 52.1094 82.3359 50.9375C82.3359 50.0469 82.3125 49.1328 82.2656 48.1953C82.2656 47.2578 82.2188 46.4141 82.125 45.6641C82.0312 44.8672 81.8438 44.2344 81.5625 43.7656C81.3281 43.2969 80.9766 43.0625 80.5078 43.0625ZM116.508 65.7734C113.227 65.7734 110.695 64.6719 108.914 62.4688C107.133 60.2656 106.242 57.3828 106.242 53.8203C106.242 51.3359 106.594 49.0156 107.297 46.8594C108.047 44.6562 109.031 42.7578 110.25 41.1641C111.469 39.5703 112.875 38.3281 114.469 37.4375C116.109 36.5 117.82 36.0312 119.602 36.0312C121.336 36.0312 122.812 36.6641 124.031 37.9297C125.25 39.1484 125.859 40.9062 125.859 43.2031C125.859 44.7031 125.531 46.2031 124.875 47.7031C124.219 49.1562 123.352 50.4688 122.273 51.6406C121.242 52.7656 120.094 53.6797 118.828 54.3828C117.562 55.0859 116.344 55.4375 115.172 55.4375C114.422 55.4375 113.789 55.3438 113.273 55.1562C112.758 54.9688 112.289 54.6875 111.867 54.3125C112.008 56.9844 112.594 58.8594 113.625 59.9375C114.656 60.9688 115.992 61.4844 117.633 61.4844C118.758 61.4844 119.742 61.25 120.586 60.7812C121.477 60.3125 122.227 59.7734 122.836 59.1641C123.445 58.5547 123.938 57.9453 124.312 57.3359C124.688 56.6797 124.945 56.1875 125.086 55.8594C125.227 55.5781 125.461 55.4375 125.789 55.4375C126.164 55.4375 126.352 55.7188 126.352 56.2812C126.352 56.7969 126.164 57.5938 125.789 58.6719C125.461 59.7031 124.898 60.7578 124.102 61.8359C123.305 62.8672 122.273 63.7812 121.008 64.5781C119.789 65.375 118.289 65.7734 116.508 65.7734ZM119.742 39.0547C119.461 39.0547 118.922 39.3594 118.125 39.9688C117.375 40.5312 116.555 41.375 115.664 42.5C114.82 43.625 114.023 44.9844 113.273 46.5781C112.57 48.125 112.125 49.8828 111.938 51.8516C114.75 51.1953 116.977 50.1641 118.617 48.7578C120.258 47.3516 121.078 45.2891 121.078 42.5703C121.078 41.2109 120.914 40.2969 120.586 39.8281C120.258 39.3125 119.977 39.0547 119.742 39.0547Z" fill="white"/>
<path d="M121.828 105.516C122.016 104.906 122.18 103.875 122.32 102.422C122.508 101.016 122.648 99.5859 122.742 98.1328C122.883 96.4453 123 94.6172 123.094 92.6484C123.234 91.1953 123.352 89.3672 123.445 87.1641C123.539 84.9609 123.609 82.6172 123.656 80.1328C123.703 77.6484 123.727 75.1406 123.727 72.6094C123.727 70.0312 123.703 67.6406 123.656 65.4375C123.609 63.2344 123.516 61.3359 123.375 59.7422C123.281 58.1484 123.141 57.0703 122.953 56.5078C123.844 55.9922 124.641 55.6172 125.344 55.3828C126.047 55.1484 126.656 54.9844 127.172 54.8906C127.734 54.75 128.25 54.7031 128.719 54.75C129.094 54.7969 129.469 54.8672 129.844 54.9609C130.172 55.0547 130.477 55.1953 130.758 55.3828C131.039 55.5234 131.25 55.7344 131.391 56.0156C131.297 58.9688 131.18 61.9453 131.039 64.9453C130.945 67.8984 130.828 70.6172 130.688 73.1016C130.5 76.0078 130.312 78.7969 130.125 81.4688C129.984 84.2812 129.844 86.7188 129.703 88.7812C129.609 90.7969 129.516 92.5781 129.422 94.125C129.328 95.625 129.258 96.9844 129.211 98.2031C129.164 99.375 129.141 100.547 129.141 101.719C130.266 101.484 131.602 101.227 133.148 100.945C134.695 100.617 136.453 100.289 138.422 99.9609C140.297 99.6797 141.867 99.6094 143.133 99.75C144.398 99.8438 145.406 100.125 146.156 100.594C146.906 101.016 147.422 101.555 147.703 102.211C147.984 102.914 148.102 103.688 148.055 104.531C147.961 105.469 147.891 106.195 147.844 106.711C147.797 107.227 147.773 107.625 147.773 107.906C147.258 107.578 146.555 107.344 145.664 107.203C144.773 107.062 143.883 106.945 142.992 106.852C141.961 106.758 140.883 106.734 139.758 106.781C138.539 106.828 137.203 106.922 135.75 107.062C134.531 107.156 133.102 107.297 131.461 107.484C129.82 107.672 128.109 107.953 126.328 108.328C125.062 107.438 124.008 106.734 123.164 106.219C122.648 105.938 122.203 105.703 121.828 105.516ZM167.953 89.9062C167.859 91.7344 167.531 93.4219 166.969 94.9688C166.453 96.5156 165.727 97.875 164.789 99.0469C163.852 100.172 162.727 101.062 161.414 101.719C160.148 102.375 158.742 102.727 157.195 102.773C155.836 102.82 154.547 102.492 153.328 101.789C152.156 101.086 151.125 100.102 150.234 98.8359C149.344 97.5703 148.664 96.0703 148.195 94.3359C147.773 92.5547 147.656 90.6328 147.844 88.5703C147.984 86.1797 148.43 84.1406 149.18 82.4531C149.93 80.7188 150.727 79.2891 151.57 78.1641C152.414 77.0391 153.188 76.2188 153.891 75.7031C154.641 75.1406 155.109 74.8125 155.297 74.7188C155.625 74.5781 155.93 74.5547 156.211 74.6484C156.492 74.6953 156.797 74.7656 157.125 74.8594C157.219 74.9062 157.312 75.0234 157.406 75.2109C157.594 75.5391 157.711 76.1484 157.758 77.0391C157.992 76.5234 158.297 76.1016 158.672 75.7734C159.047 75.4453 159.422 75.2109 159.797 75.0703C160.266 74.8828 160.734 74.7656 161.203 74.7188C161.531 74.6719 162.094 74.9297 162.891 75.4922C163.734 76.0547 164.531 76.9453 165.281 78.1641C166.078 79.3828 166.758 80.9766 167.32 82.9453C167.883 84.8672 168.094 87.1875 167.953 89.9062ZM163.172 89.0625C163.219 87.9375 163.172 86.8125 163.031 85.6875C162.938 84.5156 162.75 83.4609 162.469 82.5234C162.234 81.5391 161.93 80.7656 161.555 80.2031C161.18 79.5938 160.805 79.2891 160.43 79.2891C160.008 79.3828 159.539 79.5938 159.023 79.9219C158.602 80.2031 158.133 80.6484 157.617 81.2578C157.102 81.8672 156.609 82.7344 156.141 83.8594C156.094 83.7188 156.047 83.4609 156 83.0859C155.953 82.7578 155.906 82.3359 155.859 81.8203C155.859 81.2578 155.906 80.5078 156 79.5703C155.344 80.3672 154.828 81.3047 154.453 82.3828C154.125 83.4609 153.867 84.4922 153.68 85.4766C153.492 86.6484 153.352 87.8203 153.258 88.9922C153.211 90.2578 153.258 91.5 153.398 92.7188C153.586 93.9375 153.867 95.0156 154.242 95.9531C154.664 96.8906 155.156 97.6406 155.719 98.2031C156.281 98.7656 156.961 99.0234 157.758 98.9766C158.555 98.9297 159.258 98.6016 159.867 97.9922C160.477 97.3828 161.016 96.6094 161.484 95.6719C161.953 94.7344 162.328 93.6797 162.609 92.5078C162.891 91.3359 163.078 90.1875 163.172 89.0625ZM192.07 98.4141C192.164 98.7422 192.305 99.0469 192.492 99.3281C192.633 99.5625 192.82 99.7969 193.055 100.031C193.336 100.219 193.664 100.336 194.039 100.383C193.711 101.039 193.383 101.484 193.055 101.719C192.867 101.859 192.703 101.953 192.562 102C192.141 102.141 191.508 102.211 190.664 102.211C189.82 102.211 189 101.953 188.203 101.438C187.922 101.203 187.664 100.852 187.43 100.383C187.195 100.008 186.984 99.4922 186.797 98.8359C186.656 98.1328 186.539 97.2422 186.445 96.1641C185.789 97.5703 185.039 98.6953 184.195 99.5391C183.398 100.336 182.602 100.922 181.805 101.297C180.914 101.812 180 102.117 179.062 102.211C177.891 102.305 176.766 102.117 175.688 101.648C174.656 101.133 173.766 100.383 173.016 99.3984C172.312 98.3672 171.773 97.125 171.398 95.6719C171.023 94.2188 170.906 92.5781 171.047 90.75C171.188 88.8281 171.562 87.1172 172.172 85.6172C172.781 84.1172 173.508 82.7812 174.352 81.6094C175.195 80.4375 176.086 79.4531 177.023 78.6562C177.961 77.8125 178.852 77.1328 179.695 76.6172C180.586 76.0547 181.336 75.6562 181.945 75.4219C182.602 75.1406 183.023 74.9766 183.211 74.9297C183.727 74.7891 184.172 74.7422 184.547 74.7891C184.922 74.8359 185.25 75.0469 185.531 75.4219C185.625 75.5625 185.742 75.7266 185.883 75.9141C185.977 76.1016 186.094 76.3594 186.234 76.6875C186.375 76.9688 186.492 77.2969 186.586 77.6719C185.461 78.1875 184.406 78.7734 183.422 79.4297C182.438 80.0391 181.523 80.7891 180.68 81.6797C179.883 82.5703 179.18 83.6484 178.57 84.9141C177.961 86.1797 177.492 87.7266 177.164 89.5547C176.695 91.8516 176.812 93.7031 177.516 95.1094C178.266 96.5156 179.273 97.1016 180.539 96.8672C181.289 96.6328 182.016 96.1875 182.719 95.5312C183.328 94.9688 183.961 94.125 184.617 93C185.32 91.875 185.977 90.3281 186.586 88.3594C186.82 85.5469 187.008 83.3438 187.148 81.75C187.336 80.1094 187.5 78.8672 187.641 78.0234C187.828 77.0391 187.969 76.3828 188.062 76.0547C188.203 75.8203 188.484 75.6094 188.906 75.4219C189.328 75.1875 189.797 75 190.312 74.8594C190.828 74.7188 191.297 74.6484 191.719 74.6484C192.141 74.6016 192.422 74.6016 192.562 74.6484C192.656 74.6953 192.703 75.2812 192.703 76.4062C192.703 77.4844 192.656 78.8672 192.562 80.5547C192.516 82.1953 192.445 84 192.352 85.9688C192.258 87.8906 192.164 89.7188 192.07 91.4531C192.023 93.1875 191.977 94.7109 191.93 96.0234C191.93 97.2891 191.977 98.0859 192.07 98.4141ZM205.43 100.102C205.383 100.383 205.125 100.688 204.656 101.016C204.234 101.297 203.719 101.555 203.109 101.789C202.547 102.023 202.008 102.164 201.492 102.211C200.977 102.305 200.625 102.258 200.438 102.07C200.25 101.883 199.945 101.531 199.523 101.016C199.102 100.5 198.844 99.6562 198.75 98.4844C198.656 97.2656 198.609 95.7422 198.609 93.9141C198.609 92.0391 198.586 89.9766 198.539 87.7266V84.9141C198.539 84.0703 198.516 83.0859 198.469 81.9609C198.469 80.8359 198.445 79.6641 198.398 78.4453C198.82 78.2109 199.242 78 199.664 77.8125C200.133 77.5781 200.555 77.3906 200.93 77.25C201.352 77.0625 201.75 76.9219 202.125 76.8281C203.109 76.5469 203.859 76.3828 204.375 76.3359C204.891 76.2891 205.195 76.4531 205.289 76.8281C205.336 77.1094 205.312 77.7891 205.219 78.8672C205.125 79.8047 205.008 81.2344 204.867 83.1562C204.727 85.0312 204.492 87.6562 204.164 91.0312C204.773 89.5312 205.266 88.2422 205.641 87.1641C206.062 86.0859 206.414 85.2188 206.695 84.5625C206.977 83.7656 207.234 83.1328 207.469 82.6641C207.703 82.0547 208.008 81.375 208.383 80.625C208.758 79.875 209.133 79.1719 209.508 78.5156C209.93 77.8594 210.305 77.2734 210.633 76.7578C211.008 76.2422 211.289 75.9375 211.477 75.8438C211.617 75.75 212.039 75.75 212.742 75.8438C213.445 75.9375 214.195 76.1719 214.992 76.5469C215.789 76.875 216.562 77.3672 217.312 78.0234C218.062 78.6328 218.555 79.3828 218.789 80.2734C219.07 81.3047 219.164 82.6641 219.07 84.3516C219.023 86.0391 218.906 87.7734 218.719 89.5547C218.578 91.3359 218.461 93.0234 218.367 94.6172C218.273 96.2109 218.367 97.4297 218.648 98.2734C218.742 98.7422 218.883 99.1641 219.07 99.5391C219.164 99.9141 219.281 100.266 219.422 100.594C219.609 100.875 219.797 101.086 219.984 101.227C218.859 101.742 217.945 102.117 217.242 102.352C216.539 102.586 216 102.75 215.625 102.844C215.156 102.984 214.828 103.031 214.641 102.984C214.219 102.844 213.844 102.492 213.516 101.93C213.234 101.367 212.977 100.477 212.742 99.2578C212.648 98.8828 212.602 98.2734 212.602 97.4297C212.648 96.5391 212.719 95.5547 212.812 94.4766C212.906 93.3516 213 92.2031 213.094 91.0312C213.234 89.8125 213.328 88.6875 213.375 87.6562C213.469 86.5781 213.539 85.6641 213.586 84.9141C213.633 84.1172 213.633 83.5781 213.586 83.2969C213.352 82.4531 213.023 81.8672 212.602 81.5391C212.18 81.1641 211.852 81.1172 211.617 81.3984C211.008 82.1016 210.352 83.25 209.648 84.8438C208.992 86.3906 208.359 88.1016 207.75 89.9766C207.141 91.8047 206.625 93.6328 206.203 95.4609C205.781 97.2891 205.523 98.8359 205.43 100.102ZM235.172 88.6406C236.203 89.0156 237.188 89.3672 238.125 89.6953C239.062 90.0234 239.883 90.4219 240.586 90.8906C241.289 91.3594 241.852 91.9219 242.273 92.5781C242.695 93.1875 242.906 93.9609 242.906 94.8984C242.906 96.0234 242.648 97.0781 242.133 98.0625C241.664 99.0469 240.961 99.9141 240.023 100.664C239.086 101.414 237.938 102 236.578 102.422C235.266 102.891 233.789 103.125 232.148 103.125C230.32 103.125 228.844 102.938 227.719 102.562C226.594 102.234 225.727 101.836 225.117 101.367C224.508 100.898 224.109 100.43 223.922 99.9609C223.734 99.4922 223.641 99.1172 223.641 98.8359C223.641 98.2734 223.758 97.6641 223.992 97.0078C224.227 96.3047 224.672 95.5547 225.328 94.7578C225.609 94.4297 225.914 94.125 226.242 93.8438C226.898 93.2812 227.555 92.9297 228.211 92.7891C228.117 93.8672 228.234 94.7578 228.562 95.4609C228.938 96.1172 229.406 96.6328 229.969 97.0078C230.578 97.3828 231.234 97.6406 231.938 97.7812C232.688 97.9219 233.391 97.9922 234.047 97.9922C234.703 97.9922 235.359 97.8984 236.016 97.7109C236.719 97.5234 237.352 97.2891 237.914 97.0078C238.477 96.6797 238.922 96.3281 239.25 95.9531C239.625 95.5312 239.812 95.0859 239.812 94.6172C239.812 94.1016 239.602 93.6797 239.18 93.3516C238.758 93.0234 238.219 92.7656 237.562 92.5781C236.953 92.3438 236.273 92.1797 235.523 92.0859C234.82 91.9453 234.141 91.8047 233.484 91.6641C232.828 91.5234 231.938 91.3359 230.812 91.1016C229.734 90.8203 228.656 90.3984 227.578 89.8359C226.547 89.2734 225.633 88.5234 224.836 87.5859C224.086 86.6484 223.711 85.4062 223.711 83.8594C223.711 82.0781 224.156 80.5312 225.047 79.2188C225.984 77.8594 227.109 76.7344 228.422 75.8438C229.781 74.9062 231.211 74.2031 232.711 73.7344C234.211 73.2656 235.547 73.0312 236.719 73.0312C237.328 73.0312 237.984 73.125 238.688 73.3125C239.391 73.4531 240.047 73.7344 240.656 74.1562C241.266 74.5312 241.758 75.0469 242.133 75.7031C242.555 76.3594 242.766 77.2031 242.766 78.2344C242.766 79.2656 242.672 80.1094 242.484 80.7656C242.344 81.375 242.109 81.8672 241.781 82.2422C241.5 82.5703 241.148 82.7812 240.727 82.875C240.305 82.9688 239.812 83.0156 239.25 83.0156C238.875 83.0156 238.523 82.9688 238.195 82.875C237.914 82.7812 237.609 82.6875 237.281 82.5938C236.953 82.5 236.648 82.3359 236.367 82.1016C236.836 81.5391 237.188 81 237.422 80.4844C237.703 79.9688 237.844 79.3359 237.844 78.5859C237.844 77.9297 237.656 77.3438 237.281 76.8281C236.953 76.3125 236.391 76.0547 235.594 76.0547C234.75 76.0547 233.93 76.2188 233.133 76.5469C232.383 76.875 231.703 77.3203 231.094 77.8828C230.531 78.4453 230.062 79.1016 229.688 79.8516C229.359 80.5547 229.195 81.3281 229.195 82.1719C229.195 83.4375 229.664 84.6328 230.602 85.7578C231.586 86.8828 233.109 87.8438 235.172 88.6406Z" fill="white"/>
</svg>
